<svg xmlns="http://www.w3.org/2000/svg" xmlns:xlink="http://www.w3.org/1999/xlink" width="326.478" height="507.007" viewBox="0 0 326.478 507.007"><defs><clipPath id="a"><path d="M1279.946,628.238c-.974.273-1.94.567-2.915.84-1.881.525-3.758,1.079-5.64,1.617-1.835.525-3.679,1.016-5.518,1.52-1.067.29-2.134.6-3.209.853-.974.235-1.957.445-2.939.647-2.138.445-4.284.886-6.376,1.5l-.029.008a11.324,11.324,0,0,0,.55-1.4,8.827,8.827,0,0,0,.437-1.776c.017-.118.034-.231.046-.349a7.368,7.368,0,0,0,.122-1.768c-.034-.252-.067-.508-.1-.76a9.559,9.559,0,0,0-.5-1.894,8.559,8.559,0,0,0-1.029-1.885c-.278-.366-.563-.719-.866-1.063-.323-.256-.646-.508-.974-.76-.323-.139-.651-.273-.974-.412l-.378-.126a18.661,18.661,0,0,0-2.608-.651c-1.791-.335-3.6-.53-5.409-.764l.117.017-.2-.028-.144-.018.067.008c-2.027-.283-4.064-.536-6.085-.886-2.117-.361-4.233-.748-6.338-1.18-4.4-.907-8.781-1.924-13.182-2.835-2.066-.428-4.133-.848-6.228-1.109-2.264-.281-4.523-.5-6.8-.609-.634-.033-1.264-.075-1.9-.092-.554-.017-1.113-.059-1.672-.046-1.016.025-2.036.05-3.053.1q-3.142.152-6.283.382c-2.2.16-4.388.391-6.576.63-.449.051-.9.126-1.34.194-.6.088-1.2.163-1.8.264-1.075.181-2.147.366-3.218.542-2.309.386-4.619.743-6.925,1.159a47.109,47.109,0,0,0-6.085,1.462c-2.318.751-4.569,1.671-6.82,2.612-.97.4-1.928.831-2.886,1.264-1,.453-1.99.949-2.981,1.432q-3.3,1.6-6.59,3.234c-.966.474-1.944.94-2.906,1.428-1.02.52-2.066,1.008-3.07,1.558-1.02.562-2.053,1.1-3.061,1.692q-1.486.87-2.974,1.751c-.97.576-1.948,1.155-2.935,1.7-.525.29-1.046.584-1.579.857-.4.21-.8.416-1.2.622-.447.2-.9.4-1.343.6l-1.119.348a10.328,10.328,0,0,1-1.687.026l-.53-.157c-.045-.047-.089-.094-.134-.14l-.135-.251c-.022-.1-.042-.193-.063-.289.008-.116.018-.231.027-.346.05-.158.1-.317.15-.475a12.311,12.311,0,0,1,.835-1.444c.2-.292.412-.575.628-.856.435-.537.867-1.076,1.334-1.584.424-.462.852-.907,1.289-1.352,1.008-1.021,2.045-2.02,3.1-2.986,2.323-2.124,4.676-4.215,7.122-6.2,1.417-1.085,2.865-2.126,4.339-3.136a31.542,31.542,0,0,1,4.376-2.5c1.751-.823,3.511-1.625,5.237-2.5.852-.428,1.717-.844,2.553-1.31s1.7-.911,2.507-1.44a41.875,41.875,0,0,0,3.9-2.856c.572-.483,1.138-.974,1.71-1.457.495-.416,1.008-.819,1.486-1.252a20.747,20.747,0,0,0,1.609-1.558c.424-.47.836-.949,1.247-1.436q1.232-1.464,2.388-2.982c.627-.8,1.242-1.611,1.857-2.418.4-.52.8-1.053,1.24-1.534.37-.4.739-.794,1.117-1.18.745-.749,1.534-1.431,2.339-2.112a12.548,12.548,0,0,1,1.638-1.155l.429-.24q.654-.372,1.335-.714c.984-.486,1.972-.957,2.978-1.4a31.438,31.438,0,0,1,6.118-1.9,14.967,14.967,0,0,1,1.857-.107,16.756,16.756,0,0,1,1.962.154,20.326,20.326,0,0,1,2.884.745c.808.282,1.6.605,2.4.924a40.447,40.447,0,0,1,4.158,2.032,23.819,23.819,0,0,0,4.212,1.97,10.98,10.98,0,0,0,1.55.4,7.853,7.853,0,0,0,1.47.193,6.675,6.675,0,0,0,1.709-.2c.361-.1.718-.2,1.071-.324,1.373-.487,2.663-1.187,3.985-1.794a18.455,18.455,0,0,1,1.811-.671,20.774,20.774,0,0,1,2.141-.516l.8-.1a9.257,9.257,0,0,1,2.044-.026,15.168,15.168,0,0,1,2.055.45c.43.13.84.287,1.256.445a18.457,18.457,0,0,1,1.97,1.021c.731.447,1.425.936,2.119,1.433,1.508,1.177,2.991,2.393,4.4,3.686,1.36,1.243,2.725,2.486,3.989,3.83,1.651,1.751,3.247,3.549,4.88,5.313.765.827,1.508,1.675,2.293,2.482l1.248,1.285c.411.424.814.878,1.247,1.281,1.663,1.571,3.318,3.158,5.107,4.59.747.6,1.508,1.172,2.284,1.734.794.58,1.588,1.164,2.4,1.706.974.646,1.944,1.28,2.961,1.856.94.533,1.868,1.071,2.822,1.575,2.116,1.125,4.279,2.129,6.459,3.133.407.168.81.34,1.218.508a15.513,15.513,0,0,0,2.654.827c.525.084,1.054.16,1.579.227l1.226.038c.466-.063.928-.126,1.394-.193.353-.131.706-.265,1.055-.395a5.033,5.033,0,0,0,1.579-.84,3.929,3.929,0,0,0,1.066-1.008c.168-.3.332-.609.5-.916a6.694,6.694,0,0,0,.571-2.247,12.67,12.67,0,0,0-.063-3.779,42.571,42.571,0,0,0-1.549-6.791,51.726,51.726,0,0,0-1.941-5.078c-.453-1.012-.978-2-1.507-2.977s-1.059-1.953-1.605-2.923c-1.05-1.86-2.125-3.717-3.25-5.531-1.163-1.877-2.36-3.725-3.608-5.548-1.264-1.848-2.637-3.612-3.981-5.4-1.319-1.751-2.591-3.536-3.75-5.4-.542-.874-1.126-1.743-1.6-2.659-.516-1-1.008-2.006-1.462-3.032-1.569-3.917-2.418-8.06-3.59-12.1-.555-1.915-1.218-3.8-1.689-5.745-.243-1.013-.491-2.025-.663-3.054-.121-.735-.232-1.466-.341-2.2-.415-3.536-.72-7.083-1.058-10.623q-.087-.91-.168-1.823l.03-.033c.205-.26.411-.521.617-.777a12.378,12.378,0,0,0,1.365-2.591,31.917,31.917,0,0,0,1.369-3.506,5.347,5.347,0,0,0,.323-.505,8.282,8.282,0,0,0,.71-1.469,6.817,6.817,0,0,0,.357-1.323,6.69,6.69,0,0,0,.084-.971q-.075-.559-.151-1.121l-.033-.121c.039-.188.076-.376.105-.563.184-1.159.361-2.319.541-3.478.067-.436.105-.873.156-1.31.075-.643.172-1.289.226-1.936.11-1.218.21-2.432.273-3.654a14.508,14.508,0,0,0-.222-3.88c-.177-.819-.362-1.63-.6-2.436-.319-1.059-.63-2.129-1.05-3.154a21.129,21.129,0,0,0-1.016-2.318c-.172-.319-.344-.634-.521-.949-.168-.257-.336-.513-.5-.765a6.892,6.892,0,0,0-1.058-1.2.737.737,0,0,0-.706-.189c-.361.126-.873.194-1.1.559a4.408,4.408,0,0,0-.752,1.617,15.94,15.94,0,0,0-.512,2.7c-.067.471-.122.941-.177,1.411-.079.895-.163,1.794-.214,2.693-.138,2.637-.273,5.274-.357,7.916-.038,1.159-.084,2.314-.067,3.473.008.555.02,1.107.035,1.659a2.844,2.844,0,0,0-.581.529,16.034,16.034,0,0,0-1.138,1.566,16.444,16.444,0,0,0-.836,1.525,13.208,13.208,0,0,0-.647,1.625c-.121.349-.243.7-.365,1.05-.315,1.008-.634,2.015-.966,3.019a10.688,10.688,0,0,1-1.063,1.912,9.826,9.826,0,0,1-1.7,1.781,12.252,12.252,0,0,1-2.248,1.311,32.431,32.431,0,0,1-3.233,1.179,20.38,20.38,0,0,1-2.432.6q-.294.035-.589.056l-.007-.015.006.015h0a8.425,8.425,0,0,1-.5-1.68,7.021,7.021,0,0,1-.1-1.958,6.543,6.543,0,0,1,.522-1.649c.289-.616.574-1.24.922-1.83.2-.336.4-.676.592-1.016a17.715,17.715,0,0,1,1.494-2.2q.708-.8,1.433-1.582c.176-.223.349-.454.521-.681a6.162,6.162,0,0,0,.718-1.407,7.142,7.142,0,0,0,.361-2.679c-.029-.42-.075-.844-.134-1.264-.1-.323-.193-.647-.29-.97a4.6,4.6,0,0,0-.521-.962c-.235-.332-.479-.659-.726-.978a7.778,7.778,0,0,0-.8-.689c-.185-.08-.374-.164-.563-.244a6.311,6.311,0,0,0-2.944-.327,11.078,11.078,0,0,0-2.986.714,21.856,21.856,0,0,0-2.637,1.167c-1.77.9-3.575,1.734-5.4,2.51a20.58,20.58,0,0,1-2.277.69c-.8.178-1.6.338-2.41.491a12.387,12.387,0,0,1-2.087.143c-.177,0-.357-.012-.533-.016-.37-.005-.735-.026-1.1-.059-.552-.042-1.1-.106-1.652-.17-.608-.1-1.217-.2-1.821-.317l-1.206-.24a12.219,12.219,0,0,1-2.417-.717c-1.257-.649-2.47-1.376-3.781-1.912a11.032,11.032,0,0,0-3.364-.785,14.99,14.99,0,0,0-2.033-.025,16.572,16.572,0,0,0-1.982.264l-.081.016c-.126-.155-.26-.306-.431-.486-.211-.168-.425-.328-.647-.487a5.909,5.909,0,0,0-1.327-.6,7.7,7.7,0,0,0-1.441-.277,18.381,18.381,0,0,0-4.6.114,15.59,15.59,0,0,0-2.066.382c-.525.13-1.046.256-1.562.416-.407.121-.811.243-1.218.369a25.51,25.51,0,0,0-2.9,1.184,11.561,11.561,0,0,0-1.822,1.076c-.127.088-.252.18-.378.268-.2.131-.387.273-.572.416-1.369,1.075-2.692,2.2-3.952,3.4-1.192,1.138-2.335,2.318-3.464,3.524-.521.554-1.029,1.121-1.542,1.688-.394.428-.777.869-1.176,1.293a6.963,6.963,0,0,1-1.029,1,9.241,9.241,0,0,1-2.234.59,25.4,25.4,0,0,1-3.674.192,19.508,19.508,0,0,1-2.985-.245,18.4,18.4,0,0,1-2.664-.6c-.45-.158-.9-.312-1.345-.469-.371-.209-.739-.42-1.109-.632a18.127,18.127,0,0,1-1.137-1.877c-.306-.583-.584-1.176-.865-1.772.025.067.055.139.084.206a12.6,12.6,0,0,1-1.012-2.826,18.041,18.041,0,0,1,.084-2.495c.061-.547.122-1.094.189-1.641a39.283,39.283,0,0,1,1.222-5.5q.777-2.594,1.757-5.114a39.908,39.908,0,0,1,1.792-3.688q.762-1.33,1.55-2.646c.4-.672.806-1.348,1.2-2.02a33.345,33.345,0,0,0,1.65-2.953,14.056,14.056,0,0,0,.845-2.406c.646-2.528,1.07-5.107,1.515-7.673.479-2.755,1.021-5.5,1.487-8.256q.353-2.111.714-4.225c.185-1.088.319-2.184.475-3.276.3-2.1.491-4.208.7-6.316.109-1.105.168-2.214.248-3.318q.12-1.713.231-3.427c.151-2.331.243-4.666.369-7s.282-4.7.391-7.043c.109-2.377.21-4.754.349-7.131.071-1.172.147-2.339.176-3.515s.038-2.327.029-3.494c-.012-2.276-.021-4.548-.075-6.82q-.051-2.187-.1-4.372c-.025-1.1-.1-2.2-.156-3.31-.063-1.218-.184-2.436-.289-3.653-.089-.987-.227-1.957-.366-2.936-.088-.651-.164-1.306-.285-1.948-.139-.736-.277-1.471-.42-2.206-.223-1.179-.487-2.347-.74-3.523-.205-.937-.445-1.873-.705-2.8-.206-.731-.412-1.457-.617-2.188-.248-.882-.571-1.722-.9-2.574a15.409,15.409,0,0,0-.811-1.689c-.293-.588-.6-1.167-.94-1.73a9.568,9.568,0,0,0-1.924-2.343c-.873-.71-1.747-1.416-2.683-2.041-1.021-.681-2.054-1.336-3.1-1.983-.941-.579-1.915-1.1-2.877-1.654-.592-.336-1.226-.618-1.839-.92-.546-.269-1.088-.534-1.634-.8-.365-.181-.773-.315-1.142-.462-.55-.219-1.1-.454-1.651-.66-1.587-.583-3.166-1.175-4.733-1.814.084.038.168.072.252.109-.919-.394-1.86-.777-2.751-1.243-.814-.428-1.62-.861-2.406-1.335a58.337,58.337,0,0,1-5.179-3.584c-1.2-.929-2.381-1.875-3.535-2.863-1.079-.928-2.171-1.848-3.293-2.73-1.251-.982-2.49-1.982-3.792-2.9a26.946,26.946,0,0,0-3.427-2.222c-.722-.361-1.445-.752-2.2-1.042a18.577,18.577,0,0,0-2.33-.8c-.483-.109-.967-.248-1.453-.331l-1.336-.227c-.823-.139-1.651-.248-2.478-.362-.764-.1-1.529-.2-2.3-.289a33.944,33.944,0,0,0-4.754-.34c-2.134.041-4.271.151-6.4.319-2,.155-3.994.31-5.993.483-.794.067-1.58.138-2.365.243-.844.11-1.684.223-2.524.332-.928.126-1.844.328-2.759.5-1.453.273-2.906.542-4.351.848-1.4.3-2.793.613-4.17.991-.945.244-1.886.513-2.814.811a33.093,33.093,0,0,0-4.561,1.881,27.175,27.175,0,0,0-3.607,2.113c-.429.31-.853.626-1.269.953a12.464,12.464,0,0,0-1.558,1.516c-.193.24-.382.479-.571.718a10.2,10.2,0,0,0-.7.987,7.718,7.718,0,0,0-1.268,2.89q-.14.863-.252,1.726a6.169,6.169,0,0,0,0,1.965,4.709,4.709,0,0,0,.42,1.739,4.323,4.323,0,0,0,.936,1.172,5.093,5.093,0,0,0,.687.444c-.259.249-.519.5-.792.735-4.044,3.473-8.1,6.945-12.314,10.215a23.753,23.753,0,0,1-2.1,1.381c-.34.168-.68.336-1.023.5l-1.5.369-1.441.062-1.367-.2a8.428,8.428,0,0,1-2.123-1.2l-.7-.736a4.905,4.905,0,0,1-.313-1.075,8.747,8.747,0,0,1-.034-1.552c.024-.287.048-.578.072-.866a21.018,21.018,0,0,1,.671-3.132c.286-.907.6-1.8.945-2.692.265-.689.563-1.374.777-2.083a23.719,23.719,0,0,0,.6-2.466c.079-.42.134-.865.172-1.285s.092-.852.113-1.28c.05-1.088.092-2.168.118-3.255.046-1.995.033-4,.016-5.989-.025-2.415-.021-4.834-.113-7.244-.046-1.181-.092-2.365-.139-3.545-.046-1.117-.138-2.23-.209-3.343s-.215-2.213-.345-3.318a32.661,32.661,0,0,0-1.125-5.745,95.359,95.359,0,0,0-3.381-9.634q-.244-.584-.505-1.168c.077-.066.154-.13.232-.193q.995-.775,1.986-1.561c1.2-.9,2.392-1.834,3.642-2.672a36.335,36.335,0,0,1,3.431-2.117c1.177-.609,2.36-1.182,3.573-1.719,1.575-.633,3.157-1.216,4.755-1.792.8-.281,1.6-.587,2.406-.835a26.354,26.354,0,0,1,2.738-.76q.516-.092,1.032-.188c2.855-.252,5.733-.318,8.6-.417.991-.034,1.987-.034,2.982-.042,1.063-.008,2.133-.059,3.2-.008q2.18.1,4.368.205c1.091.051,2.183.194,3.271.29,2.011.187,4.015.446,6.018.691l2.1.321c.491.076,1,.13,1.495.227,1.31.269,2.625.533,3.935.811,2.369.5,4.771.835,7.169,1.184,2.528.365,5.052.739,7.585,1.05q3.946.482,7.889.944c3.979.586,7.962,1.142,11.92,1.857q6.451,1.165,12.906,2.339c1,.181,2.008.315,3.007.47,1.2.185,2.39.374,3.587.559.667.105,1.343.172,2.02.248,1.3.151,2.6.306,3.893.454,1.058.121,2.125.2,3.187.3.458.042.924.105,1.386.13,1.092.08,2.188.113,3.284.113,2.625-.113,5.258-.294,7.866-.626.534-.063,1.067-.13,1.6-.2l1.189-.189a5.685,5.685,0,0,0,1.508-.458,4.98,4.98,0,0,0,1.255-.764c.273-.214.546-.429.823-.643a8.325,8.325,0,0,0,.811-.945c.1-.184.2-.365.294-.55a6.489,6.489,0,0,0,.521-1.583c.05-.349.092-.7.121-1.05a12.71,12.71,0,0,0-.357-2.982c-.184-.752-.415-1.486-.659-2.221-1.2-3.612-2.356-7.241-3.528-10.865-.483-1.495-.978-2.974-1.554-4.439-.2-.491-.42-.979-.65-1.457-.286-.479-.576-.958-.861-1.437a7.118,7.118,0,0,0-1.676-1.633,10.9,10.9,0,0,0-1.3-.9,9.859,9.859,0,0,0-1.591-.8l-1.491-.622c-.626-.248-1.256-.466-1.9-.663a29.291,29.291,0,0,0-5.182-.912c-2.079-.159-4.166-.26-6.245-.453-1.678-.152-3.351-.352-5.025-.561-1.365-.208-2.727-.425-4.084-.666-1.151-.2-2.293-.424-3.444-.621-2.389-.4-4.8-.748-7.211-1.016-1.327-.152-2.645-.286-3.973-.391q-2.054-.157-4.107-.3-2.411-.165-4.833-.163-1.176,0-2.353.037-4.7.145-9.394.365c-1.378.063-2.755.189-4.128.286-1.2.084-2.394.189-3.587.3-1.247.118-2.5.231-3.746.357-1.533.16-3.078.277-4.607.479-2.764.365-5.523.731-8.278,1.142-2.545.378-5.094.748-7.626,1.193-2.1.369-4.179.815-6.266,1.256-1.252.264-2.507.516-3.751.823l-2.482.617c-.373.093-.73.177-1.092.294-1.112.374-2.225.731-3.313,1.163q-1.7.675-3.389,1.382c-2.31.966-4.6,1.974-6.867,3.045-2.066.978-4.09,2.032-6.106,3.1-4.065,2.168-8.168,4.259-12.175,6.535-1.919,1.092-3.792,2.26-5.661,3.444s-3.729,2.356-5.59,3.544q-3.13,2-6.207,4.1c-1.726,1.18-3.372,2.474-5.014,3.767-.55.437-1.118.861-1.651,1.315-.621.529-1.243,1.063-1.869,1.591-.835.714-1.608,1.479-2.4,2.243s-1.545,1.554-2.31,2.34c-.839.86-1.633,1.763-2.44,2.658-.693.773-1.322,1.6-1.973,2.406-.685.849-1.374,1.7-2.054,2.545-1.348,1.693-2.709,3.369-4.158,4.977-1.4,1.558-2.981,2.914-4.447,4.4-1.587,1.617-3.091,3.293-4.54,5.032-.147.189-.294.378-.437.571-.243.327-.491.655-.735.982-.273.4-.554.79-.814,1.2-.513.8-1.038,1.592-1.538,2.4-.592.954-1.163,1.92-1.746,2.873s-1.2,1.915-1.777,2.885c-.617,1.033-1.235,2.066-1.781,3.137-.441.857-.873,1.714-1.289,2.579-.386.794-.752,1.6-1.067,2.427a24.4,24.4,0,0,0-.953,2.722,57.076,57.076,0,0,0-1.5,11.7c-.106,2.259-.068,4.519-.059,6.782q.012,3.018.021,6.035.012,6.432.033,12.868c.026,4.889.059,9.777.143,14.665.042,2.289.155,4.578.168,6.867,0,.647.042,1.3.013,1.949q-.045.875-.085,1.751c-.046.92-.1,1.839-.167,2.759-.089,1.336-.156,2.663-.194,4-.029.966-.012,1.94,0,2.91.026,2.214.051,4.427.118,6.64.072,2.445.172,4.889.264,7.337.089,2.348.11,4.7.123,7.047.021,4.578.092,9.155.348,13.729q.41,7.263,1.1,14.506c.433,4.649.748,9.306,1.029,13.964.147,2.406.248,4.817.449,7.219.105,1.251.232,2.49.382,3.738.122,1.033.265,2.062.408,3.091.2,1.465.433,2.922.668,4.384.155.966.361,1.919.533,2.877q.673,3.717,1.323,7.437,1.191,6.807,2.282,13.631c.361,2.766.689,5.539.943,8.321.139,1.524.261,3.049.378,4.578.11,1.436.244,2.876.332,4.313.172,2.7.319,5.392.613,8.076.168,1.495.365,2.977.58,4.464.184,1.281.457,2.558.731,3.822.529,2.456,1.083,4.905,1.482,7.383.361,2.217.672,4.443,1.1,6.644.265,1.36.563,2.713.9,4.056.315,1.244.718,2.457,1.151,3.663.462,1.272,1.012,2.515,1.541,3.763.483,1.146.975,2.288,1.461,3.435-.041-.1-.083-.2-.125-.3.688,1.637,1.415,3.284,1.957,4.98q.63,1.979,1.184,3.986c.882,3.2,1.751,6.4,2.73,9.579a89.641,89.641,0,0,0,3,8.6c1.18,2.788,2.423,5.545,3.6,8.332,1.118,2.755,2.175,5.539,3.452,8.223.748,1.575,1.5,3.158,2.34,4.679.428.781.84,1.574,1.306,2.331.391.638.773,1.28,1.176,1.91.475.756.936,1.529,1.445,2.26s1,1.5,1.545,2.213c1.042,1.356,2.1,2.7,3.179,4.023.861,1.054,1.73,2.1,2.587,3.15q1.467,1.8,2.915,3.61c3.223,4.339,6.333,8.778,9.869,12.865.983,1.138,1.978,2.26,3,3.36.47.508.928,1.029,1.411,1.52.529.538,1.037,1.1,1.591,1.617,1.063.987,2.13,1.966,3.243,2.9q1.479,1.254,2.961,2.511c3.473,2.974,6.761,6.165,10.1,9.29,1.843,1.726,3.682,3.457,5.555,5.145.841.756,1.655,1.545,2.524,2.259.975.8,1.945,1.6,2.919,2.394.5.407,1.037.773,1.554,1.155.441.323.874.68,1.332.978.936.618,1.86,1.231,2.83,1.789,1.991,1.147,4.028,2.214,6.048,3.3q.837.453,1.675.9c.479.261.979.5,1.445.782.827.495,1.655.986,2.478,1.486q3.326,2.028,6.639,4.078c1.907,1.176,3.789,2.39,5.687,3.578,2.112,1.323,4.241,2.612,6.379,3.893.878.525,1.752,1.042,2.65,1.529l4.179,2.281c.873.474,1.789.869,2.687,1.289.962.449,1.924.9,2.89,1.335q3.963,1.783,7.917,3.587c1.07.491,2.158.949,3.237,1.423.794.349,1.588.7,2.39,1.021,1.336.533,2.658,1.1,4.007,1.6,1.146.424,2.293.852,3.443,1.268q3.105,1.137,6.173,2.361,2.754,1.224,5.381,2.7,2.324,1.311,4.657,2.6c1.638.9,3.3,1.763,4.989,2.557,1.621.756,3.259,1.462,4.9,2.176,3.738,1.616,7.517,3.162,11.213,4.88,2.067.961,4.12,1.94,6.161,2.96,1.042.525,2.083,1.05,3.137,1.546.819.386,1.63.785,2.466,1.121,1.142.458,2.28.9,3.431,1.336,1.087.411,2.2.743,3.309,1.092.995.31,2.02.571,3.032.819.958.23,1.915.466,2.868.692s1.928.425,2.894.605c.9.168,1.8.34,2.7.5q3.27.554,6.548,1.062c.592.08,1.18.156,1.772.219.483.038.962.08,1.445.121a13.9,13.9,0,0,0,2.217-.008l.735-.05c.881-.062,1.758-.164,2.635-.267q.012-1.134.056-2.263c-.158.013-.315.033-.473.043-.74.051-1.479.11-2.218.135l-1.134.038a25.959,25.959,0,0,1-3.248-.221c-2.561-.365-5.1-.844-7.642-1.321-.894-.168-1.8-.344-2.687-.546-.962-.214-1.928-.4-2.881-.642-2.2-.559-4.393-1.1-6.552-1.785-.58-.185-1.176-.34-1.743-.559-.55-.209-1.1-.424-1.646-.634-.931-.357-1.852-.728-2.775-1.1-1.148-.541-2.3-1.072-3.432-1.638-1.016-.5-2.033-1.012-3.058-1.508-2.293-1.112-4.619-2.158-6.958-3.174-3.888-1.69-7.817-3.269-11.73-4.9q-3.608-1.569-7.076-3.429c-2.558-1.369-5.049-2.86-7.652-4.137-.761-.374-1.516-.731-2.293-1.067-.521-.226-1.05-.432-1.58-.642-1.272-.5-2.54-1-3.825-1.462-.882-.319-1.76-.638-2.642-.962-.84-.31-1.7-.6-2.528-.932q-2.181-.864-4.365-1.737-8.68-3.8-17.268-7.788c-.42-.2-.827-.432-1.235-.655q-1.479-.805-2.96-1.608c-.907-.492-1.81-.987-2.7-1.516-1.458-.87-2.932-1.71-4.376-2.608-1.231-.765-2.47-1.533-3.7-2.3-2.419-1.5-4.833-3.023-7.261-4.514q-2.01-1.235-4.027-2.449c-.9-.541-1.781-1.1-2.7-1.6-2.613-1.4-5.238-2.8-7.85-4.224-.579-.311-1.142-.647-1.713-.975-.659-.382-1.289-.819-1.928-1.239-.981-.641-1.907-1.372-2.85-2.069-.937-.768-1.874-1.531-2.811-2.3-.873-.714-1.688-1.5-2.528-2.251-1.714-1.537-3.4-3.108-5.082-4.675-2.809-2.62-5.577-5.291-8.45-7.845-1.683-1.495-3.4-2.948-5.089-4.422-.807-.7-1.609-1.4-2.386-2.133-.743-.7-1.453-1.428-2.167-2.163-.668-.689-1.3-1.411-1.944-2.125s-1.256-1.4-1.861-2.121q-1.813-2.144-3.547-4.348c-1.2-1.591-2.4-3.183-3.576-4.791-.583-.8-1.159-1.616-1.747-2.414-.533-.723-1.045-1.462-1.6-2.163-2.335-2.927-4.712-5.825-7.076-8.727.062.084.126.168.189.252-.366-.479-.731-.953-1.1-1.432l-.6-.777c-.508-.735-1.05-1.457-1.533-2.209-.957-1.508-1.965-3-2.83-4.565a100.812,100.812,0,0,1-4.536-9.116c-.9-2.177-1.749-4.364-2.679-6.528-1.007-2.338-2.053-4.656-3.056-7-.464-1.162-.919-2.328-1.346-3.5-.5-1.369-.915-2.764-1.34-4.154-.785-2.549-1.532-5.107-2.213-7.689-.348-1.315-.7-2.625-1.062-3.935-.307-1.109-.6-2.231-1-3.314-.94-2.608-2.041-5.161-3.1-7.723-.559-1.344-1.109-2.688-1.6-4.057a38.925,38.925,0,0,1-1.18-4.145c-.575-2.44-.962-4.931-1.319-7.413-.185-1.259-.357-2.524-.588-3.779s-.474-2.524-.735-3.78c-.31-1.5-.634-3-.9-4.515-.2-1.126-.353-2.258-.508-3.392-.126-1.208-.256-2.417-.344-3.625-.092-1.269-.172-2.533-.244-3.8-.134-2.36-.285-4.716-.44-7.072-.152-2.373-.3-4.746-.555-7.11-.248-2.323-.483-4.645-.835-6.951-.8-5.157-1.718-10.289-2.646-15.417-.433-2.4-.9-4.8-1.382-7.194-.425-2.119-.721-4.261-1.035-6.4-.107-.809-.21-1.612-.313-2.422-.1-.727-.151-1.458-.219-2.184-.13-1.373-.205-2.751-.294-4.128-.163-2.529-.306-5.061-.529-7.585q-.207-2.394-.436-4.779c-.106-1.08-.181-2.159-.3-3.234-.273-2.528-.533-5.052-.751-7.585-.421-4.892-.832-9.793-1.025-14.7-.193-4.817-.219-9.638-.5-14.451-.273-4.657-.458-9.315-.6-13.977-.038-1.255-.064-2.507-.059-3.767.008-1.045.054-2.091.105-3.141.046-.92.092-1.839.126-2.759.021-.58.071-1.172.063-1.751-.013-.651-.021-1.3-.034-1.949-.038-2.289-.168-4.578-.222-6.867q-.1-3.735-.147-7.471-.1-6.607-.114-13.216-.006-6.438.03-12.881c.012-2.263,0-4.523.13-6.782.118-2.009.3-4.007.546-6,.207-1.343.432-2.686.747-4.012a18.394,18.394,0,0,1,.6-2.113c.208-.558.424-1.117.646-1.669.636-1.464,1.352-2.879,2.1-4.286.827-1.533,1.739-3,2.688-4.455,1.02-1.567,1.982-3.167,3.019-4.721.792-1.183,1.592-2.359,2.417-3.518.659-.841,1.318-1.679,2.043-2.462.681-.735,1.361-1.466,2.058-2.184,1.185-1.235,2.47-2.369,3.725-3.528,1.113-1.033,2.184-2.1,3.2-3.238,1.264-1.415,2.457-2.893,3.658-4.363,1.079-1.332,2.18-2.65,3.276-3.969.638-.773,1.344-1.491,2.016-2.23.63-.689,1.3-1.331,1.952-1.991,1.164-1.176,2.348-2.343,3.612-3.406.764-.642,1.512-1.31,2.3-1.927l2.423-1.889c1.765-1.3,3.526-2.593,5.367-3.781q2.658-1.719,5.338-3.41c3.334-2.1,6.673-4.221,10.121-6.136,3.881-2.154,7.841-4.124,11.785-6.161,1.78-.919,3.561-1.856,5.388-2.687,1.944-.886,3.9-1.744,5.858-2.59,1.369-.55,2.735-1.106,4.12-1.627.663-.248,1.327-.521,2.007-.735l2.113-.663c.621-.2,1.268-.319,1.9-.471.756-.18,1.516-.357,2.277-.537,1.272-.3,2.574-.521,3.863-.781,2.453-.488,4.914-.979,7.4-1.323q4.014-.566,8.042-1.122c1.92-.237,3.841-.507,5.766-.693,2.272-.214,4.54-.428,6.812-.625,1.088-.093,2.176-.206,3.263-.273l3.767-.24c2.151-.134,4.3-.2,6.46-.29a107.38,107.38,0,0,1,11.683.026c1.155.084,2.31.159,3.469.248.886.067,1.777.117,2.667.214q2.951.318,5.893.71c1.739.247,3.475.539,5.211.827,1.839.3,3.683.609,5.535.81,1.986.219,3.977.412,5.976.513,2.2.112,4.383.175,6.57.4a19.061,19.061,0,0,1,3.022.592c1.1.336,2.15.721,3.216,1.138a13.124,13.124,0,0,1,1.857,1.055,9.014,9.014,0,0,1,1.129.959,12.685,12.685,0,0,1,1.106,1.977c.957,2.362,1.722,4.8,2.528,7.213.411,1.223.823,2.436,1.243,3.654.491,1.424.991,2.843,1.483,4.263.2.6.44,1.2.6,1.806.136.511.252,1.013.351,1.528a7.4,7.4,0,0,1,.04,1.063c-.013.141-.029.281-.044.42a4.8,4.8,0,0,1-.21.741c-.077.137-.151.275-.226.412l-.419.454a6.829,6.829,0,0,1-1.235.792,11.474,11.474,0,0,1-1.923.4q-2.874.34-5.749.519a37.936,37.936,0,0,1-4.885.083c-1.554-.1-3.091-.264-4.636-.428-2.191-.227-4.367-.515-6.55-.791l-3.647-.591c-.945-.155-1.9-.281-2.835-.462-2.024-.382-4.057-.772-6.081-1.146-2.322-.433-4.641-.9-6.971-1.3q-2.961-.51-5.934-.966c-1.966-.3-3.936-.579-5.9-.856-1.7-.24-3.406-.387-5.107-.58-4.216-.475-8.424-1.008-12.637-1.541.143.021.286.038.429.059l-2.784-.375c-.53-.069-1.064-.131-1.588-.23q-1.134-.221-2.259-.437c-.849-.156-1.689-.315-2.533-.475-.592-.109-1.193-.18-1.793-.264-2.722-.387-5.456-.748-8.194-.97-1.507-.126-3.019-.282-4.531-.34-1.558-.059-3.125-.169-4.679-.143-3.023.042-6.043.084-9.063.26l-2.759.164a21.228,21.228,0,0,0-3.851.466,26.549,26.549,0,0,0-2.73.777q-.894.3-1.768.617-1.461.535-2.923,1.063c-1.016.369-2.032.773-3.019,1.214a39.307,39.307,0,0,0-4.826,2.44c-1.205.751-2.4,1.52-3.532,2.377-.6.457-1.213.915-1.818,1.373-.4.3-.794.6-1.185.907-.369.3-.743.592-1.112.89l-.309.247a15.094,15.094,0,0,0-1.292-1.914,12.561,12.561,0,0,0-1.515-1.726l-.883-.752a4.907,4.907,0,0,0-1.213-.73c-.093-.038-.185-.076-.277-.118q-.675-.094-1.357-.126c-.369.034-.735.071-1.1.109a4.615,4.615,0,0,0-1.655.538,15.574,15.574,0,0,0-2.684,1.583,7.689,7.689,0,0,0-2.028,1.969c-.063.081-.126.164-.189.244-.689.995-1.335,2.008-1.928,3.062q-.8,1.418-1.587,2.839c-.361.647-.685,1.306-1,1.978a4.654,4.654,0,0,0-.529,1.718,2.8,2.8,0,0,0,.021.953c.03.176.059.348.088.525.088.264.189.525.3.781a4.4,4.4,0,0,0,.886,1.172c.26.21.52.42.785.621.223.13.449.256.672.387a3.029,3.029,0,0,0,1.319.373,7.919,7.919,0,0,0,1.814-.079,10.487,10.487,0,0,0,1.743-.412c.319-.122.638-.244.962-.365a8.828,8.828,0,0,0,1.184-.58c.239-.176.479-.349.718-.525.475-.349.9-.76,1.344-1.155.386-.348.769-.7,1.151-1.054,1.759-1.629,3.5-3.28,5.237-4.93q.22-.21.443-.415c.245.544.48,1.093.709,1.646.477,1.233.949,2.47,1.372,3.724.243.735.491,1.466.735,2.2s.495,1.457.7,2.192a30.941,30.941,0,0,1,.747,3.015c.092.512.183,1.019.275,1.53.146,1.123.324,2.249.406,3.375.1,1.3.218,2.6.281,3.9.134,2.7.256,5.392.319,8.089s.118,5.409.168,8.118a53.266,53.266,0,0,1-.19,6.138,19.739,19.739,0,0,1-.6,2.656c-.223.709-.487,1.4-.731,2.1-.34.974-.664,1.944-.916,2.944-.134.554-.277,1.121-.357,1.684-.05.394-.134.794-.159,1.192-.021.3-.042.61-.059.912a8.5,8.5,0,0,0,.071,1.625,5.4,5.4,0,0,0,.467,1.566,3.936,3.936,0,0,0,.966,1.109,8.625,8.625,0,0,0,2.507,1.487,3.832,3.832,0,0,0,1.718.336l.184.025a6.794,6.794,0,0,0,1.751-.033c.555-.105,1.109-.215,1.663-.324q.681-.283,1.361-.592c.374-.21.748-.424,1.122-.638,1.121-.727,2.2-1.491,3.271-2.3,1.995-1.516,3.99-3.027,5.976-4.561q.794-.615,1.581-1.236c-.26.536-.514,1.074-.72,1.635-.264.714-.529,1.429-.726,2.168a20.994,20.994,0,0,0-.521,2.154,15.425,15.425,0,0,0-.256,2.323,10.27,10.27,0,0,0,.327,3.036,8.617,8.617,0,0,0,1.537,3.179,13.953,13.953,0,0,0,1.525,1.541,20.23,20.23,0,0,0,8.244,3.683c1.2.307,2.415.546,3.628.794,1,.2,2,.412,3,.571,1.088.173,2.175.37,3.267.513q1.1.163,2.2.256c.521.017,1.042.038,1.563.054s1.062.021,1.591.03c2.386.042,4.771-.076,7.152-.206,1-.059,2.008-.147,3.012-.256.97-.105,1.944-.193,2.914-.319,1.3-.172,2.591-.336,3.885-.538q1.9-.3,3.784-.63c1.045-.18,2.075-.411,3.1-.668s2.054-.5,3.075-.776c2.292-.618,4.585-1.252,6.879-1.878a48.781,48.781,0,0,1,5.031-1.11c.97-.11,1.936-.194,2.91-.242,1.05-.05,2.1-.025,3.15,0,2.121.057,4.25.3,6.36.542a17.057,17.057,0,0,1,2.438.466,14.211,14.211,0,0,1,1.369.462c.36.132.716.281,1.071.43a33.787,33.787,0,0,0,3.452,1.414,10.016,10.016,0,0,0,6.136.067,23.178,23.178,0,0,0,2.243-.848c.063-.026.13-.055.2-.08.1-.068.966-.5,1.125-.836.122-.235.236-.474.336-.718.038-.206.08-.412.122-.622a1.917,1.917,0,0,0-.029-.861c-.009-.071-.021-.147-.03-.218a7.044,7.044,0,0,0-1.352-2.6c-.412-.462-.835-.915-1.26-1.369-1.973-2.1-3.914-4.216-5.749-6.434q-1.664-2.009-3.381-3.977c-1.075-1.23-2.192-2.423-3.318-3.607-2.267-2.4-4.556-4.788-6.929-7.085a59.213,59.213,0,0,0-4.805-4.2c-.835-.655-1.675-1.31-2.528-1.945l-1.394-1.041c-.344-.256-.689-.5-1.046-.743q-.4-.259-.806-.517a11.042,11.042,0,0,0-1.571-.781c-.588-.261-1.188-.5-1.793-.718-.529-.194-1.054-.4-1.592-.567-.6-.181-1.2-.4-1.8-.55s-1.2-.315-1.8-.475c-2.007-.525-4.027-.932-6.077-1.26a31.966,31.966,0,0,0-3.28-.378,25.619,25.619,0,0,0-3.717-.055c-1.348.127-2.683.286-4.023.467-.731.1-1.461.2-2.192.294s-1.466.2-2.2.3q-.97.126-1.932.327c-.572.11-1.147.223-1.718.336a37.948,37.948,0,0,0-4.788,1.378c-1.079.411-2.208.823-3.254,1.319a26.237,26.237,0,0,0-4.1,2.251,35.48,35.48,0,0,0-2.831,2.162c-2.259,1.991-4.41,4.1-6.594,6.178q-.989.939-1.986,1.869c-.122.113-.244.227-.367.34l-.328-.135a4.756,4.756,0,0,1-.742-.412l-.311-.448c-.078-.377-.158-.757-.235-1.135q.023-.768.046-1.536a9.871,9.871,0,0,1,.491-2.228,15.221,15.221,0,0,1,1.278-2.031,12.059,12.059,0,0,1,1.176-1.3l.769-.675a24.553,24.553,0,0,1,3.078-1.988q1.294-.723,2.653-1.325t2.764-1.044c.933-.293,1.874-.558,2.818-.8,1.844-.466,3.692-.882,5.557-1.243,1.794-.35,3.588-.672,5.383-1,.956-.122,1.913-.241,2.873-.364.576-.075,1.155-.109,1.735-.155q2.715-.221,5.434-.42c.823-.059,1.651-.109,2.478-.155,1.025-.059,2.062-.143,3.091-.16a39.756,39.756,0,0,1,5.376.231q1.11.137,2.221.268c1.465.2,2.94.371,4.384.694.357.084.719.163,1.076.243l.911.277c.449.137.883.31,1.323.478a22.224,22.224,0,0,1,2.515,1.253c.765.47,1.508.961,2.243,1.474,1.381.952,2.7,1.979,4.03,3l0,0c2.079,1.647,4.083,3.41,6.195,5.019a60.77,60.77,0,0,0,6.09,4.179,41.818,41.818,0,0,0,5.787,2.755c.949.373,1.9.735,2.864,1.079,1.312.47,2.609.981,3.905,1.5.524.258,1.048.512,1.571.77.538.264,1.113.5,1.634.8.92.521,1.861,1.012,2.759,1.566.966.6,1.936,1.189,2.881,1.823.653.438,1.287.9,1.92,1.366a15.494,15.494,0,0,1,1.68,1.483,13.938,13.938,0,0,1,1.28,2.023q.578,1.1,1.1,2.213a44.172,44.172,0,0,1,1.528,4.909c.345,1.374.668,2.743.97,4.129.294,1.364.546,2.738.811,4.111.212,1.124.34,2.278.5,3.416.242,2.621.5,5.239.579,7.869q.126,4.05.223,8.1.044,1.971.084,3.952c.025,1.1.013,2.192,0,3.288,0,1.037-.075,2.079-.118,3.116-.042,1.126-.088,2.247-.13,3.373-.18,5.228-.445,10.448-.646,15.673-.08,2.167-.223,4.334-.366,6.5-.165,2.452-.431,4.887-.7,7.331q-.261,1.781-.528,3.567c-.16,1.079-.37,2.15-.555,3.225-.382,2.188-.806,4.364-1.218,6.543-.449,2.39-.894,4.784-1.365,7.173a35.4,35.4,0,0,1-1.335,5.086c-.064.149-.128.3-.193.445a13.839,13.839,0,0,1-1.117,2c-.374.621-.744,1.243-1.122,1.864-.592.966-1.192,1.932-1.768,2.911a39.6,39.6,0,0,0-3.2,6.74,46.927,46.927,0,0,0-1.919,6.6,31.745,31.745,0,0,0-.512,3.448c-.055.6-.131,1.205-.135,1.806,0,.583.013,1.138.059,1.726a4.946,4.946,0,0,0,.445,1.583c.252.6.512,1.193.794,1.777.3.587.592,1.171.92,1.742a18.684,18.684,0,0,0,1.352,2.037,4.792,4.792,0,0,0,1.608,1.017,11.845,11.845,0,0,0,1.663.575,19.014,19.014,0,0,0,2.852.626,22.125,22.125,0,0,0,4.767.256q1.089-.02,2.171-.147a17.484,17.484,0,0,0,1.726-.315,4.557,4.557,0,0,0,1.432-.576,6.789,6.789,0,0,0,1.21-1.117c.239-.252.474-.5.71-.756.508-.541,1.02-1.087,1.532-1.625.756-.8,1.537-1.566,2.319-2.335a63.043,63.043,0,0,1,5.567-4.887,14.96,14.96,0,0,1,1.505-1.03,16.5,16.5,0,0,1,2.2-1.069,27.027,27.027,0,0,1,2.956-1.01c.5-.13,1.012-.3,1.528-.4.475-.084.95-.172,1.424-.256l-.026,0a20.727,20.727,0,0,1,2.273-.205c.483,0,.953-.012,1.432.017a9.034,9.034,0,0,1,1.01.109,5.569,5.569,0,0,1,1.183.336c.107.05.21.1.312.162-.135.045-.269.091-.4.141-.747.277-1.486.579-2.226.882-1.36.567-2.721,1.163-4.031,1.843-1.038.546-2.079,1.088-3.121,1.634-1.214.634-2.436,1.256-3.595,1.986-1.294.813-2.536,1.669-3.746,2.6l.025-.02-.052.041-.078.06.029-.021c-.512.4-.905.766-1.452,1.255-.282.366-.563.731-.841,1.1-.121.285-.235.575-.331.869-.009.059-.017.113-.026.168a3.357,3.357,0,0,0,0,1,4.208,4.208,0,0,0,.336,1.163,3.554,3.554,0,0,0,.345.647,7.968,7.968,0,0,0,.907,1.046c.206.163.416.319.63.47a6.258,6.258,0,0,0,1.31.538,8.459,8.459,0,0,0,3.633.184,6.58,6.58,0,0,0,1.457-.441,6.138,6.138,0,0,0,1.189-.651,6.711,6.711,0,0,0,1.5-1.39c.659-.789,1.294-1.6,2.02-2.318.752-.748,1.55-1.453,2.36-2.129.966-.8,1.953-1.575,2.919-2.373.328-.273.659-.546.983-.827.311-.265.613-.538.9-.828a10.634,10.634,0,0,0,.953-1.121,5.766,5.766,0,0,0,.63-1.042,5.017,5.017,0,0,0,.487-1.352,8.161,8.161,0,0,0,.147-.848,2.56,2.56,0,0,0,0-.9c-.027-.148-.055-.295-.083-.445l.187-.033a15.567,15.567,0,0,1,1.942-.135,14.64,14.64,0,0,1,1.814.132,11.839,11.839,0,0,1,1.357.3c.4.128.8.27,1.189.422.786.371,1.568.746,2.342,1.145a9.834,9.834,0,0,0,2.129.9c.937.222,1.827.419,2.764.6.983.185,1.965.319,2.957.428.659.072,1.327.109,1.995.126.512.021,1.028.017,1.545-.012l1.209-.139a14.91,14.91,0,0,0,1.483-.269c.559-.122,1.117-.239,1.667-.382a22.858,22.858,0,0,0,3.121-1.117c1.878-.785,3.7-1.711,5.54-2.58a19.464,19.464,0,0,1,2.015-.708,13.654,13.654,0,0,1,1.756-.357,8.365,8.365,0,0,1,1.343-.021c.145.017.292.037.44.058l.575.171c.12.051.239.1.356.152.166.144.33.288.5.431a8.81,8.81,0,0,1,.965,1.417c.092.285.182.569.276.856a9.5,9.5,0,0,1,.126,1.816c-.025.239-.054.478-.08.714a5.433,5.433,0,0,1-.4,1.219,6.579,6.579,0,0,1-.645,1.045,21.606,21.606,0,0,0-1.495,1.776,15.839,15.839,0,0,0-1.445,2.314c-.353.663-.693,1.327-1.012,2.007-.156.328-.311.685-.433,1.025a6.891,6.891,0,0,0-.5,1.806,7.028,7.028,0,0,0,.152,2.36,13.023,13.023,0,0,0,.426,1.512q-.6,0-1.212-.042l-.567-.038c-.512-.038-1.024-.088-1.537-.134-.491-.042-.983-.084-1.474-.118a2.156,2.156,0,0,0-.538.13.39.39,0,0,0-.281.282,1.085,1.085,0,0,0,.038.755.411.411,0,0,0,.189.248,12.042,12.042,0,0,0,2.184.975q1.241.4,2.482.785l1.3.239c.666.123,1.346.2,2.028.257a5.25,5.25,0,0,0,1.227.7,5.68,5.68,0,0,0,1.756.445,7.742,7.742,0,0,0,2.708-.307c.408-.109.814-.212,1.215-.334l.234.011a9.11,9.11,0,0,0,2.293-.046,12.646,12.646,0,0,0,3.263-.874l.177-.075a8.8,8.8,0,0,0,2.427-1.319l.018-.014q.21,2.5.427,5c.173,2.008.349,4.015.567,6.018a42.48,42.48,0,0,0,1.168,6.14c.525,1.961,1.184,3.889,1.755,5.838.609,2.079,1.109,4.191,1.722,6.27.315,1.071.618,2.154,1,3.208.344.962.718,1.911,1.13,2.844a37.4,37.4,0,0,0,1.831,3.569c.525.912,1.1,1.8,1.671,2.684.542.836,1.092,1.667,1.659,2.494.525.761,1.088,1.5,1.646,2.235,1.47,1.944,2.944,3.889,4.284,5.926,1.125,1.705,2.276,3.414,3.314,5.174,1.175,2,2.381,3.981,3.494,6.018.97,1.777,1.947,3.547,2.775,5.394a47.93,47.93,0,0,1,1.9,5.2,49.739,49.739,0,0,1,1.276,5.768q.05.451.1.9a11.518,11.518,0,0,1-.031,2.212,6.363,6.363,0,0,1-.38,1.69c-.14.255-.277.51-.413.766-.247.22-.491.44-.737.66l-1.066.55a5.091,5.091,0,0,1-1.857.472l-1.168-.036a12.482,12.482,0,0,1-2.794-.619c-.638-.226-1.267-.479-1.888-.751-1.6-.739-3.2-1.485-4.785-2.268-1.293-.647-2.549-1.357-3.8-2.067a44.058,44.058,0,0,1-3.851-2.377c-1.153-.819-2.3-1.637-3.446-2.464-.481-.379-.976-.743-1.438-1.147-.437-.383-.874-.769-1.315-1.151-.966-.853-1.9-1.739-2.843-2.621-.495-.457-.953-.953-1.428-1.432-.42-.428-.848-.844-1.255-1.276-.769-.824-1.546-1.639-2.31-2.466l-2.6-2.8c-.845-.9-1.676-1.831-2.562-2.7-1.634-1.588-3.3-3.129-5.04-4.6-.8-.68-1.621-1.335-2.448-1.99a26.84,26.84,0,0,0-2.785-1.974,16.987,16.987,0,0,0-2.679-1.386,14.271,14.271,0,0,0-2.608-.8,10.955,10.955,0,0,0-3.167-.176c-.4.046-.794.071-1.184.142a17,17,0,0,0-2.549.584c-1.545.522-3,1.232-4.486,1.9a10.18,10.18,0,0,1-1.3.481c-.442.117-.866.216-1.315.3a5.93,5.93,0,0,1-1.533-.081l.219.025a10.932,10.932,0,0,1-1.579-.353c-.473-.16-.939-.328-1.4-.511-.736-.337-1.455-.7-2.166-1.081-.622-.336-1.227-.7-1.856-1.016-1.256-.647-2.546-1.218-3.852-1.751-.735-.3-1.469-.622-2.23-.861a17.58,17.58,0,0,0-2.507-.672,20.119,20.119,0,0,0-2.406-.277,12.322,12.322,0,0,0-2.272.1,26.59,26.59,0,0,0-4.9,1.255c-.928.315-1.856.66-2.751,1.063-1.012.458-2.041.9-3.019,1.428a13.279,13.279,0,0,0-1.647.94c-.512.382-1.016.748-1.5,1.155-.744.618-1.47,1.252-2.155,1.936a27.8,27.8,0,0,0-2.183,2.478c-.593.748-1.168,1.512-1.752,2.272.059-.076.114-.151.172-.227-.591.761-1.175,1.521-1.764,2.285.059-.076.114-.151.173-.227a38.557,38.557,0,0,1-3.834,4.267c-.794.718-1.626,1.39-2.432,2.1-.749.654-1.509,1.285-2.288,1.9a38.846,38.846,0,0,1-4.675,2.979c-1.676.886-3.343,1.806-5.048,2.633-1.059.508-2.13,1-3.163,1.55-.714.378-1.44.751-2.112,1.2-1.361.908-2.692,1.84-4,2.823a98.014,98.014,0,0,0-8.185,6.984c-1.327,1.247-2.663,2.49-3.923,3.8-.55.567-1.092,1.138-1.617,1.726-.478.533-.919,1.1-1.36,1.659-.206.256-.412.525-.6.8a9.826,9.826,0,0,0-.8,1.276,8.5,8.5,0,0,0-.537,1.378,5.472,5.472,0,0,0-.063.747,4.049,4.049,0,0,0,.138.693c.026.059.051.114.076.172a2.118,2.118,0,0,0,.348.584l.336.349a2.865,2.865,0,0,0,1.1.428,6.627,6.627,0,0,0,1.26.067,7.411,7.411,0,0,0,1.146-.075c.4-.118.786-.231,1.181-.349a13.817,13.817,0,0,0,2.108-.928c.937-.466,1.873-.932,2.788-1.436,1.676-.924,3.335-1.878,5-2.818,3.221-1.827,6.56-3.419,9.912-4.994,2.057-.966,4.107-1.944,6.169-2.9,1.587-.733,3.181-1.43,4.787-2.115a73.117,73.117,0,0,1,8.551-2.967c1.512-.378,3.032-.714,4.569-.958,1.4-.218,2.793-.436,4.191-.638-.059.009-.119.017-.179.024,1.465-.2,2.922-.411,4.383-.641,1.677-.264,3.349-.5,5.029-.734,2.386-.234,4.768-.443,7.163-.589q3.427-.2,6.858-.29c1.176-.029,2.352-.034,3.528.034,1.062.058,2.129.113,3.192.176,2.233.125,4.455.4,6.673.684,5.862,1.043,11.675,2.366,17.517,3.495,2.847.546,5.707,1.062,8.58,1.419,1.5.189,3,.387,4.506.555,1.21.135,2.424.262,3.635.413.766.112,1.528.234,2.291.4a17.192,17.192,0,0,1,2.018.583l.366.157a4.625,4.625,0,0,1,.971.99,6.992,6.992,0,0,1,.729,1.318,8.079,8.079,0,0,1,.4,1.457,6.221,6.221,0,0,1,.04,1.287,10.123,10.123,0,0,1-.536,2.368c-.206.524-.42,1.041-.635,1.56-.271.544-.548,1.08-.836,1.611-.494.15-.99.3-1.49.432-.9.244-1.8.5-2.712.719-.929.222-1.861.4-2.8.592-1.613.323-3.217.668-4.818,1.079-.777.2-1.553.407-2.309.672a10.79,10.79,0,0,0-1.68.7,8.7,8.7,0,0,0-2.02,1.558,12.594,12.594,0,0,0-.991,1.138,9.525,9.525,0,0,0-1.71,5.552,3.346,3.346,0,0,0,.286,1.634,2.1,2.1,0,0,0,.432.613,4.46,4.46,0,0,0,.769.525c.035.019.071.038.108.056-2.975,1.661-5.931,3.36-8.978,4.885-.778.312-1.555.619-2.356.859-.777.231-1.545.462-2.318.693-.966.29-1.974.47-2.957.7-1.755.4-3.55.645-5.331.9-1.139.121-2.278.244-3.421.344a28.431,28.431,0,0,1-3.443.055c-2.3-.08-4.612-.244-6.913-.45q-3.067-.284-6.14-.546c-2.1-.173-4.2-.394-6.3-.648-1.962-.289-3.929-.559-5.879-.927-1.852-.344-3.692-.735-5.531-1.142-1.949-.432-3.88-.9-5.816-1.386-1.6-.4-3.213-.785-4.809-1.2-3.536-.924-7.077-1.882-10.6-2.877-1.835-.521-3.666-1.037-5.493-1.571-.773-.222-1.541-.445-2.31-.676-.815-.239-1.625-.5-2.448-.714-.538-.138-1.071-.277-1.613-.394a14.334,14.334,0,0,0-1.671-.32,5.916,5.916,0,0,0-1.8-.021,2.242,2.242,0,0,0-.794.194,3.292,3.292,0,0,0-1.436,1.247,4.944,4.944,0,0,0-.6.953,6.986,6.986,0,0,0-.853,2.885,12.646,12.646,0,0,0,.16,2.487c.159.785.3,1.6.533,2.377a13.436,13.436,0,0,0,.936,2.473c.227.475.467.945.714,1.407.383.714.761,1.424,1.143,2.138.235.437.466.873.7,1.314a18.055,18.055,0,0,0,1.508,2.4l1,1.331c.349.453.706.9,1.075,1.335,1.668,1.936,3.4,3.83,5.254,5.59.63.6,1.243,1.222,1.907,1.785.73.626,1.44,1.272,2.2,1.865,1.676,1.31,3.356,2.612,5.061,3.888,1.659,1.244,3.33,2.478,5,3.713,1.323.978,2.633,2.024,4.04,2.877a28.518,28.518,0,0,0,2.973,1.675c.512.248,1.025.5,1.541.74,1.122.5,2.268,1.028,3.411,1.474,1.1.428,2.2.881,3.326,1.243.68.218,1.36.437,2.045.655.479.155.97.336,1.457.47.517.139,1.038.282,1.554.42,1.243.34,2.486.655,3.733.962.845.21,1.685.433,2.537.592.592.114,1.189.256,1.789.34.529.076,1.059.147,1.588.219.991.138,1.978.252,2.973.353a55.8,55.8,0,0,0,7.337.172c.651-.021,1.318-.009,1.969-.063.572-.051,1.139-.1,1.71-.147.55-.047,1.1-.13,1.642-.2.445-.059.894-.113,1.335-.2,2.482-.484,4.943-1.054,7.4-1.664,2-.5,4-.991,5.989-1.558,1.134-.327,2.259-.676,3.385-1.033.949-.3,1.923-.558,2.855-.9.555-.206,1.1-.408,1.655-.609.5-.185,1.008-.433,1.5-.643.941-.407,1.869-.836,2.793-1.277,1.012-.483,2.033-.949,3.015-1.486q1.28-.707,2.512-1.5c1.865-1.192,3.608-2.549,5.363-3.893,2.4-1.835,4.865-3.6,7.118-5.622l6.416-8.3a1.945,1.945,0,0,0-.918-1.789,1.879,1.879,0,0,0-1.441-.189,2,2,0,0,0-1.117.861c-.269.374-.53.754-.789,1.134-.393-.426-.77-.866-1.14-1.311a23.079,23.079,0,0,1-1.632-2.658c-.475-.873-.949-1.747-1.378-2.646-.411-.869-.8-1.751-1.217-2.62-.356-.747-.7-1.5-1.023-2.263a19.839,19.839,0,0,1-.716-2.046,17.418,17.418,0,0,1-.443-2.1l-.049-.614c-.008-.173-.01-.345-.005-.517,1.561-.013,3.12-.063,4.676-.176a65.6,65.6,0,0,0,6.719-.794c2.02-.361,4.036-.731,6.056-1.075,3.705-.64,7.495-1.09,11.012-2.491.235-.753.466-1.507.722-2.25-.254.13-.5.269-.759.393a25.546,25.546,0,0,1-4.688,1.433c-1.945.391-3.9.71-5.859,1.029-1.827.294-3.641.651-5.459,1-1.017.193-2.029.394-3.049.558q-1.3.207-2.608.384c-1.365.158-2.734.314-4.1.406-.81.054-1.621.113-2.434.153.028-.091.058-.181.09-.271.059-.142.116-.282.171-.421a5.31,5.31,0,0,1,.489-.86,3.9,3.9,0,0,1,.649-.685,8.951,8.951,0,0,1,1.669-.97c.3-.134.6-.268.907-.4-.055.021-.109.046-.164.067.722-.3,1.436-.6,2.155-.911-.059.025-.118.05-.177.071,1.416-.588,2.8-1.239,4.183-1.878.831-.382,1.651-.78,2.486-1.146.792-.353,1.591-.689,2.391-1.029l-.156.067q3.653-1.536,7.307-3.091c-.052.025-.1.047-.158.069,1.914-.79,3.827-1.608,5.806-2.232a34.823,34.823,0,0,1,4.531-1.068c.246-.026.488-.045.73-.056q.4-.8.821-1.594a7.077,7.077,0,0,0-.971-.02,12.954,12.954,0,0,0-1.44.156,30.67,30.67,0,0,0-3.809.823c-1.533.458-3.049,1-4.527,1.608-1.715.7-3.433,1.4-5.136,2.128-2.392,1-4.807,1.991-7.119,3.155-1.945.979-3.88,1.974-5.838,2.932-.529.26-1.07.508-1.6.773-.386.193-.789.369-1.163.588a5.777,5.777,0,0,0-2.558,2.511,7.083,7.083,0,0,0-.588,1.688l-.005.033q-.417.011-.835.009c-1.792,0-3.582-.021-5.368-.116,1.1-.554,2.216-1.09,3.331-1.622.66-.315,1.307-.647,1.949-.991a16.056,16.056,0,0,0,1.445-.832,29.069,29.069,0,0,0,2.394-1.772c.348-.294.692-.584,1.033-.895a16.7,16.7,0,0,0,1.9-1.877,24.834,24.834,0,0,0,1.705-2.335c.244-.391.5-.773.727-1.168.333-.565.676-1.129,1-1.7.845-.248,1.692-.49,2.546-.7,1.676-.4,3.365-.76,5.057-1.083,1.634-.307,3.272-.6,4.888-1,1.491-.369,2.986-.751,4.473-1.142q4.711-1.24,9.412-2.549.625-.174,1.252-.346,1.131-1.834,2.405-3.644C1281.255,627.855,1280.6,628.054,1279.946,628.238ZM1019.57,332.543c-2.041,1.966-4.062,3.952-6.174,5.835a5.968,5.968,0,0,1-1.255.775,11.03,11.03,0,0,1-1.684.584l-.677.139a6.038,6.038,0,0,1-1.123.061l-.5-.137-.442-.254a4.086,4.086,0,0,1-.651-.573c-.079-.136-.161-.271-.239-.407a2.865,2.865,0,0,1-.11-.536c.006-.108.012-.216.017-.324.1-.307.2-.612.308-.919.7-1.46,1.514-2.857,2.312-4.269.649-1.15,1.338-2.258,2.083-3.347a7.712,7.712,0,0,1,1.682-1.658,21.834,21.834,0,0,1,2.264-1.337c.295-.11.591-.222.886-.331a5.8,5.8,0,0,1,1.458-.059c.233.13.467.258.7.386a11.44,11.44,0,0,1,1.54,1.436c.219.268.438.536.653.8a17.981,17.981,0,0,1,1.241,1.957Q1020.711,331.449,1019.57,332.543Zm43.867,39.129a26.323,26.323,0,0,1,3.753-2.512c.859-.47,1.742-.9,2.644-1.3a37.867,37.867,0,0,1,5.722-1.977q1.7-.434,3.427-.726l1.708-.287c1.474-.2,2.939-.4,4.415-.587a32.619,32.619,0,0,1,5.9-.39c1.276.066,2.53.185,3.8.346,1.78.282,3.551.6,5.3,1.044.827.21,1.676.39,2.495.63.714.21,1.445.382,2.146.626,1,.349,1.985.7,2.974,1.08a12.634,12.634,0,0,1,1.8,1c.361.227.714.471,1.058.718q.9.63,1.781,1.265,1.6,1.14,3.16,2.312c2.525,2.017,4.918,4.194,7.226,6.448,2.2,2.142,4.431,4.271,6.505,6.535.485.53.976,1.056,1.46,1.587-.461-.441-.935-.869-1.418-1.289-1.016-.89-2.062-1.751-3.15-2.549a30.455,30.455,0,0,0-4.724-2.848c-1.558-.756-3.15-1.44-4.737-2.146-1.995-.89-4.007-1.738-5.947-2.75-1.789-.933-3.54-1.92-5.313-2.886-1.1-.6-2.2-1.2-3.318-1.755-.558-.277-1.112-.55-1.671-.823-.391-.193-.823-.349-1.218-.517-.907-.382-1.827-.726-2.768-1.016a20.1,20.1,0,0,0-5.837-1.109c-2.36-.013-4.708.089-7.064.24-2.339.147-4.674.323-7,.617-1.7.214-3.406.407-5.086.76a45.153,45.153,0,0,0-4.582,1.168,24.549,24.549,0,0,0-2.692.961q-.71.33-1.41.677Q1063.105,371.946,1063.437,371.672Zm-6.892,6.564a22.123,22.123,0,0,1,2.28-1.458c.457-.252.919-.5,1.377-.752q.862-.453,1.73-.882c1.072-.535,2.139-1.078,3.232-1.571a39.284,39.284,0,0,1,5.68-1.658c1.189-.238,2.378-.445,3.579-.632,1.286-.148,2.577-.334,3.867-.427,1.449-.1,2.894-.218,4.347-.289,1.583-.076,3.166-.164,4.754-.185.68-.008,1.365-.029,2.045-.017.823.016,1.616.052,2.44.1a21.264,21.264,0,0,1,2.8.624c.676.21,1.34.42,2.012.646.411.135.819.265,1.214.429q.651.264,1.3.53,2.829,1.359,5.608,2.821c1.4.735,2.8,1.483,4.224,2.18,3.015,1.472,6.147,2.673,9.246,3.968a39.989,39.989,0,0,1,4.525,2.2c.693.4,1.39.811,2.05,1.272.553.386,1.092.787,1.63,1.191a43.785,43.785,0,0,1,3.531,3,38.556,38.556,0,0,1,3.5,3.985c.587.809,1.132,1.648,1.677,2.486.454.7.92,1.383,1.331,2.109l.057.153,0,.029-.046.068-.336.209a6.193,6.193,0,0,1-1.11.332c-.2.021-.405.04-.611.058a10.62,10.62,0,0,1-2.148-.72,25.513,25.513,0,0,1-2.33-1.217q-.415-.294-.831-.6c-1.637-1.3-3.218-2.649-4.767-4.046q-2.7-2.437-5.434-4.829c-.92-.807-1.882-1.571-2.823-2.356-.659-.55-1.327-1.092-1.994-1.63-1.227-.995-2.457-1.986-3.713-2.952-.827-.63-1.65-1.281-2.5-1.873-.47-.328-.937-.655-1.415-.962a12.318,12.318,0,0,0-1.18-.7,6.99,6.99,0,0,0-2.323-.756,3.688,3.688,0,0,0-1.163.013,1.626,1.626,0,0,0-.529.151,1.723,1.723,0,0,0-.509.441,1.8,1.8,0,0,0-.163.546c-.008.063-.017.126-.025.185a6.152,6.152,0,0,0,.2,1.234c.1.336.206.672.319,1.008a30.806,30.806,0,0,1,1.01,4.6,9.79,9.79,0,0,1,.082,2.632,19.593,19.593,0,0,1-.571,3.027c-.174.45-.344.9-.515,1.359a8.182,8.182,0,0,1-1.1,1.96,11.992,11.992,0,0,1-1.23,1.351c-.494.466-1.006.914-1.531,1.343a14.675,14.675,0,0,1-1.627,1.114c-.3.16-.6.316-.9.472a22.6,22.6,0,0,1-2.578.913c-.445.122-.886.244-1.331.37-.785.193-1.575.386-2.365.567-.869.2-1.739.366-2.622.524a15.415,15.415,0,0,1-2.291.135l-.987-.046a18.431,18.431,0,0,1-2.583-.663l-.328-.1c-.314-.1-.629-.193-.94-.29-.7-.244-1.4-.495-2.092-.763-.827-.353-1.662-.7-2.452-1.131-.408-.227-.811-.454-1.21-.706-.439-.276-.86-.58-1.28-.887a13.072,13.072,0,0,1-1.37-1.175,13.44,13.44,0,0,1-1.028-1.145c-.657-1.023-1.265-2.062-1.84-3.138-.265-.492-.525-.979-.785-1.474a11.034,11.034,0,0,0-1-1.747,12.944,12.944,0,0,0-1.768-2.058l-.735-.685c-.4-.348-.773-.718-1.184-1.05-.563-.449-1.113-.9-1.7-1.314a22.958,22.958,0,0,0-4.813-2.456Q1056,378.729,1056.545,378.236Zm-4.625,4.748q.9-1.046,1.842-2.042.935.38,1.867.766c.619.283,1.232.572,1.822.908a20.448,20.448,0,0,1,1.953,1.28c.607.508,1.2,1.02,1.785,1.554.353.315.693.635,1.029.966a13.008,13.008,0,0,1,1.756,2.075c-.064-.08-.127-.164-.19-.244.639,1.168,1.248,2.352,1.882,3.52.256.466.52.92.785,1.381a10.919,10.919,0,0,0,.991,1.508,13.561,13.561,0,0,0,1.9,1.97c.348.277.688.571,1.049.831a21.305,21.305,0,0,0,2.218,1.441,31.271,31.271,0,0,0,4.939,2.116c.5.168,1,.319,1.5.471.6.18,1.2.348,1.806.512.445.088.89.177,1.336.26a6.767,6.767,0,0,0,1.373.076c.4-.012.8-.025,1.2-.042.554-.059,1.109-.126,1.659-.2.538-.105,1.083-.181,1.617-.311.575-.143,1.15-.286,1.726-.425.995-.243,2-.487,2.977-.81a21.4,21.4,0,0,0,2.734-1c.084-.034.168-.072.252-.105a13.786,13.786,0,0,0,1.92-1.155c.269-.206.533-.412.8-.613a15.69,15.69,0,0,0,1.8-1.609,13.321,13.321,0,0,0,1.5-1.755,7.879,7.879,0,0,0,1.1-2.1,14.44,14.44,0,0,0,.63-1.751c.109-.525.218-1.05.323-1.575a16.614,16.614,0,0,0,.227-3.5c-.059-.47-.13-.945-.214-1.415-.021-.114-.046-.227-.071-.34-.068-.328-.135-.651-.2-.979-.118-.5-.214-1.012-.357-1.508-.139-.466-.239-.953-.412-1.406-.113-.294-.227-.588-.34-.878-.075-.185-.147-.37-.223-.554a4.628,4.628,0,0,1-.218-.83v-.005c.059-.015.119-.03.178-.047a3.286,3.286,0,0,1,.728.018,4.893,4.893,0,0,1,1.095.286,15.217,15.217,0,0,1,2.253,1.287c.432.307.873.609,1.3.924.8.587,1.584,1.189,2.367,1.792q1.957,1.545,3.9,3.118c.672.542,1.335,1.091,2,1.646s1.36,1.1,2.02,1.676q3.061,2.689,6.094,5.4c.672.6,1.343,1.2,2.036,1.772.5.416,1,.84,1.517,1.247a18.417,18.417,0,0,0,1.826,1.373q1.134.669,2.327,1.223l1.075.453a6.224,6.224,0,0,0,1.7.462c.256-.021.508-.042.76-.059a6.544,6.544,0,0,0,1.537-.407,2.1,2.1,0,0,0,.8-.462c.122-.16.244-.319.361-.479.026-.059.051-.113.072-.172a1.853,1.853,0,0,0,.059-.76,7.751,7.751,0,0,0-.819-1.722c-.378-.626-.752-1.256-1.138-1.877-.357-.571-.706-1.159-1.1-1.7q-.313-.423-.631-.845c.208.232.416.462.627.689.84.916,1.676,1.827,2.549,2.709.889.9,1.776,1.787,2.628,2.711a5.908,5.908,0,0,1,.627.918l.2.43c.055.168.113.338.171.509.014.135.027.27.04.4-.026.134-.05.267-.075.4-.036.076-.072.151-.109.227-.2.129-.4.261-.606.392q-1.009.422-2.053.75a10.531,10.531,0,0,1-1.559.336,8.752,8.752,0,0,1-1.519.033c-.185-.023-.37-.043-.554-.063a15.226,15.226,0,0,1-1.622-.382c-.489-.145-.965-.329-1.439-.519-.559-.251-1.114-.5-1.677-.736-.6-.253-1.2-.525-1.822-.723a14.755,14.755,0,0,0-2.252-.6l-1.213-.189c-.483-.067-.962-.126-1.441-.176-.911-.093-1.823-.211-2.734-.282a50.983,50.983,0,0,0-5.7-.244,32.27,32.27,0,0,0-4.586.42c-1.676.286-3.322.685-4.968,1.118-1.7.449-3.389.881-5.09,1.322-1.033.265-2.071.513-3.108.765-.928.222-1.865.483-2.8.642q-2.865.489-5.731.923-2.508.316-5.024.577c-1.575.159-3.15.256-4.729.336-1.684.088-3.369.1-5.057.109-.647,0-1.3-.017-1.948-.03-.618-.012-1.235-.033-1.857-.067-.666-.057-1.334-.137-2-.232-2.69-.429-5.379-.874-8.036-1.473-1.289-.29-2.578-.584-3.847-.974-.75-.233-1.479-.5-2.2-.8a19.5,19.5,0,0,1-2.737-1.527,15.677,15.677,0,0,1-1.628-1.549,5.72,5.72,0,0,1-.6-1.057,8.1,8.1,0,0,1-.445-1.279c-.049-.227-.1-.458-.144-.689a10.234,10.234,0,0,1-.078-1.818c.029-.4.064-.786.111-1.18a26.213,26.213,0,0,1,1.637-5.418c.172-.356.33-.725.528-1.067A12.252,12.252,0,0,1,1051.92,382.984Zm140.358,136.662a6.065,6.065,0,0,1-.219,1.11c-.064.163-.125.324-.185.486a5.62,5.62,0,0,1-.5.87,10.559,10.559,0,0,1-1.348,1.457c-.222.194-.445.387-.663.58-.424.353-.844.71-1.277,1.054-.857.681-1.717,1.361-2.549,2.079a27.193,27.193,0,0,0-2.091,1.923,24.252,24.252,0,0,0-1.594,1.885l-.008.011c-.032.041-.064.083-.095.125.012-.018.024-.035.037-.052-.168.212-.335.421-.512.627a9.984,9.984,0,0,1-1.115,1.1,5.67,5.67,0,0,1-.98.563,6.06,6.06,0,0,1-1.206.379l-.531.072a7.838,7.838,0,0,1-1.282,0,6.648,6.648,0,0,1-1.172-.218l-.6-.2a3.526,3.526,0,0,1-.848-.547l-.349-.359a4.4,4.4,0,0,1-.551-.869,3.844,3.844,0,0,1-.255-.821,3.047,3.047,0,0,1,.025-.809l.2-.513c.212-.277.425-.551.637-.827l1.11-.978a40.39,40.39,0,0,1,3.931-2.686c1.08-.63,2.188-1.21,3.3-1.773q1.575-.8,3.154-1.6c1.192-.6,2.416-1.132,3.644-1.659.857-.346,1.72-.742,2.6-1.007.4-.121.793-.241,1.193-.347.032.135.065.27.1.4Zm38.438,19.815a12.673,12.673,0,0,1-2.787-.634q-.936-.261-1.848-.593c-.3-.14-.6-.283-.9-.424.639.054,1.275.116,1.914.185.349.047.7.08,1.05.1.63.059,1.26.1,1.894.105l.17,0h.119a7.041,7.041,0,0,0,.551.873,5.052,5.052,0,0,0,.319.433Zm10.66-.571c-.243.147-.491.294-.735.445a11.808,11.808,0,0,1-1.264.631l-.411-.005c-.345,0-.689-.009-1.029-.017-.794-.034-1.588-.063-2.377-.1q-1.541-.075-3.08-.21a4.9,4.9,0,0,1-.935-1.005c-.112-.154-.219-.311-.317-.473.113-.012.226-.026.338-.042a20.371,20.371,0,0,0,2.49-.575,23.843,23.843,0,0,0,3.482-1.223,10.573,10.573,0,0,0,3.427-2.28,13.719,13.719,0,0,0,.932-1.092,10.867,10.867,0,0,0,1.167-2.02,14.772,14.772,0,0,0,.6-1.709c.122-.361.24-.722.361-1.084.2-.6.425-1.2.643-1.793-.021.046-.042.1-.063.143a15.036,15.036,0,0,1,1.146-2.331c.245-.371.5-.734.759-1.1.041-.054.08-.108.122-.16v.04c.089,2.327.336,4.645.5,6.963q.135,1.824.281,3.648c-.195.18-.388.36-.579.543-.71.689-1.394,1.407-2.117,2.084-.706.669-1.45,1.3-2.206,1.91C1242.148,538.356,1241.772,538.651,1241.376,538.89Zm5.375-1.192a8.423,8.423,0,0,1-2.078,1.234c.059-.025.117-.046.172-.072a12.067,12.067,0,0,1-2.266.822q.219-.138.435-.284a25.361,25.361,0,0,0,2.3-1.747c.774-.661,1.523-1.353,2.276-2.042l.059.74c.012.142.023.283.035.425A13.09,13.09,0,0,1,1246.751,537.7Zm1.3-20.163c.037-1.92.063-3.847.155-5.767.117-2.531.223-5.045.522-7.564a15.639,15.639,0,0,1,.494-2.549c.073-.219.149-.439.224-.659l.244-.371.01,0,.133.139a8.855,8.855,0,0,1,.813,1.284c.159.327.318.649.477.972.368.893.728,1.786,1.014,2.707a47.789,47.789,0,0,1,1.254,4.874,12.678,12.678,0,0,1,.14,2.925q-.044.674-.088,1.348c-.03.546-.084,1.079-.134,1.625-.125,1.32-.287,2.636-.444,3.951l-.159,1.033c-.073-.109-.149-.216-.229-.322a4.637,4.637,0,0,0-.483-.554,3.875,3.875,0,0,0-.815-.538,1.219,1.219,0,0,0-.5-.134,3.355,3.355,0,0,0-1.142.054,8.232,8.232,0,0,0-1.459.37C1248.043,519.417,1248.033,518.476,1248.05,517.535Zm.642,11.246c-.217-2.329-.439-4.663-.56-7a8.55,8.55,0,0,1,1.3-.37,6.508,6.508,0,0,1,.915-.031l.155.044.178.1a2.863,2.863,0,0,1,.432.5,7.486,7.486,0,0,1,.616,1.113,8.206,8.206,0,0,1,.376,1.04q.057.17.108.339c-.055.271-.113.542-.167.812-.256,1.256-.474,2.537-.827,3.767q-.114.469-.251.931l-.066.094a17.132,17.132,0,0,1-1.909,2.024C1248.894,531.023,1248.8,529.9,1248.692,528.781Zm-12.229,123.731c1.049.08,2.1.151,3.149.2.944.05,1.891.115,2.834.117a4.887,4.887,0,0,0,.018.513,16.482,16.482,0,0,0,.382,2.347,38.024,38.024,0,0,0,2.7,6.686c.58,1.273,1.206,2.507,1.865,3.738.3.55.588,1.117.924,1.646a15.083,15.083,0,0,0,1.062,1.466q.506.613,1.05,1.185c-.208.3-.42.6-.638.89a29.7,29.7,0,0,1-4.994,4.857c-.625.475-1.248.954-1.881,1.413-.714.52-1.44,1.024-2.146,1.549-1.684,1.248-3.343,2.541-5.077,3.713q-1.386.932-2.814,1.8c-.769.47-1.571.873-2.373,1.276-1.712.85-3.453,1.642-5.206,2.409-1.006.371-2.008.733-3.034,1.048-.915.285-1.827.592-2.742.882q-2.829.888-5.686,1.658c-1.781.488-3.57.962-5.368,1.4-1.163.286-2.326.571-3.5.815-.529.113-1.042.226-1.575.306-.367.06-.735.116-1.1.173-.574.068-1.151.151-1.728.18-.659.038-1.314.075-1.969.109-.777.042-1.55.059-2.322.084-.463.013-.92.038-1.382.025-.555-.008-1.109-.021-1.667-.029-.357-.008-.718-.017-1.08-.021-.546-.042-1.088-.08-1.633-.118-1.089-.077-2.169-.2-3.253-.3-2.363-.344-4.722-.737-7.053-1.248-.773-.173-1.567-.307-2.331-.517s-1.516-.416-2.273-.626c-1.037-.285-2.041-.571-3.057-.932-1.506-.532-2.986-1.1-4.464-1.72a36.37,36.37,0,0,1-5.93-3.185c-.739-.517-1.478-1.029-2.217-1.55-1.2-.84-2.4-1.684-3.587-2.545-1.272-.924-2.562-1.823-3.817-2.768-1.007-.761-2.014-1.525-3.028-2.283-.8-.646-1.63-1.271-2.39-1.958-.512-.462-1.029-.929-1.541-1.4-.2-.18-.4-.361-.6-.541q-1.309-1.3-2.616-2.6a52.364,52.364,0,0,1-4.126-4.758,20.767,20.767,0,0,1-1.451-2.184c-.194-.34-.387-.676-.58-1.016-.176-.311-.353-.622-.533-.937-.324-.571-.668-1.138-.979-1.718q-.589-1.047-1.095-2.141a22.335,22.335,0,0,1-.711-2.138,13.522,13.522,0,0,1-.5-2.393,7.984,7.984,0,0,1,.018-1.822,7.754,7.754,0,0,1,.5-1.566,5.729,5.729,0,0,1,.931-1.495l.575-.375.611-.159a5.15,5.15,0,0,1,1.508.034c1.042.207,2.088.427,3.1.737.706.219,1.411.437,2.117.664q1.908.6,3.83,1.184c2.763.844,5.539,1.655,8.315,2.457,5.661,1.642,11.335,3.246,17.064,4.657,2.3.572,4.619,1.134,6.954,1.538q1.77.3,3.545.592c1.1.18,2.213.323,3.326.479,2.1.289,4.212.482,6.32.7,2.251.235,4.5.466,6.758.672,1.13.1,2.268.2,3.406.256a32.055,32.055,0,0,0,3.809.059q1.859-.133,3.708-.315c.525-.055,1.042-.131,1.563-.2.491-.067,1-.113,1.49-.2,1.26-.223,2.516-.428,3.763-.706.634-.138,1.3-.239,1.924-.42s1.268-.369,1.9-.55a28.086,28.086,0,0,0,4.981-1.915c1.029-.521,2.045-1.054,3.057-1.6,2.2-1.184,4.384-2.389,6.594-3.565.139-.075.278-.148.418-.222C1235.141,652.387,1235.8,652.459,1236.463,652.512Zm10.748-11.826a15.139,15.139,0,0,1-1.69,1.936c-.092.088-.189.181-.285.269l-.811.76c-.579.5-1.162.991-1.764,1.465a26.321,26.321,0,0,1-2.738,1.714c-.739.395-1.482.781-2.238,1.147-1.625.793-3.23,1.633-4.818,2.5l-.691.38c-.157-.035-.314-.074-.473-.115a3.484,3.484,0,0,1-.655-.326c-.061-.058-.123-.114-.184-.17a1.419,1.419,0,0,1-.225-.393,1.927,1.927,0,0,1-.078-.353,7.058,7.058,0,0,1,.066-1.006,12.263,12.263,0,0,1,.65-2.468c.09-.211.176-.422.285-.626a9.293,9.293,0,0,1,.677-1.067,13.2,13.2,0,0,1,1.727-1.649,6.287,6.287,0,0,1,.961-.553,18.515,18.515,0,0,1,2.959-.914c1.264-.277,2.528-.558,3.805-.789,1.516-.273,3.058-.479,4.557-.836.647-.155,1.3-.3,1.946-.454Q1247.714,639.918,1247.211,640.686Z" fill="none"/></clipPath></defs><g transform="translate(-955.433 -290.925)"><g clip-path="url(#a)"><path d="M1202.5,797.5S1172,796,1123,768c-25.111-14.349-82.791-18.7-136.678-118.327a77.428,77.428,0,0,1-8-22.506C971.229,589.488,965,625,955.5,410.5c0,0-7-31,21-58l15-18,11-9,17-11,28-15,37-7,32-1,35,5s7,1,9,6,7,22,7,22,5,9-20,6-62.075-10.8-73.288-13.152C1061,316,1036,319,1031.5,323.5s-23,28-26,14c0,0,12-28,20.5-.5,0,0,5.5,32.5,3.5,38.5a102.3,102.3,0,0,0-3,11s-1,11,10,6l5-3L1053,380l8-8,2.654-3.274S1075,362,1084,363c0,0,15-3,26,4s12,10,12,10l16,15s15,12-3,11c0,0-21-7-31-1,0,0-30,9-44,2,0,0-22-3-10-20,0,0,15-21,42-15,0,0,10,3,12,4s18.015,8.612,18.015,8.612L1136,395l1,3s1,4-8-1-17-21-27-20a23.553,23.553,0,0,0,1,11s-2,17-22,13c0,0-7-1-13-8s-4-8-18-15c0,0-7-15,22-18,0,0,23-6,36,1l19,13s15,8,19,9c0,0,10,2,12,14,0,0,6,12,4,40,0,0-3,46-5,47s.078,10.439-9.961,27.22c0,0-10.039,21.78,13.961,19.78,0,0,2,2,9-8,0,0,10-11,19-8s1,9,1,9l-10,9s-8,3-7-4,21-13,25-11,16,6,20,3,28-11,13,8c0,0-3,21,12,9s9-25,1-9c0,0-7,12-19,8s10.918,13.325,25.459-1.837-3.524-60.42-3.492-17.791L1249,550l7.944,24.236S1311,656,1251,613c0,0-23.236-29.273-38.118-22.137,0,0-6.882,6.137-21.882-4.863,0,0-20,1-26,17,0,0-13,13-23,14l-18,15s-13.566,18.869,18.217-1.066c0,0,14.783-17.934,64.783-13.934,0,0,15,2,22,4a63.251,63.251,0,0,0,15,2s19.935.814,2.967,19.407c0,0-26.027,25.664-71,16.128,0,0-37.97-11.535-40.97-11.535,0,0-8,8,0,16s20,23,36,29,54,11,82-22c0,0,6-2-4-1,0,0-26-26,27-32,0,0,19.213,5.776-17.394,13.388S1232,645,1232,645s2-6,6-6,55-12,55-12" fill="none" stroke="#4c4948" stroke-miterlimit="10" stroke-width="4"/></g></g></svg>