<svg xmlns="http://www.w3.org/2000/svg" xmlns:xlink="http://www.w3.org/1999/xlink" width="310.114" height="529.876" viewBox="0 0 310.114 529.876"><defs><clipPath id="a"><path d="M907.322,271.6c-.92.012-1.84.027-2.76.039q-1.452.024-2.9.044c-.462.008-.932-.008-1.391.023q-2.422.178-4.842.36c-.722.051-1.445.106-2.168.158-.391.031-.746.075-1.157.118-1.134.123-2.271.265-3.4.427-1.963.284-3.906.636-5.845,1.05-.983.214-1.963.458-2.938.7-.427.107-.767.19-1.158.308q-2.7.829-5.391,1.651a63.032,63.032,0,0,0-6.528,2.413c-1.785.771-3.531,1.6-5.245,2.516a55.156,55.156,0,0,0-5.4,3.417c-1.375.951-2.682,2.01-4.009,3.033l-1.311,1.007c-.6.462-1.153.987-1.718,1.489q-.978.87-1.955,1.742c-.332.292-.64.616-.952.932q-.972.971-1.943,1.947a45,45,0,0,0-3.322,3.776,37.746,37.746,0,0,0-2.855,4.174,33.218,33.218,0,0,0-2.074,4.321,37.95,37.95,0,0,0-1.654,5.276,51.712,51.712,0,0,0-1.051,5.917c-.229,1.714-.312,3.448-.45,5.174-.111,1.406-.146,2.816-.2,4.23-.122,3.226-.193,6.465-.1,9.7a43.017,43.017,0,0,0,.529,5.241,34.77,34.77,0,0,0,1.481,5.719c.533,1.587,1.173,3.131,1.84,4.664a49.067,49.067,0,0,0,2.639,5.257c1.062,1.809,2.326,3.5,3.542,5.205.352.5.707.995,1.059,1.489.43.608.928,1.173,1.39,1.758,1.4,1.757,2.792,3.519,4.321,5.17.6.655,1.268,1.259,1.919,1.868.435.4.92.853,1.379,1.232q1.007.83,2.014,1.667c.628.521,1.256,1.038,1.884,1.56.825.683,1.686,1.323,2.539,1.966a61.642,61.642,0,0,0,7.279,4.57l1.319.732q-.092.4-.177.8c-.372,1.711-.668,3.448-.873,5.182-.115.984-.206,1.963-.277,2.95s-.075,1.971-.079,2.955a45.5,45.5,0,0,0,.36,5.857,41.958,41.958,0,0,0,1.117,5.486,49.476,49.476,0,0,0,2,5.7c.28.691.588,1.37.889,2.046.26.576.541,1.2.837,1.761q.568,1.073,1.141,2.153c.316.6.612,1.224.964,1.808q1.221,2.051,2.445,4.1.254.426.533.833.9,1.334,1.8,2.662c.324.474.644.952.964,1.426.426.632.912,1.236,1.386,1.833.6.766,1.212,1.516,1.844,2.255a53.9,53.9,0,0,0,6.884,6.473c2.184,1.793,4.38,3.582,6.489,5.466,2.165,1.932,4.317,3.875,6.5,5.782q3.442,3.016,6.916,6c1.034.888,2.1,1.737,3.155,2.606,1.031.846,2.023,1.746,3.03,2.619.173.15.335.336.5.5.47.469.94.936,1.41,1.406.447.446.881.888,1.3,1.358q.87.984,1.745,1.967c.285.32.534.687.8,1.023l.615.787.957,1.413c.273.4.506.786.77,1.216a18.613,18.613,0,0,1,1.113,2.213c.427,1.047.82,2.1,1.178,3.174a34.239,34.239,0,0,1,1.126,4.834c.134,1.074.225,2.14.272,3.223a29.143,29.143,0,0,1-.239,4.461q-.12.82-.282,1.633c-.166.913-.411,1.809-.656,2.7a39.071,39.071,0,0,1-1.609,4.534c-.426.96-.885,1.889-1.4,2.808a28.308,28.308,0,0,1-1.821,2.757,88.773,88.773,0,0,1-10.548,10.478q-3.057,2.742-6.106,5.5c-.885.8-1.774,1.607-2.662,2.4q-1.09.977-2.173,1.955c-.45.4-.888.821-1.35,1.212q-1.878,1.6-3.764,3.2c-1.114.948-2.2,1.932-3.29,2.9-.36.316-.727.62-1.07.948l-1.671,1.612q-.836.805-1.671,1.607c-.489.47-.932.991-1.394,1.485-.549.589-1.1,1.173-1.647,1.758-.375.4-.7.849-1.05,1.275q-.8.978-1.608,1.959c-.438.533-.841,1.1-1.26,1.651-.833,1.1-1.643,2.208-2.448,3.33s-1.521,2.31-2.224,3.5a35.827,35.827,0,0,0-1.694,3.3,26.563,26.563,0,0,0-1.466,4.115,34.56,34.56,0,0,0-.825,11.659c.059.656.162,1.315.253,1.967a11.128,11.128,0,0,0,.707,2.492,12.929,12.929,0,0,0,1.011,1.916c.375.639.8,1.248,1.22,1.856.751,1.1,1.564,2.148,2.39,3.191,1.568,1.987,3.215,3.922,4.964,5.754,1.928,2.015,3.894,3.985,5.841,5.98.826.849,1.644,1.7,2.437,2.583.989,1.091,1.973,2.183,2.883,3.343A18.467,18.467,0,0,1,895,604.59c-.02-.052-.04-.1-.059-.147a12.4,12.4,0,0,1,.434,1.189c.174.573.32,1.153.442,1.742.1.434.154.885.229,1.323.162.948.29,1.9.418,2.844.069.591.15,1.182.2,1.777.027.387.059.774.087,1.161a13.958,13.958,0,0,1-.076,2.577,20.481,20.481,0,0,1-.884,3.529c-.275.772-.547,1.536-.848,2.3-.108.239-.213.478-.321.716q-.444.889-.972,1.73c-.421.706-.922,1.365-1.409,2.027q-.864,1.066-1.727,2.136c-.327.407-.722.774-1.078,1.161s-.719.774-1.074,1.158c-.375.4-.794.77-1.189,1.149s-.79.77-1.185,1.153-.857.75-1.283,1.126l-1.275,1.117c-.493.381-.989.761-1.482,1.142-.431.328-.853.679-1.3.991-1.161.814-2.31,1.655-3.5,2.425q-1.019.658-2.038,1.311c-.521.34-1.074.632-1.607.948-1.094.636-2.212,1.24-3.337,1.813-1.2.608-2.406,1.2-3.583,1.848q-1.2.658-2.4,1.32c-.585.323-1.145.683-1.714,1.03-.506.309-1.027.6-1.521.933q-.977.663-1.955,1.33c-.489.332-.951.715-1.425,1.075s-.929.7-1.379,1.07c-1.11.9-2.22,1.793-3.3,2.721q-1.878,1.6-3.752,3.2c-2.026,1.734-4.04,3.472-5.995,5.281-.857.8-1.73,1.6-2.52,2.464a21.435,21.435,0,0,0-1.706,2.074,11.4,11.4,0,0,0-.608,1.019c-.281.5-.557,1-.814,1.516a18.375,18.375,0,0,0-.916,2.433c-.17.518-.32,1.043-.438,1.572-.123.565-.214,1.086-.3,1.663a10.77,10.77,0,0,0-.059,1.983,7.175,7.175,0,0,0,.312,1.65,11.691,11.691,0,0,0,.644,1.683,9.8,9.8,0,0,0,1.738,2.417c.355.411.742.806,1.137,1.181s.774.731,1.189,1.074c.462.383.94.731,1.43,1.078.2.131.406.257.608.384a14.875,14.875,0,0,0,1.516.821c.569.273,1.17.494,1.754.731.98.4,1.983.746,2.994,1.066,1.027.324,2.054.616,3.1.869,1.063.257,2.157.419,3.227.616,1.011.182,2.018.36,3.017.6a21.227,21.227,0,0,1,3.1,1.111c.409.188.811.382,1.2.6a9.373,9.373,0,0,1,.931.628,8.238,8.238,0,0,1,1.084,1.086,2.3,2.3,0,0,1,.207.343c.026.091.049.181.071.275a1.424,1.424,0,0,1-.03.378c.005-.036.009-.07.014-.105-.012.028-.024.056-.037.083.012-.028.024-.055.037-.083s.009-.061.014-.093c-.027.075-.051.152-.075.228a2.281,2.281,0,0,1-.159.275c-.358.421-.743.81-1.133,1.2-.473.466-.932.947-1.394,1.425-.414.427-.79.9-1.181,1.347-.493.561-.963,1.146-1.437,1.726a31.981,31.981,0,0,0-2.145,2.9,23.84,23.84,0,0,0-1.635,3.053,22.41,22.41,0,0,0-1.915,7.3,11.842,11.842,0,0,0-.032,1.686,13.026,13.026,0,0,0,.178,1.462,19.3,19.3,0,0,0,.888,3.207,25.853,25.853,0,0,0,1.035,2.61c.174.371.371.715.573,1.07.185.332.363.668.569.984.406.624.817,1.228,1.252,1.832.2.277.414.541.624.81a10.524,10.524,0,0,0,1.532,1.5,22.932,22.932,0,0,0,3.645,2.378,14.014,14.014,0,0,0,3.966,1.485c.6.132,1.206.258,1.81.373l-.488.405c-.921.687-1.843,1.374-2.78,2.041-1.062.755-2.132,1.5-3.159,2.307a27.83,27.83,0,0,0-2.84,2.611c-.462.478-.889.979-1.319,1.493-.17.2-.324.438-.478.651-.257.348-.5.7-.739,1.063a19.218,19.218,0,0,0-1.745,3.171c-.257.612-.5,1.217-.719,1.841a8.747,8.747,0,0,0-.466,2.666,18.514,18.514,0,0,0,.288,3.4c.091.569.217,1.133.34,1.694a12.407,12.407,0,0,0,.873,2.891,8.43,8.43,0,0,0,.829,1.43c.257.328.494.628.766.94a11.233,11.233,0,0,0,1.11,1.062,12.07,12.07,0,0,0,1.256.988c.537.363,1.09.683,1.659,1,.9.509,1.844.944,2.784,1.386,1.051.5,2.117.968,3.184,1.434q3.738,1.647,7.48,3.278,1.635.711,3.282,1.386c1.283.526,2.579,1.011,3.894,1.466,1.13.391,2.263.75,3.413,1.094,1.319.395,2.677.671,4.02.979,2.465.565,4.929,1.122,7.362,1.829,4.815,1.4,9.562,3.029,14.467,4.076,2.516.533,5.059.947,7.583,1.433s5.052,1.059,7.583,1.552c2.642.514,5.285,1.023,7.939,1.482q3.945.681,7.911,1.244c2.638.379,5.28.774,7.91,1.212,2.666.446,5.324.924,7.986,1.4,2.587.462,5.178.889,7.769,1.319,2.607.435,5.209.893,7.812,1.323,2.425.4,4.87.68,7.311.948,2.772.3,5.549.593,8.329.838,1.375.118,2.753.221,4.127.319,1.185.087,2.378.072,3.567.1,2.816.071,5.628.221,8.44.419,1.173.083,2.342.221,3.507.359,1.185.142,2.37.265,3.551.419,2.559.328,5.114.64,7.689.833,2.623.2,5.237.316,7.86.466,1.339.079,2.674.206,4.013.3,1.224.091,2.46.1,3.684.135.6.019,1.2,0,1.8-.016.668-.028,1.335-.04,2-.079,1.26-.075,2.516-.162,3.772-.284,1.338-.135,2.673-.281,4.012-.4,1.418-.127,2.84-.214,4.262-.316,2.393-.174,4.791-.344,7.172-.652.707-.091,1.43-.15,2.133-.28.6-.107,1.2-.214,1.8-.324,1.312-.238,2.623-.461,3.942-.647,1.031-.135,2.061-.259,3.092-.408,1.137-.166,2.263-.371,3.389-.612,1.026-.217,2.049-.47,3.068-.723.976-.241,1.94-.5,2.9-.8.98-.308,1.947-.644,2.891-1.043.849-.359,1.707-.707,2.536-1.106a21.99,21.99,0,0,0,2.646-1.576q.391-.255.758-.545l.6-.474a13.1,13.1,0,0,0,.983-.948,32.116,32.116,0,0,0,2.433-3c-.016.02-.031.043-.048.065.556-.691,1.115-1.376,1.667-2.068.569-.711,1.071-1.465,1.572-2.223a13.077,13.077,0,0,0,.822-1.418c.118-.281.233-.561.347-.845.044-.308.087-.613.127-.921.019-.217.039-.434.059-.647a36.02,36.02,0,0,0,.024-4.657,66.97,66.97,0,0,0-.814-8.878c-.233-1.343-.581-2.658-.924-3.973-.4-1.5-.837-2.978-1.335-4.452a50.384,50.384,0,0,1-2.414-8.752c-.065-.652-.119-1.3-.157-1.955-.032-.513-.024-1.03-.032-1.544-.008-.565,0-1.129.02-1.694.018-.483.1-.974.157-1.453.065-.448.134-.89.214-1.336a12.272,12.272,0,0,1,.567-2c.067-.147.133-.294.2-.438a7.69,7.69,0,0,1,.947-1.522,37.062,37.062,0,0,1,2.817-2.874c.506-.47,1.019-.936,1.556-1.375.431-.355.877-.691,1.308-1.042.4-.32.79-.644,1.157-1s.723-.762,1.074-1.153c.415-.462.831-.924,1.236-1.394a11.517,11.517,0,0,0,1.651-.423c.312-.126.628-.252.936-.387a6.828,6.828,0,0,0,1.7-1.015,3.035,3.035,0,0,0,.62-.636c.2-.241.383-.489.557-.75a13.03,13.03,0,0,0,.793-1.363,18.2,18.2,0,0,0,1.047-2.511,17.318,17.318,0,0,0,.857-5.135c.024-.885-.028-1.769-.083-2.65-.063-1.043-.146-2.077-.241-3.116-.083-.924-.233-1.849-.367-2.765a12.129,12.129,0,0,0-.541-2.334c-.138-.4-.3-.782-.466-1.173-.6-1.374-1.4-2.646-2.013-4.011a3.965,3.965,0,0,1-.195-.665c0,.055.012.11.02.162a2.712,2.712,0,0,1-.037-.7,2.358,2.358,0,0,1,.191-.587c-.02.048-.04.1-.059.146a7.82,7.82,0,0,1,.632-1.01c.432-.486.907-.927,1.386-1.371.509-.478,1.03-.94,1.556-1.394.569-.49,1.145-.972,1.718-1.458s1.129-1.031,1.663-1.583a38.963,38.963,0,0,0,2.788-3.184,17.024,17.024,0,0,0,1.209-1.821c.469-.8.924-1.631,1.33-2.476s.747-1.682,1.063-2.547a17.5,17.5,0,0,0,.778-3.057,16.682,16.682,0,0,0,.1-5.277c-.075-.5-.158-.995-.249-1.5a13.557,13.557,0,0,0-.616-2.255c-.158-.426-.364-.841-.557-1.252-.241-.505-.5-1-.763-1.5-.919-1.747-1.779-3.536-2.564-5.347a48.209,48.209,0,0,1-1.626-5.352c-.221-.881-.391-1.777-.584-2.662-.174-.786-.4-1.56-.6-2.334-.094-.363-.2-.719-.308-1.074-.086-.275-.175-.557-.273-.834.072-.023.143-.046.214-.067.3-.1.592-.205.885-.312.608-.225,1.2-.474,1.8-.715,1.177-.466,2.338-.963,3.5-1.473,1.082-.474,2.14-1,3.195-1.536,1.138-.581,2.259-1.181,3.357-1.837a45.739,45.739,0,0,0,5.762-3.791,22.318,22.318,0,0,0,2.058-2q.99-1.06,1.912-2.172c.675-.817,1.323-1.659,1.963-2.5a31.488,31.488,0,0,0,2.034-3.1,22.968,22.968,0,0,0,1.41-2.725,12.985,12.985,0,0,0,.572-1.738,15.129,15.129,0,0,0,.308-1.931,20.484,20.484,0,0,0-.019-3.52c-.036-.548-.1-1.1-.158-1.65-.079-.723-.154-1.454-.273-2.173a28.043,28.043,0,0,0-.577-2.914c-.165-.605-.335-1.2-.537-1.793-.158-.47-.339-.929-.537-1.387a41.725,41.725,0,0,0-2.587-5c-.963-1.611-2.113-3.1-3.175-4.656-.94-1.375-1.781-2.816-2.706-4.2-.983-1.481-2.01-2.934-3.112-4.336-1.232-1.564-2.527-3.081-3.791-4.625-.624-.762-1.292-1.493-1.936-2.239-.718-.83-1.5-1.608-2.271-2.386-.793-.806-1.623-1.576-2.417-2.377a29.269,29.269,0,0,1-2.06-2.335,53.789,53.789,0,0,1-3.125-4.8c-.565-.944-1.134-1.888-1.718-2.824-.569-.909-1.158-1.793-1.707-2.714s-1.113-1.816-1.662-2.729c-.585-.971-1.161-1.951-1.754-2.918-.983-1.616-2.145-3.12-3.167-4.708-1.079-1.675-2.1-3.381-3.16-5.063-1.07-1.7-2.291-3.3-3.456-4.945a47.139,47.139,0,0,1-3.045-4.937c-.482-.893-.964-1.789-1.41-2.7-.475-.961-.918-1.937-1.352-2.917a17.535,17.535,0,0,1-.817-2.758c.181-.16.359-.324.534-.494a3.067,3.067,0,0,0,.908-1.188.909.909,0,0,0-.635-1.126.951.951,0,0,0-.913.229c-.077.089-.152.179-.228.269-.044-.524-.074-1.049-.1-1.58-.047-1.146.012-2.3.048-3.452q.047-1.629.134-3.258c.055-1.093.155-2.179.286-3.264.127-.828.287-1.646.46-2.463.17-.8.316-1.612.522-2.406.173-.673.358-1.344.546-2.014q.211-.041.42-.093l.14-.029a12.927,12.927,0,0,0,1.73-.553c.635-.233,1.256-.521,1.872-.814a20.747,20.747,0,0,0,2.831-1.662c.486-.328.94-.7,1.4-1.063a12.465,12.465,0,0,0,1.453-1.4c.77-.845,1.477-1.754,2.18-2.654a17.275,17.275,0,0,0,1.651-2.508,9.635,9.635,0,0,0,.877-2.137,14.45,14.45,0,0,0,.4-2.693,7.477,7.477,0,0,0-.095-1.6,6.043,6.043,0,0,0-.885-2.125,4.091,4.091,0,0,0-1.264-1.41l-.545-.343,0,0,0-.01a15.409,15.409,0,0,0,.365-2.412,1.6,1.6,0,0,0,.1-.132,3.613,3.613,0,0,0,.47-.916,9.442,9.442,0,0,0,.336-1.915,30.642,30.642,0,0,0,.036-3.662c-.052-1.188-.1-2.377-.135-3.566-.026-.882-.038-1.764-.058-2.646.044-1.544.073-3.088.1-4.633.02-1.2.016-2.409,0-3.618-.008-.533-.036-1.074-.067-1.607-.024-.348-.048-.7-.067-1.047-.036-.517-.135-1.038-.2-1.552-.071-.533-.174-1.066-.272-1.6s-.19-1.079-.3-1.616q-.213-1.066-.426-2.137c-.17-.841-.4-1.674-.593-2.511q-.858-3.662-1.781-7.307-.96-3.792-2.081-7.536c-.731-2.429-1.517-4.846-2.311-7.259-.782-2.389-1.489-4.8-2.188-7.219-.746-2.591-1.564-5.159-2.385-7.726-.834-2.61-1.738-5.2-2.662-7.772-.889-2.477-1.951-4.89-3.053-7.279-.549-1.2-1.118-2.386-1.69-3.571-.664-1.382-1.316-2.76-1.944-4.159-1.054-2.33-2.065-4.68-3.1-7.022q-1.753-3.945-3.531-7.883c-1.133-2.5-2.294-4.984-3.432-7.484.04.091.079.181.115.272-.482-1.141-.98-2.283-1.4-3.448-.51-1.422-1-2.851-1.482-4.285-.4-1.189-.778-2.385-1.176-3.574a46.249,46.249,0,0,0-2.05-5.123,25.052,25.052,0,0,0-1.521-2.6q-.545-.864-1.121-1.71c-.731-1.07-1.557-2.073-2.354-3.1s-1.6-2.074-2.445-3.077c-.861-1.019-1.73-2.034-2.65-3q-.8-.83-1.588-1.667c-.49-.513-1.027-.987-1.536-1.477-.972-.932-1.995-1.8-3-2.7-.565-.5-1.157-.963-1.734-1.445q-.617-.516-1.244-1.011-1.711-1.357-3.464-2.662c-.557-.411-1.149-.778-1.722-1.169-.434-.3-.884-.569-1.334-.849-.621-.387-1.245-.779-1.869-1.166-.758-.47-1.556-.888-2.33-1.33-1.165-.668-2.318-1.351-3.475-2.031-1.217-.711-2.394-1.5-3.583-2.259-.347-.221-.679-.466-1.015-.7-.711-.493-1.421-.983-2.132-1.477-.9-.624-1.767-1.3-2.645-1.957-.9-.722-1.8-1.436-2.7-2.17-1.161-.956-2.307-1.935-3.5-2.852-.731-.564-1.462-1.125-2.2-1.69-.356-.272-.707-.557-1.079-.806-.714-.486-1.429-.967-2.144-1.453-.482-.324-.956-.66-1.453-.96-1.2-.719-2.382-1.465-3.61-2.129q-2.1-1.137-4.222-2.243c-2.572-1.335-5.1-2.761-7.607-4.21-4.668-2.69-9.293-5.458-14.068-7.958q-1.789-.942-3.578-1.88-1.185-.622-2.378-1.244c-.529-.277-1.051-.573-1.592-.83q-2.156-1.03-4.313-2.058c-1.184-.564-2.4-1.05-3.6-1.564-1.138-.481-2.271-.979-3.425-1.429-1.358-.53-2.717-1.078-4.087-1.588-1.213-.454-2.425-.9-3.638-1.359-1.327-.5-2.65-1.015-4-1.473q-2.1-.717-4.206-1.437c-.585-.2-1.181-.372-1.773-.553-.889-.281-1.778-.557-2.666-.838-2.635-.821-5.312-1.508-7.982-2.223-.557-.15-1.134-.249-1.7-.371-.944-.206-1.887-.415-2.831-.62-1.3-.285-2.619-.467-3.934-.676-1.268-.2-2.536-.442-3.811-.58q-2.762-.309-5.518-.609c-1-.11-2-.142-3-.189q-2.613-.119-5.226-.245c-.08,0-.161-.005-.242-.005-.256,0-.514.015-.769.021Zm-14.2,4.324,1.828-.118c1.655-.111,3.314-.217,4.965-.324.873-.059,1.75-.039,2.626-.047q2.555-.018,5.111-.04c.814-.008,1.627.048,2.441.091q2.535.136,5.071.269c.885.047,1.761.161,2.642.264l4.168.486q2.76.456,5.513.9c.572.1,1.133.226,1.7.356q1.806.4,3.621.813c.49.111.976.241,1.462.376,1.086.3,2.168.588,3.25.884.873.237,1.734.518,2.6.778.664.2,1.319.4,1.979.609,3.361,1.074,6.718,2.168,10.016,3.424l5.411,2.061c1.518.578,3.024,1.19,4.538,1.788q1.677.717,3.349,1.431.758.321,1.516.648c.494.209.972.462,1.45.691,1.208.581,2.417,1.157,3.621,1.738.526.249,1.027.537,1.541.806.794.414,1.583.833,2.377,1.248,2.232,1.169,4.459,2.342,6.667,3.55q3.051,1.671,6.063,3.413,3.726,2.139,7.46,4.265c1.142.644,2.307,1.244,3.456,1.868,1.126.609,2.279,1.165,3.42,1.742,1.063.537,2.105,1.1,3.156,1.655.632.332,1.236.723,1.852,1.082.486.284,1,.549,1.47.861q1.752,1.149,3.507,2.307c.177.118.347.26.517.387.383.284.762.568,1.141.853l1.475,1.1c2.3,1.84,4.582,3.705,6.977,5.421.632.451,1.252.921,1.9,1.355.841.561,1.687,1.13,2.528,1.69,1.279.857,2.61,1.639,3.922,2.445.462.288.948.541,1.417.81.621.351,1.237.707,1.865,1.05.865.478,1.737.956,2.606,1.434.6.332,1.181.7,1.766,1.047s1.2.707,1.781,1.086c.612.4,1.244.778,1.84,1.2s1.2.818,1.778,1.256l.519.387a.815.815,0,0,0-.318.024.91.91,0,0,0-.541.419,2.82,2.82,0,0,0-.292.782,4.154,4.154,0,0,0,.012,1.6c.146.9.3,1.8.45,2.7.249,1.469.458,2.942.659,4.419-.007-.067-.015-.13-.023-.2.371,2.915.683,5.837.9,8.768.234,3.131.448,6.267.858,9.38l-.009-.056c.431,3.2.818,6.411,1.2,9.618.2,1.623.371,3.246.537,4.873.15,1.458.233,2.915.332,4.376.107,1.592.15,3.192.225,4.787.083,1.793.115,3.586.174,5.375.043,1.418.02,2.832.016,4.25,0,.92,0,1.841,0,2.761,0,.762-.056,1.524-.095,2.287-.062,1.333-.193,2.663-.355,3.989-.136.957-.277,1.919-.482,2.867-.182.837-.36,1.674-.541,2.512-.1.454-.2.912-.3,1.366-.043.2-.106.391-.162.581-.122.442-.244.881-.367,1.323-.193.707-.391,1.418-.588,2.125-.115.418-.273.817-.423,1.228-.466,1.295-.928,2.591-1.438,3.867-.971,2.444-1.943,4.881-2.883,7.334s-1.9,4.927-2.868,7.386l-1.749,4.028c-.541,1.252-1.177,2.468-1.777,3.693-.3.6-.592,1.212-.889,1.817-.189.387-.414.762-.62,1.141-.695,1.272-1.362,2.567-2.089,3.819q-2.334,4.011-4.68,8.01c-.518.884-1.039,1.765-1.588,2.634q-1.4,2.233-2.8,4.463c-.774,1.232-1.584,2.445-2.378,3.665-.746,1.153-1.457,2.326-2.18,3.495-1.41,2.279-2.768,4.594-4.186,6.873q-1.3,2.091-2.611,4.182c-.731,1.173-1.528,2.311-2.3,3.46-1.587,2.366-3.285,4.668-4.952,6.983q-1.926,2.678-3.839,5.351c-1.185,1.651-2.33,3.326-3.5,4.992-1.216,1.742-2.417,3.5-3.621,5.245-.494.711-1.019,1.4-1.529,2.094q-1.033,1.428-2.077,2.849-1.259,1.611-2.516,3.221c-.881,1.126-1.8,2.219-2.705,3.321-1.766,2.161-3.594,4.27-5.4,6.391-1.793,2.1-3.634,4.162-5.454,6.244-.85.975-1.715,1.939-2.552,2.927l-3.223,3.8c-.363.426-.7.877-1.038,1.315q-.924,1.161-1.841,2.322c-.774.98-1.564,1.94-2.358,2.9q-2.808,3.406-5.651,6.778c-1.809,2.156-3.563,4.356-5.317,6.556-1.658,2.077-3.159,4.281-4.656,6.473q-2.583,3.78-5.134,7.571c-1.545,2.3-3.14,4.562-4.724,6.833q-1.155,1.653-2.314,3.29c-.431.616-.865,1.232-1.3,1.848-.967,1.375-1.852,2.812-2.721,4.246-.5.818-.94,1.659-1.382,2.5-.3.577-.609,1.185-.873,1.781-.332.747-.668,1.5-1,2.247-.617,1.379-1.126,2.8-1.667,4.215-.415,1.082-.794,2.176-1.169,3.274a47.09,47.09,0,0,0-1.386,5.087,44.043,44.043,0,0,0-.735,5.087,46.523,46.523,0,0,0-.091,6.994c.075,1.525.265,3.041.415,4.558a25.452,25.452,0,0,0,.92,4.573c.261.917.589,1.817.893,2.718.4,1.189.888,2.35,1.35,3.519.245.628.565,1.228.85,1.836.3.628.62,1.237.955,1.849.692,1.271,1.426,2.519,2.153,3.775s1.532,2.437,2.306,3.65c.127.2.273.387.411.58.458.64.916,1.276,1.374,1.916q.907,1.262,1.841,2.5,1.051,1.416,2.078,2.849-.435-.03-.873-.053c-.9-.047-1.8-.028-2.71-.016a21.475,21.475,0,0,0-4.542.577,22.138,22.138,0,0,0-2.5.794c-.873.312-1.722.691-2.571,1.066a49.809,49.809,0,0,0-4.617,2.48c-1.485.853-2.934,1.746-4.333,2.733a29.5,29.5,0,0,0-3.6,3.01,20.176,20.176,0,0,0-1.711,1.979,16.877,16.877,0,0,0-1.508,2.342,13.875,13.875,0,0,0-.81,1.777c-.316.822-.6,1.643-.873,2.48a22.675,22.675,0,0,0-.892,4.4c-.091.865-.15,1.722-.186,2.591s.028,1.769.083,2.65c.039.656.142,1.311.237,1.963a18.722,18.722,0,0,0,.979,3.6,41.143,41.143,0,0,0,3.18,6.6c1.05,1.856,2.069,3.937,3.894,5.158.2.132.4.264.6.4-3.651,2.358-7.326,4.68-10.967,7.055.151-.583.309-1.163.5-1.738a.74.74,0,0,0-1.426-.4c-.2.714-.379,1.429-.541,2.148-.082.375-.17.752-.266,1.125l-.121.08c-.979.644-1.967,1.279-2.934,1.947q-2.163,1.5-4.333,3c-.324.226-.659.431-.987.644l-2.449,1.6c-1.062.691-2.125,1.378-3.207,2.042-1.5.92-3.005,1.824-4.483,2.78-.825.537-1.631,1.094-2.429,1.671-.576.419-1.121.892-1.666,1.351-.5.418-.972.865-1.454,1.3q-3.075,2.8-6.2,5.549l-.419.362a25.942,25.942,0,0,1-5.343-1.332,25.042,25.042,0,0,1-4.56-2.758,12.135,12.135,0,0,1-1.073-.984c-.276-.308-.541-.628-.786-.96.04.052.079.107.123.159-.474-.656-.932-1.312-1.371-1.991a21.392,21.392,0,0,1-1.413-2.626c-.277-.692-.524-1.391-.763-2.1-.146-.43-.272-.845-.4-1.287a15.346,15.346,0,0,1-.426-2.054c-.016-.158-.03-.32-.044-.478a11.236,11.236,0,0,1,0-1.445c.007-.284.048-.571.076-.852.135-.879.3-1.743.5-2.608a22.107,22.107,0,0,1,.887-2.774c.4-.913.826-1.806,1.3-2.688a23.785,23.785,0,0,1,2.145-3.144q1.431-1.754,2.922-3.46c.482-.549,1.023-1.058,1.54-1.572a6.584,6.584,0,0,0,1.438-1.765,2.066,2.066,0,0,0,.186-.628,2.76,2.76,0,0,0-.1-1.047,2.625,2.625,0,0,0-.529-.908,7.19,7.19,0,0,0-.676-.747,10.2,10.2,0,0,0-3.128-1.97c-.655-.273-1.311-.561-1.986-.786-.652-.222-1.308-.407-1.975-.573-.608-.15-1.232-.237-1.844-.352l-2.552-.485a35.067,35.067,0,0,1-4.186-1.114c-.664-.213-1.319-.442-1.975-.679s-1.3-.515-1.934-.781l.026.01a15.447,15.447,0,0,1-1.994-1.046c-.467-.3-.909-.607-1.353-.931-.218-.181-.436-.36-.654-.542-.312-.261-.6-.557-.888-.838a20.917,20.917,0,0,1-1.99-2.223,11.133,11.133,0,0,1-.766-1.394c-.12-.319-.23-.645-.333-.968a6.823,6.823,0,0,1-.28-1.442c.012.075.02.146.032.218a9.7,9.7,0,0,1,.021-1.669,19.423,19.423,0,0,1,.5-2.36q.344-1.214.788-2.384a20.845,20.845,0,0,1,1.864-3.356c.65-.79,1.327-1.533,2.044-2.266.64-.655,1.319-1.279,1.986-1.9,1.379-1.288,2.793-2.532,4.218-3.76q2-1.73,4.017-3.452c.711-.608,1.414-1.236,2.137-1.829q1.281-1.039,2.563-2.087c.926-.71,1.844-1.435,2.812-2.1.51-.352,1.011-.727,1.54-1.051.826-.505,1.647-1.011,2.473-1.516,1.137-.7,2.338-1.308,3.507-1.955,1.133-.628,2.314-1.169,3.456-1.786.711-.379,1.418-.762,2.129-1.145.549-.3,1.078-.632,1.615-.952,1.157-.683,2.271-1.433,3.4-2.168.581-.379,1.13-.8,1.7-1.2.478-.339.967-.663,1.43-1.023.537-.418,1.074-.833,1.611-1.252.5-.387,1.015-.762,1.489-1.184q1.012-.9,2.022-1.8c.379-.336.735-.7,1.094-1.051.509-.5,1.019-.995,1.529-1.5.161-.158.307-.339.462-.505.4-.443.809-.885,1.216-1.327.8-.877,1.517-1.829,2.259-2.761a23.752,23.752,0,0,0,2.473-3.934c.26-.5.5-1.165.7-1.69.165-.431.3-.877.454-1.311.158-.459.292-.889.434-1.363a19.219,19.219,0,0,0,.553-2.595,12.915,12.915,0,0,0,.071-3.025c-.122-1.505-.312-3-.517-4.495a27.557,27.557,0,0,0-1.09-5.059,15.545,15.545,0,0,0-.984-2.172,14.307,14.307,0,0,0-1.536-2.386c-1.157-1.433-2.366-2.824-3.606-4.194-1.3-1.442-2.67-2.832-4.017-4.234-1.2-1.24-2.409-2.488-3.55-3.784-1.264-1.432-2.469-2.907-3.661-4.4-.553-.731-1.123-1.451-1.643-2.2-.383-.549-.763-1.1-1.146-1.647-.3-.435-.576-.885-.861-1.335a21.026,21.026,0,0,1-1.185-2.217c-.085-.238-.167-.476-.248-.714a9.987,9.987,0,0,1-.338-1.552q-.094-.81-.168-1.627c-.083-.881-.1-1.765-.118-2.65a34.348,34.348,0,0,1,.3-4.755c.191-1.246.424-2.474.719-3.7a21.168,21.168,0,0,1,1.03-3.014c.474-1.089,1-2.144,1.557-3.191.272-.5.588-.983.88-1.473.51-.857,1.075-1.674,1.631-2.5.5-.735,1.039-1.441,1.557-2.16.616-.854,1.279-1.68,1.921-2.516q1.328-1.613,2.652-3.227c.126-.154.28-.3.415-.438.308-.332.62-.668.932-1,.565-.6,1.133-1.2,1.7-1.808.427-.455.9-.869,1.355-1.3.632-.608,1.268-1.216,1.9-1.824.284-.277.584-.534.88-.794l2.548-2.251c1.927-1.707,3.929-3.318,5.845-5.036q3.525-3.164,7.038-6.339c1.983-1.789,3.981-3.566,5.972-5.352,1.579-1.41,3.14-2.824,4.656-4.3,1.319-1.287,2.571-2.65,3.764-4.052a28.905,28.905,0,0,0,3.049-4.5,32.672,32.672,0,0,0,1.813-4.037,38.961,38.961,0,0,0,1.524-4.842,33.064,33.064,0,0,0,.79-5.02A28.728,28.728,0,0,0,929.5,484a34.5,34.5,0,0,0-1.134-5.213,36.5,36.5,0,0,0-1.67-4.4,20.177,20.177,0,0,0-1.821-3.179c-.217-.332-.439-.66-.656-.992-.174-.26-.379-.5-.569-.75-.5-.648-.975-1.315-1.516-1.931l-1.205-1.371c-.276-.316-.545-.651-.841-.952q-1.3-1.3-2.6-2.6c-.162-.166-.347-.316-.525-.47q-.859-.753-1.726-1.505c-1.355-1.185-2.769-2.3-4.135-3.476-1.667-1.441-3.337-2.883-4.992-4.344s-3.3-2.931-4.949-4.4c-1.311-1.173-2.6-2.366-3.93-3.511l-2.859-2.468c-.755-.648-1.533-1.268-2.3-1.9-1.256-1.039-2.508-2.085-3.728-3.164a45.437,45.437,0,0,1-5.6-6.068c-.5-.669-1-1.338-1.465-2.032-.537-.79-1.07-1.58-1.607-2.374-.32-.474-.64-.948-.964-1.425-.087-.135-.166-.281-.249-.419-.288-.482-.573-.96-.857-1.438-.715-1.192-1.445-2.377-2.1-3.606-.446-.849-.9-1.694-1.347-2.543-.646-1.217-1.21-2.48-1.753-3.75-.736-1.831-1.4-3.675-1.952-5.567a39.56,39.56,0,0,1-1.051-4.926q-.169-1.373-.264-2.748c-.071-.979-.079-1.959-.094-2.938a45.323,45.323,0,0,1,.418-6.553q.3-2.01.709-4,.713.383,1.432.753c.648.332,1.354.6,2.026.873.928.383,1.888.691,2.84,1.007,1.165.391,2.338.758,3.523,1.09l5.418,1.517,1.359.379c.932.26,1.884.47,2.824.691,1.291.3,2.6.5,3.906.675a76.42,76.42,0,0,0,10.829.6,55.557,55.557,0,0,0,11.13-1.233,45.959,45.959,0,0,0,9.89-3.578c.7-.328,1.382-.683,2.061-1.047a23.285,23.285,0,0,0,2.046-1.283c.928-.628,1.821-1.307,2.7-2q1.137-.9,2.274-1.794c.8-.631,1.576-1.279,2.351-1.943a47.583,47.583,0,0,0,4.143-4.076c.549-.6,1.066-1.216,1.579-1.84a22.068,22.068,0,0,0,3.523-6.323,30.99,30.99,0,0,0,1.4-5.368c.3-1.556.466-3.147.62-4.727a20.091,20.091,0,0,0-.336-5.32,20.691,20.691,0,0,0-1.355-4.534c-.351-.826-.727-1.627-1.137-2.425a23,23,0,0,0-1.41-2.255c-.364-.53-.786-1.035-1.185-1.537a15.737,15.737,0,0,0-1.734-1.777,16.794,16.794,0,0,0-1.5-1.149,20.945,20.945,0,0,0-2.816-1.624,25.949,25.949,0,0,0-4.309-1.635,27.774,27.774,0,0,0-4.573-.857,24.752,24.752,0,0,0-5.672.135,50.8,50.8,0,0,0-6.058,1.094,53.527,53.527,0,0,0-10.265,3.7c-2.287,1.063-4.467,2.342-6.651,3.6-.644.372-1.284.739-1.923,1.11-1.489.857-2.923,1.825-4.329,2.808a55.368,55.368,0,0,0-8.9,7.879c-1.3,1.4-2.465,2.915-3.634,4.424-.41.529-.813,1.062-1.2,1.6q-1.6,2.233-3.2,4.459c-.759,1.059-1.426,2.188-2.1,3.3-.935,1.548-1.761,3.16-2.539,4.791a46.053,46.053,0,0,0-2.881,8.058l-.693-.388c-.806-.446-1.612-.9-2.406-1.375a59.576,59.576,0,0,1-5.531-3.726c-1.1-.86-2.173-1.747-3.244-2.64-.557-.466-1.118-.932-1.675-1.4-.585-.486-1.141-1-1.7-1.517a43.572,43.572,0,0,1-4.74-5.2q-1.248-1.588-2.5-3.173-1.4-1.986-2.8-3.98c-.8-1.134-1.516-2.326-2.212-3.523-.391-.679-.722-1.4-1.062-2.105-.467-.979-.9-1.973-1.326-2.967-.581-1.438-1.107-2.9-1.593-4.371a33.568,33.568,0,0,1-1.255-5.577c-.109-.907-.191-1.805-.246-2.717-.063-1-.067-2-.082-3-.012-.734.023-1.469.035-2.2.024-1.5.044-3.005.107-4.51.043-1,.087-2.006.126-3.009.024-.518.036-1.035.079-1.553.155-1.849.273-3.705.5-5.552.127-.9.264-1.8.42-2.694.162-.92.384-1.833.6-2.741a39.516,39.516,0,0,1,1.683-5.226c.43-.99.893-1.949,1.4-2.9a31.307,31.307,0,0,1,2.393-3.677,44.39,44.39,0,0,1,3.859-4.341c.842-.813,1.683-1.631,2.524-2.444.521-.506,1.09-.964,1.639-1.434q1.06-.916,2.124-1.832,2.09-1.561,4.184-3.125c1.255-.944,2.6-1.781,3.937-2.61a51.3,51.3,0,0,1,6.64-3.4q1.578-.655,3.183-1.246c.908-.336,1.824-.671,2.752-.944q1.813-.534,3.626-1.07,1.4-.416,2.816-.83c.652-.166,1.3-.328,1.955-.478.98-.237,1.963-.438,2.95-.64,1.616-.331,3.247-.576,4.878-.8-.162.023-.324.043-.486.067,1.307-.162,2.619-.348,3.934-.431ZM838.785,308.1c-.035.085-.071.17-.109.255l.109-.255Zm86.188,30.247a21.273,21.273,0,0,1,3.441.176c1.1.175,2.185.4,3.273.681a23.621,23.621,0,0,1,3.058,1.068c.74.344,1.453.7,2.167,1.093a18.685,18.685,0,0,1,2.042,1.335c-.071-.06-.146-.115-.217-.17a13.776,13.776,0,0,1,1.24,1.054,15.313,15.313,0,0,1,1.533,1.725c.5.677.97,1.361,1.417,2.075a21.237,21.237,0,0,1,1.488,2.961l-.011-.023c.328.857.612,1.706.869,2.587a21.774,21.774,0,0,1,.533,2.508c-.012-.1-.023-.186-.035-.28.083.549.142,1.1.185,1.655a15.945,15.945,0,0,1,.04,1.694c-.028.577-.071,1.157-.138,1.734-.055.507-.113,1.017-.175,1.525-.173,1.208-.389,2.4-.643,3.593a28.028,28.028,0,0,1-1.3,4.279c-.325.745-.672,1.468-1.058,2.187a20.318,20.318,0,0,1-1.69,2.545c-1.1,1.341-2.273,2.607-3.495,3.837-.7.7-1.446,1.359-2.188,2.01-.518.454-1.075.932-1.616,1.355q-1.681,1.318-3.368,2.637c-1.085.791-2.175,1.566-3.318,2.28-.652.407-1.355.739-2.042,1.082-.778.381-1.57.733-2.359,1.084-1.685.7-3.393,1.329-5.133,1.874a38.514,38.514,0,0,1-5.8,1.236,72.2,72.2,0,0,1-17.816-.083c-1.215-.174-2.417-.387-3.619-.647-1-.221-2.007-.478-2.994-.758-1.181-.332-2.358-.664-3.539-1s-2.358-.664-3.534-1c-.7-.2-1.4-.43-2.09-.651-1.506-.473-2.992-1-4.453-1.589-.982-.455-1.944-.957-2.9-1.478l.048-.2a50.65,50.65,0,0,1,2.35-7.115,55.858,55.858,0,0,1,5.45-9.631l2.2-3.1q.92-1.3,1.885-2.566.854-1.1,1.736-2.181c.818-1,1.7-1.955,2.587-2.9a52.005,52.005,0,0,1,5.747-5.156q1.044-.789,2.1-1.543c1.106-.786,2.271-1.5,3.42-2.215.79-.494,1.608-.944,2.409-1.414.66-.383,1.316-.77,1.971-1.153,1.1-.644,2.236-1.225,3.365-1.809,1.1-.569,2.23-1.067,3.366-1.559.85-.348,1.7-.679,2.558-.993,1.213-.446,2.457-.8,3.7-1.145a49.939,49.939,0,0,1,6.475-1.288c.959-.106,1.915-.186,2.878-.233Zm-2.654.2-.169.024.169-.024Zm123.323.134-.007.018h0l.008-.019Zm-.055,2.235c-.008-.078-.02-.154-.028-.233a7.218,7.218,0,0,1-.09-1.046,8.045,8.045,0,0,1,.722.742c.5.519.937,1.082,1.38,1.645.727.959,1.4,1.957,2.084,2.945.3.438.588.869.876,1.327.051.079.1.159.152.239l-.286-.275a1.706,1.706,0,0,0-2.413,2.413c2.094,2.019,4.213,4.014,6.327,6.01.094.286.187.574.277.862.643,2.046,1.129,4.132,1.564,6.229.32,1.554.54,3.131.79,4.7.068.775.136,1.554.2,2.329.067.723.15,1.449.185,2.176.083,1.809.182,3.614.245,5.423q.09,2.523.146,5.043c.012.482-.035.976-.051,1.462-.012.355-.016.714-.039,1.074-.1,1.244-.182,2.484-.321,3.724a31.1,31.1,0,0,1-1.1,4.408q-.4,1.2-.794,2.385-.622,1.884-1.224,3.78c-.877,2.765-1.77,5.522-2.741,8.255q-.331.939-.647,1.884c.074-.605.138-1.21.2-1.813a63.136,63.136,0,0,0,.233-7.185c-.011-.975-.023-1.955-.035-2.934-.008-.525,0-1.051-.024-1.576q-.119-2.465-.237-4.937c-.063-1.354-.158-2.709-.249-4.064-.114-1.741-.276-3.475-.43-5.213-.091-1-.241-1.991-.36-2.986-.079-.667-.161-1.331-.252-2-.479-3.569-.959-7.137-1.48-10.7-.124-1.01-.248-2.017-.369-3.027-.134-1.07-.2-2.156-.288-3.231s-.166-2.176-.249-3.262c-.079-1.058-.193-2.113-.288-3.171-.17-1.8-.344-3.594-.569-5.387-.232-1.818-.49-3.627-.742-5.44-.025-.192-.051-.384-.075-.576Zm8.467,7.71a38.037,38.037,0,0,0-3.815-6.149c-.407-.573-.813-1.126-1.244-1.679-.267-.344-.544-.676-.828-1l.267.213c.794.636,1.556,1.319,2.33,1.979,1.4,1.193,2.706,2.5,4.005,3.8.616.616,1.2,1.268,1.789,1.908.573.62,1.146,1.24,1.687,1.888q1.748,2.118,3.473,4.247c.494.686.984,1.374,1.452,2.076.3.454.6.908.885,1.37a26.051,26.051,0,0,1,1.5,2.9c.366.929.734,1.856,1.066,2.8.351,1.008.695,2.011,1.035,3.022.375,1.114.793,2.216,1.188,3.325q.492,1.386,1.067,2.741c.422,1,.845,1.987,1.307,2.962q.285.6.571,1.2-.881-1.7-1.792-3.375c-.5-.928-1.014-1.852-1.461-2.812-.428-.923-.841-1.853-1.246-2.787-.722-1.725-1.473-3.433-2.269-5.124a21.829,21.829,0,0,0-1.6-2.816c-.225-.3-.455-.588-.691-.88s-.5-.573-.751-.854c-.719-.793-1.453-1.564-2.2-2.334-1.335-1.374-2.741-2.685-4.131-4l-.768-.724q-.391-.951-.816-1.89ZM934.821,340.3l.132.055-.132-.055Zm109.743,102.923c.245-1.279.5-2.559.75-3.838.213-1.09.4-2.188.589-3.282.225-1.276.45-2.548.659-3.824q.337-2.019.695-4.032c.265-1.5.605-2.994.909-4.491.122-.584.264-1.169.4-1.753s.248-1.153.391-1.726q.3-1.209.6-2.417c.154-.62.332-1.229.517-1.845.79-2.606,1.6-5.2,2.492-7.78.4-1.146.822-2.279,1.221-3.424q.687-1.974,1.335-3.962,1.362-4.206,2.792-8.389c.276-.809.506-1.639.727-2.464a16.472,16.472,0,0,0,.434-2.125c.138-1.039.233-2.077.328-3.12a40.058,40.058,0,0,0,.19-4.111c-.024-2.7-.111-5.4-.226-8.1-.027-.608-.051-1.208-.079-1.817-.027-.639-.11-1.283-.161-1.919q-.1-1.173-.2-2.35c-.039-.454-.134-.908-.2-1.355-.143-.877-.281-1.749-.419-2.626-.217-1.351-.537-2.69-.853-4.025-.072-.306-.148-.612-.226-.917l.127.131c1.074,1.114,2.144,2.225,3.119,3.425a41.315,41.315,0,0,1,3.3,6.631l-.018-.044.03.071.144.34c-.028-.063-.056-.127-.083-.192.678,1.638,1.372,3.283,2.2,4.849,1.074,2.03,2.188,4.04,3.25,6.078.933,1.781,1.794,3.6,2.662,5.415.809,1.694,1.588,3.4,2.322,5.133.6,1.445,1.2,2.893,1.814,4.334.663,1.555,1.372,3.1,2.063,4.64.35.839.7,1.683,1.017,2.536.383,1.039.719,2.1,1.071,3.156.635,1.919,1.244,3.846,1.907,5.758.7,2.026,1.379,4.06,2.062,6.09q.948,2.826,1.971,5.628c.58,1.608,1.169,3.211,1.753,4.815.719,1.974,1.386,3.965,2.042,5.963q2.052,6.237,4.683,12.264c.784,1.877,1.5,3.784,2.154,5.71.592,1.726,1.09,3.48,1.631,5.222.58,1.872,1.181,3.744,1.686,5.64a56.8,56.8,0,0,1,1.236,6.011c.176,1.36.341,2.724.53,4.088-.02-.127-.036-.249-.052-.372.3,2.741.439,5.5.68,8.247.168,1.933.492,3.881.523,5.829-.041.523-.081,1.047-.113,1.572q-.02.328-.041.657a2.778,2.778,0,0,1-.14.362c.031-.079.063-.154.095-.229-.041.068-.084.135-.127.2-.065.057-.132.113-.2.169l-.519.228c-.283.083-.566.17-.85.253q-.493.113-1,.189c-.89.1-1.777.181-2.672.25-1.039.075-2.089.071-3.132.094-.4.012-.8.008-1.2.008-.526,0-1.047,0-1.568.016-.676.028-1.347.055-2.019.087-.474.016-.951.079-1.421.122-.972.087-1.932.178-2.895.3-1.039.134-2.094.233-3.121.422-1.335.249-2.669.494-4,.743-.364.067-.719.162-1.079.245l-2.259.521c-1.9.442-3.815.873-5.691,1.422a19.887,19.887,0,0,0-2.014.683,15.317,15.317,0,0,0-1.995,1.062c-.9.545-1.8,1.09-2.674,1.691-1.43.985-2.827,2.016-4.2,3.071a.809.809,0,0,0-1.383-.547,11.844,11.844,0,0,0-.881.857c-.371.375-.73.762-1.09,1.149q-1.292,1.374-2.559,2.776c-.49.542-.974,1.086-1.458,1.631-2.466,1.974-4.862,4.043-7.132,6.237-1.339,1.3-2.595,2.67-3.8,4.091-.268.316-.509.664-.762.992-.332.434-.663.877-.991,1.315l-.268.357c.1-1.847.141-3.7.141-5.547q0-4.039.008-8.088c.012-5.17,0-10.348.3-15.506.13-2.247.359-4.487.521-6.73.071-1,.138-1.994.233-2.99.109-1.162.238-2.314.383-3.472.152-1.067.286-2.14.462-3.2.123-.711.237-1.418.383-2.121.13-.624.269-1.244.407-1.868.506-2.3.979-4.594,1.394-6.908.847-4.721,1.177-9.522,1.8-14.275l-.005.029.01-.065.018-.14-.01.078c.186-1.3.405-2.605.646-3.9ZM922.781,388.563l-.145.061.145-.061Zm-53.263,2.082c-.011.079-.021.156-.031.233.01-.078.02-.156.031-.233Zm24.495,1.041.122.017-.122-.017Zm17.515.081-.1.015.1-.015ZM1094.782,436.2c-.885-2.365-1.631-4.782-2.41-7.184-1.354-4.178-2.973-8.262-4.352-12.433q-1.119-3.395-2.247-6.793c-.735-2.224-1.462-4.447-2.2-6.671-.4-1.2-.778-2.413-1.236-3.594q-.3-.773-.617-1.538c.226.491.455.981.692,1.467q.793,1.635,1.588,3.278c.957,1.973,1.836,3.977,2.695,6,.412,1.06.83,2.114,1.214,3.187q.723,1.99,1.414,3.989c.755,2.188,1.462,4.4,2.169,6.607.809,2.52,1.548,5.06,2.306,7.591.683,2.279,1.462,4.534,2.22,6.79,1.318,3.918,2.555,7.858,3.65,11.838-.458-1.314-.943-2.619-1.442-3.92-.272-.712-.579-1.414-.885-2.112-.9-2.15-1.742-4.315-2.563-6.5ZM872.334,413.516l.041.1-.041-.1Zm.1.246c.012.029.024.057.035.086l-.035-.086Zm85.79,144.792c1.58-1.919,3.2-3.8,4.783-5.723q1.422-1.723,2.844-3.444c1.066-1.3,2.081-2.642,3.124-3.957.762-.972,1.572-1.9,2.37-2.848.869-1.027,1.738-2.053,2.622-3.069q3.117-3.571,6.229-7.148c.722-.83,1.429-1.667,2.14-2.5.932-1.1,1.884-2.184,2.8-3.3l3.192-3.91c.9-1.11,1.765-2.263,2.646-3.393.667-.861,1.311-1.737,1.951-2.622.833-1.141,1.69-2.271,2.492-3.432q2.482-3.613,4.98-7.212c1.734-2.488,3.5-4.953,5.257-7.417,1.592-2.224,3.187-4.439,4.751-6.679.771-1.106,1.517-2.227,2.267-3.345.794-1.189,1.537-2.4,2.295-3.618,1.426-2.29,2.8-4.609,4.214-6.9q1.268-2.062,2.54-4.116c.766-1.24,1.576-2.456,2.369-3.681q.9-1.4,1.782-2.812c.521-.825,1.038-1.655,1.556-2.48.276-.443.569-.881.829-1.331q2.192-3.738,4.368-7.484c.6-1.047,1.213-2.086,1.786-3.144q.675-1.245,1.342-2.484c.277-.514.577-1.019.83-1.545q1.036-2.155,2.081-4.309c.608-1.26,1.126-2.559,1.675-3.842.454-1.071.9-2.137,1.315-3.223.541-1.41,1.094-2.82,1.619-4.242q1.442-3.877,2.908-7.75-.444,2.223-.834,4.456c-.229,1.292-.431,2.591-.652,3.886-.209,1.209-.426,2.414-.644,3.622-.466,2.6-1.019,5.178-1.441,7.781-.431,2.642-.68,5.308-.968,7.966-.2,1.854-.416,3.7-.658,5.551-.406,2.543-.86,5.074-1.4,7.585-.244,1.149-.489,2.294-.722,3.444-.273,1.339-.459,2.693-.652,4.048-.17,1.189-.356,2.378-.47,3.57-.13,1.391-.253,2.777-.359,4.167-.1,1.406-.229,2.812-.36,4.214-.114,1.264-.186,2.532-.26,3.8-.155,2.535-.194,5.083-.222,7.622-.027,2.737-.039,5.474-.051,8.207-.008,2.54,0,5.079-.016,7.615-.014,2.35-.127,4.693-.282,7.039q-.693.888-1.412,1.757c-.636.778-1.335,1.508-2.03,2.235-.506.525-1.011,1.05-1.521,1.572a17.034,17.034,0,0,0-1.465,1.6,2.531,2.531,0,0,0-.45.751.782.782,0,0,0-.107.4,1.741,1.741,0,0,0,.229.742c.15.395.435.561.762.861a5.009,5.009,0,0,0,1.9.972,6.09,6.09,0,0,0,.743.13,9.212,9.212,0,0,0,1.495-.012c0,.114-.005.229-.007.344-.007.975-.023,1.955-.031,2.93q-.036,3.609.02,7.224a42.1,42.1,0,0,0,.3,5.194l.012.087c-.1.848-.2,1.7-.285,2.547-.063.624-.087,1.232-.091,1.86.032.3.068.6.107.9.059.193.115.387.17.576a4.176,4.176,0,0,0,.312.624,6.072,6.072,0,0,0,.419.494c.043.036.09.071.134.1a2.266,2.266,0,0,0,.738.45,2.155,2.155,0,0,0,.565.174,3.112,3.112,0,0,0,1.13.023,4.852,4.852,0,0,0,1.564-.639,21.7,21.7,0,0,0,2.283-1.418l.3-.2a9.21,9.21,0,0,0,1.844-.57,4.711,4.711,0,0,0,1.552-1.114c.615-.638,1.183-1.318,1.749-2q.869-.663,1.729-1.336a69.021,69.021,0,0,1,6.21-4.456c1.063-.639,2.157-1.216,3.223-1.848a35.978,35.978,0,0,1,3.27-1.733,30.791,30.791,0,0,1,4.62-1.341,24.73,24.73,0,0,0-2.534,1.317c-.62.363-1.221.762-1.852,1.109a16.728,16.728,0,0,0-1.8,1.09c-.181.131-.355.269-.529.407a6.976,6.976,0,0,0-.849.818,11.911,11.911,0,0,0-1.046,1.37,11.669,11.669,0,0,0-.707,1.244c-.127.249-.245.5-.352.759l-.249.58a13.957,13.957,0,0,0-.458,1.821,10.569,10.569,0,0,0-.111,3.013c.02.3.044.609.068.917.027.383.1.77.158,1.149a9.636,9.636,0,0,0,.521,1.916,9.109,9.109,0,0,0,.537,1.129,5.868,5.868,0,0,0,.656.9,3.5,3.5,0,0,0,.821.722c.126.079.257.154.383.233.2.091.4.178.6.265a6.06,6.06,0,0,0,1.026.166,3.369,3.369,0,0,0,1.347-.253,4.519,4.519,0,0,0,1.509-1.035,9.785,9.785,0,0,0,.916-.983q.422-.522.826-1.055a18,18,0,0,0,1.046-1.579,24.215,24.215,0,0,0,1.343-2.674,14.428,14.428,0,0,0,.857-2.733c.154-.648.3-1.3.423-1.951.083-.422.165-.844.264-1.261q.064.313.119.633c.176,1.343.282,2.686.347,4.04a19.079,19.079,0,0,1-.1,2.725c-.048.282-.1.562-.161.845a10.4,10.4,0,0,1-.386,1.258,11.135,11.135,0,0,1-.874,1.507l.005-.006c-.1.125-.2.249-.3.369a7.584,7.584,0,0,1-.809.763,14.7,14.7,0,0,1-2.347,1.359,11.321,11.321,0,0,1-1.209.367,14.092,14.092,0,0,1-1.656.3c-1,.087-1.99.162-2.992.217s-2,.032-2.994,0c-1.046-.036-2.093-.2-3.132-.328-.462-.055-.92-.118-1.378-.182a3.425,3.425,0,0,0-1.525.036.919.919,0,0,0-.4,1.517c.087.1.17.2.257.3.19.146.383.292.581.434a10.591,10.591,0,0,0,1.082.648,13.494,13.494,0,0,0,2.374,1.141c.612.218,1.224.427,1.844.632.66.221,1.351.372,2.03.53a18.585,18.585,0,0,0,4.348.521,17.062,17.062,0,0,0,2.461-.194,17.8,17.8,0,0,0,3.468-1.066c.339-.126.675-.253,1.007-.4a17.644,17.644,0,0,0,2.018-1.031,22.866,22.866,0,0,0,2.575-1.864,25.922,25.922,0,0,0,2.812-2.536,11.448,11.448,0,0,0,2.35-3.325,19.389,19.389,0,0,0,.66-1.864c.11-.371.185-.755.276-1.13a16.086,16.086,0,0,0,.446-3.226,23.875,23.875,0,0,0-.482-7.347,12.355,12.355,0,0,0-.572-1.662c-.146-.34-.3-.664-.466-.992a5.385,5.385,0,0,0-.382-.6c.608-.084,1.214-.2,1.816-.286a24.178,24.178,0,0,0,3.392-.577,17.988,17.988,0,0,0,3.4-1.4,15.529,15.529,0,0,0,1.39-.865c.27-.18.53-.377.785-.581a12.464,12.464,0,0,0,.467,1.616,62.927,62.927,0,0,0,2.974,6.524c.47.925.963,1.845,1.493,2.737.695,1.177,1.457,2.307,2.231,3.433.593.861,1.193,1.718,1.773,2.59.64.968,1.213,1.995,1.8,3,.947,1.639,1.907,3.278,2.977,4.842.49.711.968,1.43,1.442,2.153.588.9,1.137,1.813,1.679,2.737,1.078,1.84,2.164,3.677,3.282,5.493.568.929,1.157,1.841,1.718,2.773.6.987,1.181,1.987,1.781,2.974a32.291,32.291,0,0,0,3.408,4.747c1.446,1.627,3.049,3.1,4.574,4.653,1.465,1.493,2.8,3.12,4.131,4.727.675.818,1.363,1.628,2.038,2.445.562.682,1.1,1.384,1.64,2.081.936,1.249,1.855,2.518,2.685,3.839.868,1.383,1.765,2.741,2.709,4.068.466.66.952,1.3,1.41,1.959q.741,1.066,1.418,2.173a41.408,41.408,0,0,1,2.4,4.589,21.4,21.4,0,0,1,.976,3.013c.158.668.3,1.335.422,2.011.111.6.2,1.2.293,1.8-.007-.052-.014-.1-.022-.157.15,1.114.308,2.231.369,3.352.028.509.04,1.015.043,1.524a13.031,13.031,0,0,1-.081,1.381,13.2,13.2,0,0,1-.309,1.455c-.123.437-.279.857-.444,1.279q-.722,1.482-1.555,2.908a30.13,30.13,0,0,1-2.076,3.044c-.2.254-.391.506-.585.76a33.188,33.188,0,0,1-4.789,5.147,34.594,34.594,0,0,1-2.977,2.008c-1.263.767-2.519,1.549-3.815,2.26-2.528,1.388-5.151,2.6-7.8,3.73l.066-.026c-.631.263-1.256.53-1.883.8-.505.2-1.011.4-1.528.564-.02-.03-.04-.06-.061-.089a2.335,2.335,0,0,0-.177-.248c.929-1.167,1.85-2.346,2.721-3.559a31.3,31.3,0,0,0,2.445-3.725,7.934,7.934,0,0,0,1.011-2.725A4.884,4.884,0,0,0,1119,635.7a3.516,3.516,0,0,0-.138-.664,2.85,2.85,0,0,0-.948-1.181,3.265,3.265,0,0,0-2.7-.857c-.513.1-1,.194-1.5.316a8.123,8.123,0,0,0-1.169.427,11.875,11.875,0,0,0-3.417,2.2,18.414,18.414,0,0,0-1.666,1.722,20.177,20.177,0,0,0-1.276,1.576c-.8,1.161-1.552,2.35-2.279,3.558-.407.679-.81,1.367-1.22,2.05-.37.609-.772,1.189-1.2,1.764-.135.169-.272.337-.415.5a7.742,7.742,0,0,1-.87.848c-.12.088-.238.176-.358.262a5.208,5.208,0,0,1-.925.528c-.5.18-.97.334-1.476.479a11.409,11.409,0,0,1-1.4.253c.068-.012.139-.02.21-.032-.648.028-1.288.048-1.935.016-.456-.027-.9-.061-1.36-.1-.363-.053-.726-.109-1.085-.178a11.982,11.982,0,0,1-1.973-.549,19.83,19.83,0,0,1-1.767-.932,13.679,13.679,0,0,1-1.305-.926c-.4-.323-.81-.65-1.2-.993a13.086,13.086,0,0,1-1.327-1.388,12.558,12.558,0,0,1-.722-1.4c-.14-.36-.275-.717-.408-1.082-.14-.392-.248-.74-.361-1.129q.089-.816.186-1.631c.1-.656.209-1.315.309-1.971.115-.727.316-1.45.478-2.168.048-.214.119-.423.182-.632.15-.49.3-.98.442-1.469.107-.348.269-.7.4-1.035.119-.311.253-.617.379-.92-.01.026-.02.052-.031.078q.39-.882.786-1.765c.13-.288.284-.573.426-.853.087-.17.2-.32.285-.49a.434.434,0,0,0-.68-.521,2.718,2.718,0,0,0-.288.367c-.19.269-.379.541-.569.81a22.88,22.88,0,0,0-1.457,2.5,16.423,16.423,0,0,0-1,2.358c-.312.932-.6,1.864-.865,2.812a14.671,14.671,0,0,0-.478,3.156,7.1,7.1,0,0,0,.407,2.578c-.031.325-.057.65-.075.976-.036.6-.06,1.2-.064,1.8a8.428,8.428,0,0,0,.06,1.22c.031.233.063.466.094.7a6.967,6.967,0,0,0,.32,1.122,4.5,4.5,0,0,0,.826,1.438,5.868,5.868,0,0,0,.774.754c.15.119.3.229.45.34.687.493,1.426.916,2.129,1.382.32.213.632.427.956.632a7.5,7.5,0,0,0,1.137.644,8.154,8.154,0,0,0,1.556.549,8.888,8.888,0,0,0,1.671.284c.853.067,1.7.1,2.551.126a33.061,33.061,0,0,0,6.422-.5,23,23,0,0,0,5.364-1.627,9.2,9.2,0,0,0,2.034-1.328q.745-.585,1.445-1.22c.5-.455.937-.975,1.4-1.471a1.115,1.115,0,0,0,.038.219,1.335,1.335,0,0,0,.308.466,1.147,1.147,0,0,0,.553.257,2.237,2.237,0,0,0,.969-.024c.2.643.356,1.3.5,1.955.174.786.344,1.572.5,2.362.177.893.335,1.789.509,2.686.2,1.042.47,2.073.735,3.1.205.79.458,1.564.726,2.334.277.806.644,1.588.988,2.366.426.964.861,1.923,1.327,2.871.4.81.8,1.621,1.173,2.441.137.339.265.676.387,1.023a11,11,0,0,1,.347,1.441c.126.586.219,1.178.309,1.771a16.9,16.9,0,0,1,.118,1.772c0,.68-.041,1.348-.1,2.023-.1.707-.219,1.4-.374,2.1a3.1,3.1,0,0,0-.595-.6,2.1,2.1,0,0,0-.624-.387c-.2-.071-.4-.146-.6-.217-.292-.063-.588-.115-.888-.15a5.319,5.319,0,0,0-1.485-.059c-.237.047-.47.09-.7.138a14.225,14.225,0,0,0-1.6.521c-.4.142-.8.32-1.193.486-.371.162-.742.32-1.113.478s-.7.34-1.039.513c-1.082.545-2.145,1.154-3.172,1.793q-1.7,1.06-3.4,2.129c-2.555,1.6-5.123,3.2-7.579,4.953a68.207,68.207,0,0,0-6.438,4.988c-1.023.936-2.038,1.88-3.081,2.792a19.217,19.217,0,0,0-1.9,1.718q-.711.806-1.4,1.624c-.842,1-1.631,2.053-2.568,2.966a38.972,38.972,0,0,1-3.081,2.649c-.757.574-1.517,1.145-2.27,1.723s-1.54,1.118-2.236,1.761a6.094,6.094,0,0,0-.916,1,5.109,5.109,0,0,0-.588.991l-.19.478a5.005,5.005,0,0,0-.229,1.035,4.833,4.833,0,0,0-.012,1.165c0,.051.012.1.02.154.108.273.223.547.339.82q-.372.065-.742.135c-.359.064-.715.143-1.07.233-.2.083-.4.178-.6.277a.734.734,0,0,0-.339.841,1.174,1.174,0,0,0,.415.636,6.645,6.645,0,0,0,1.413.743c.794.323,1.588.647,2.39.959,1.777.691,3.61,1.264,5.438,1.8,1.734.51,3.488.944,5.226,1.43,1.054.3,2.1.6,3.139.932.407.13.8.3,1.193.446.459.178.918.356,1.374.54,1.62.712,3.226,1.464,4.847,2.178.857.379,1.714.766,2.6,1.082a18.51,18.51,0,0,0,3.188.861,14.353,14.353,0,0,0,1.643.179q-.263.287-.526.571c-.355.383-.707.758-1.09,1.114s-.82.686-1.243,1.013l.007-.006c-.494.371-.991.739-1.465,1.134-.64.529-1.256,1.086-1.876,1.639-.589.517-1.15,1.066-1.694,1.631-.34.351-.656.711-.964,1.09a8.931,8.931,0,0,0-1.09,1.88,10.463,10.463,0,0,0-.766,2.832c-.107.683-.17,1.382-.214,2.073a21.977,21.977,0,0,0,0,2.267c.032.861.1,1.722.206,2.575.1.794.237,1.576.407,2.358.181.814.45,1.607.7,2.4s.522,1.58.786,2.37c.289.853.632,1.683.933,2.528.268.742.552,1.477.793,2.223.293.893.549,1.793.81,2.694.2.691.387,1.386.581,2.081.23.846.364,1.723.519,2.589.13,1.017.249,2.03.346,3.055.1,1.074.161,2.149.213,3.227.059,1.193.1,2.385.11,3.582a29.331,29.331,0,0,1-.158,3.179,1.034,1.034,0,0,0,.016-.11,3.239,3.239,0,0,1-.426,1.548c.016-.036.027-.067.043-.1a13.015,13.015,0,0,1-.833,1.414c-.312.478-.636.948-.98,1.4.024-.027.048-.059.071-.087-.9,1.138-1.848,2.236-2.772,3.35-.486.588-.98,1.165-1.5,1.726a13.752,13.752,0,0,1-1.445,1.316c-.575.388-1.157.746-1.766,1.077-.424.235-.855.444-1.294.652-.961.391-1.946.715-2.928,1.046-.628.214-1.252.423-1.88.62-.557.174-1.13.308-1.7.455a79.1,79.1,0,0,1-7.993,1.573c-1.6.182-3.192.336-4.788.516-.877.1-1.745.257-2.614.391-.806.122-1.608.262-2.411.4-1.259.153-2.515.3-3.774.416-1.339.127-2.674.237-4.013.324-2.666.174-5.332.336-7.99.609-2.587.264-5.193.458-7.8.466-1.248,0-2.5-.044-3.744-.1-1.363-.059-2.726-.182-4.084-.289-2.682-.213-5.368-.3-8.045-.505-2.706-.209-5.4-.517-8.089-.865-2.464-.32-4.937-.6-7.413-.833-1.3-.123-2.595-.178-3.89-.253-1.517-.087-3.034-.138-4.55-.178-.707-.02-1.414-.024-2.121-.047q-1.322-.048-2.634-.142c-1.778-.127-3.555-.277-5.324-.462-3.464-.353-6.93-.705-10.386-1.139-2.466-.339-4.929-.742-7.379-1.172-2.639-.462-5.285-.861-7.923-1.307-2.551-.431-5.1-.9-7.646-1.331-2.623-.451-5.253-.857-7.887-1.252-2.706-.407-5.427-.751-8.128-1.2s-5.4-.924-8.089-1.426c-1.2-.221-2.39-.442-3.582-.679-1.367-.272-2.725-.569-4.088-.845-2.579-.522-5.174-.964-7.761-1.438-1.639-.3-3.266-.624-4.885-1-1.418-.332-2.824-.731-4.222-1.13-3.172-.908-6.319-1.9-9.511-2.729-1.619-.422-3.258-.77-4.893-1.121-1.6-.344-3.215-.648-4.783-1.1s-3.132-.94-4.668-1.5c-1.616-.589-3.213-1.23-4.8-1.893l.071.029c-1.965-.837-3.922-1.69-5.894-2.508q-.59-.252-1.183-.5c.083.036.166.067.248.1l-2.33-.984.095.04c-1.3-.549-2.595-1.122-3.867-1.734-.62-.3-1.228-.616-1.832-.948-.344-.193-.668-.391-1-.6-.316-.209-.613-.45-.917-.679.068.047.131.1.194.146-.352-.3-.7-.593-1.027-.905a10.5,10.5,0,0,1-.938-1.05c-.146-.242-.3-.485-.444-.727-.133-.246-.258-.5-.368-.761l.02.046a31.939,31.939,0,0,1-1.17-4.817c-.061-.492-.11-.982-.145-1.478a9.219,9.219,0,0,1,.1-1.876l0,.039a5.751,5.751,0,0,1,.245-.936c.079-.241.158-.478.237-.715.135-.413.311-.817.475-1.223.168-.354.336-.709.5-1.063.186-.387.423-.759.632-1.138s.474-.75.711-1.125c.225-.351.477-.687.713-1.03.278-.348.551-.7.851-1.032.415-.446.825-.889,1.248-1.319a29.035,29.035,0,0,1,2.31-2.052c1.325-1,2.669-1.963,4-2.956.518-.383,1.039-.766,1.533-1.177q.542-.453,1.076-.912c.167.025.335.049.5.071.576.075,1.149.126,1.725.173a10.319,10.319,0,0,0,2.042-.059,12.385,12.385,0,0,0,2.2-.5,18.35,18.35,0,0,0,2.816-1.142c.585-.288,1.169-.573,1.742-.888,1.256-.7,2.5-1.411,3.713-2.181a65.248,65.248,0,0,0,6.267-4.692c1.284-1.05,2.52-2.164,3.725-3.3.644-.613,1.287-1.221,1.911-1.853a19.813,19.813,0,0,0,1.667-1.982c.431-.565.829-1.158,1.236-1.742a10.527,10.527,0,0,0,.814-1.335c.166-.332.343-.648.525-.972a8.131,8.131,0,0,0,.486-1.188c.1-.22.2-.441.284-.668.145-.392.26-.784.37-1.185,2.936-1.929,5.905-3.811,8.86-5.711q1.8-1.158,3.6-2.323c.156.071.314.139.474.2a14.611,14.611,0,0,0,1.813.609,17.358,17.358,0,0,0,3.78.679,7.1,7.1,0,0,0,1.7-.122c.873-.162,1.722-.364,2.579-.6a12.818,12.818,0,0,0,1.8-.62c.541-.229,1.07-.486,1.588-.766s1.023-.585,1.52-.9a36.712,36.712,0,0,0,3.772-2.781,47,47,0,0,0,4.139-3.942c.687-.718,1.323-1.489,1.967-2.247.3-.355.584-.691.869-1.05.628-.794,1.256-1.584,1.884-2.378.584-.735,1.106-1.517,1.654-2.275.34-.47.632-.991.948-1.481.261-.415.5-.849.743-1.272a16.876,16.876,0,0,0,1.5-3.475,22.294,22.294,0,0,0,.513-2.342,16.934,16.934,0,0,0,.261-2.176,14.283,14.283,0,0,0-.257-3.038,14.616,14.616,0,0,0-1.126-3.425c.209-.559.394-1.118.561-1.7a8.6,8.6,0,0,0,.32-1.647,6.852,6.852,0,0,0,.016-1.781c-.039-.225-.083-.455-.126-.68a11.332,11.332,0,0,0-.419-1.327,13.1,13.1,0,0,0-.624-1.4c-.107-.2-.213-.407-.32-.612a7.533,7.533,0,0,0-.794-1.362,5.275,5.275,0,0,0-1.09-1.051,5.614,5.614,0,0,0-1.631-.889c-.28-.1-.557-.2-.837-.3a17.348,17.348,0,0,0-1.738-.446c-.4-.092-.8-.171-1.212-.237l-1.723-2.469c-.726-1.042-1.492-2.057-2.239-3.088-.727-1-1.426-2.018-2.133-3.029-.6-.861-1.137-1.766-1.69-2.658q-.4-.647-.8-1.292c-.3-.482-.565-.995-.845-1.489-.569-1.007-1.118-2.018-1.655-3.041-.5-.946-.93-1.925-1.372-2.9-.388-1.008-.8-2.01-1.14-3.038-.245-.751-.485-1.5-.73-2.251a27.077,27.077,0,0,1-.939-4.094c-.178-1.391-.281-2.787-.408-4.181-.119-1.35-.127-2.713-.127-4.064a44.7,44.7,0,0,1,.42-5.677c.145-.922.309-1.837.5-2.751.173-.829.4-1.647.624-2.464.486-1.793,1.133-3.535,1.777-5.273.453-1.227.958-2.433,1.44-3.648.276-.6.551-1.2.827-1.8.553-1.209,1.145-2.39,1.773-3.563,1.059-1.986,2.334-3.858,3.583-5.727.367-.544.762-1.074,1.145-1.611q3-4.23,5.991-8.476c1.545-2.192,3-4.447,4.522-6.658q1.641-2.388,3.282-4.779c.805-1.174,1.665-2.313,2.5-3.463q2.679-3.344,5.4-6.656Zm80.578-120.772-.1.227c.032-.076.064-.152.1-.227Zm2.178,21.072c-.009.064-.017.128-.025.192.007-.065.014-.127.025-.192Zm60.339,7.921c.015.114.03.229.044.343-.016-.114-.03-.228-.044-.343ZM927.062,484c.01.074.019.147.028.22-.01-.073-.02-.147-.028-.22ZM1101.1,490.16a8.048,8.048,0,0,0,1.572-.493c-.051.3-.108.592-.173.885a3.781,3.781,0,0,0-.661-.194c-.312-.04-.62-.083-.932-.123q-.233.023-.464.048c.218-.038.434-.079.658-.123Zm-10.77.972c1.342-.087,2.681-.154,4.024-.229,1.276-.067,2.548-.154,3.815-.3.486-.055.967-.12,1.448-.189a3.112,3.112,0,0,0-.5.181,7.494,7.494,0,0,0-1.453.711,7.214,7.214,0,0,0-2.117,2.192,16.832,16.832,0,0,0-1.426,2.531,13.129,13.129,0,0,0-.6,1.675c-.206.632-.371,1.276-.557,1.916-.344,1.208-.683,2.413-.98,3.637-.343,1.394-.631,2.8-.924,4.21-.177.841-.374,1.682-.586,2.517-.624.063-1.25.1-1.876.107l-.149-.154-.23-.378a4.052,4.052,0,0,1-.259-1.148c.008.063.016.131.024.194-.115-1.556-.135-3.109-.17-4.665-.036-1.41-.091-2.82-.146-4.23a26.477,26.477,0,0,0-.376-3.819,4.486,4.486,0,0,0-.742-1.453,2.2,2.2,0,0,0-.557-.557.749.749,0,0,0-.359-.209l-.423-.142c-.237-.032-.47-.06-.707-.08a4.9,4.9,0,0,0-.766.06,5.326,5.326,0,0,0-1.161.272l-.225.095a4.611,4.611,0,0,0-1.181.624c-.265.2-.526.415-.778.636a10.313,10.313,0,0,0-.68.81,35.872,35.872,0,0,0-2.255,4.008c-.648,1.327-1.291,2.666-1.84,4.037q-.486,1.207-.972,2.413c-.28.7-.505,1.418-.754,2.129-.191.548-.347,1.108-.514,1.663-.8.105-1.595.247-2.388.4.048-2.638.36-5.277.659-7.9.163-1.032.307-2.07.517-3.093.122-.612.249-1.225.371-1.833a14.5,14.5,0,0,0,.261-1.88c-.008-.063-.02-.126-.028-.189a2.6,2.6,0,0,0-.237-.909.715.715,0,0,0-.253-.253l-.1-.07.413-.107c1.707-.439,3.417-.861,5.131-1.28,1.572-.387,3.163-.671,4.751-.983,1.382-.273,2.784-.427,4.175-.628l-.324.047c1.335-.142,2.666-.3,4.005-.383Zm-163.158.537c-.014.1-.027.2-.042.293.012-.1.027-.2.042-.293Zm174.414.557c-.083-.008-.166-.02-.253-.032a5.481,5.481,0,0,1,.713.184c-.03.141-.057.282-.073.425-.026.247-.051.488-.08.732-.012.091-.024.182-.035.275.008-.067.016-.131.024-.2-.059.391-.123.782-.186,1.173a14.678,14.678,0,0,1-.375,1.541c-.087.312-.138.632-.209.948-.075.331-.162.655-.261.979-.18.612-.414,1.224-.651,1.816-.314.719-.616,1.437-.916,2.162q-.608,1.413-1.225,2.811c-.2.458-.415.909-.644,1.351a10.384,10.384,0,0,1-.94,1.446c-.714.4-1.449.754-2.2,1.089a19.08,19.08,0,0,1-1.912.666q.078-.3.153-.594c.481-1.916.857-3.859,1.374-5.771.249-.928.517-1.848.794-2.768.357-1.192.7-2.388,1.139-3.555q.387-.814.847-1.591.415-.652.877-1.268c-.051.063-.1.13-.154.2a7.127,7.127,0,0,1,.9-1l.356-.257a6.636,6.636,0,0,1,1.217-.62c-.079.032-.154.067-.233.1.256-.083.513-.17.77-.253l-.257.036a3.187,3.187,0,0,1,1.434-.024Zm.866.3.031.013.011.005-.042-.018Zm.952.469a2.638,2.638,0,0,1,.495.46c.076.1.155.209.234.312a5.592,5.592,0,0,1,.594,1.011,5.838,5.838,0,0,1,.254.928,9.347,9.347,0,0,1-.065,1.428,10.971,10.971,0,0,1-.641,2.506,16.854,16.854,0,0,1-1.448,2.295c-.608.774-1.249,1.518-1.905,2.247q-.58.652-1.189,1.268a9.667,9.667,0,0,1-.857.775h0c.241-.521.447-1.054.664-1.584.229-.572.474-1.137.707-1.71.226-.553.433-1.115.662-1.669.33-.767.617-1.542.91-2.328.32-.857.5-1.753.778-2.626.2-.628.47-1.232.624-1.876a8.356,8.356,0,0,0,.182-1.414l.039.024-.039-.031V493Zm.461.413.032.045-.032-.045Zm.035.047c.034.041.067.083.1.127-.035-.041-.067-.083-.1-.127Zm-20.249,1.912a4.548,4.548,0,0,1,1.082-.229c-.075.012-.154.019-.229.031.131,0,.26,0,.39,0l.167.038.237.187c-.044-.055-.087-.106-.126-.161a3.53,3.53,0,0,1,.718,1.24c-.027-.059-.051-.123-.079-.182.045.214.089.432.133.65.2,1.725.28,3.46.341,5.2q.078,1.979.135,3.958c.023.833.063,1.666.126,2.5.008.063.02.126.028.189a4.093,4.093,0,0,0,.3,1.257q-1.062-.041-2.123-.1c-1.217-.055-2.433-.122-3.649-.161-1.245-.04-2.485-.072-3.729.011-.545.037-1.09.084-1.633.136.2-.581.391-1.163.594-1.743.456-1.286.982-2.546,1.488-3.812a62.8,62.8,0,0,1,3.667-7.4c-.052.067-.107.138-.162.206a4.926,4.926,0,0,1,1.05-1.13l-.2.154a5.276,5.276,0,0,1,1.048-.674c.143-.056.284-.112.425-.171Zm-12.527.155.169.038.078.375c-.021.215-.042.431-.064.646-.175.878-.365,1.751-.555,2.625-.13.6-.229,1.212-.332,1.82-.1.561-.205,1.122-.276,1.687q-.166,1.3-.332,2.6c-.174,1.343-.269,2.7-.383,4.044-.042.516-.072,1.035-.085,1.551-.808.174-1.613.377-2.407.6-.51.138-1.019.276-1.525.434-.64.194-1.264.434-1.884.675a30.571,30.571,0,0,0-3.242,1.509c-.976.521-1.932,1.082-2.9,1.627l-.067.037c.16-.373.311-.772.438-1.079s.229-.589.34-.881c.5-1.3.991-2.6,1.481-3.9l-.019.041c.339-.79.679-1.577,1.018-2.368a25.891,25.891,0,0,1,3.325-5.4c.83-1.027,1.65-2.081,2.532-3.064.3-.336.608-.676.912-1.015a17.9,17.9,0,0,1,1.489-1.426l.533-.395a6.522,6.522,0,0,1,1.011-.562,3.047,3.047,0,0,1,.74-.215Zm-.585.149-.154.066c.051-.023.1-.045.154-.066Zm-8.29,3.807c.8-.576,1.607-1.141,2.436-1.67s1.649-1.075,2.506-1.56c-.054.051-.107.1-.16.154-.47.466-.924.936-1.37,1.421-1.185,1.3-2.306,2.674-3.385,4.061a28.4,28.4,0,0,0-2.176,3.286,27.227,27.227,0,0,0-1.26,2.662c-.213.5-.43,1.007-.648,1.512-.272.628-.489,1.284-.73,1.924-.464,1.242-.929,2.484-1.425,3.716-.108.235-.213.473-.321.707a5.134,5.134,0,0,1-.589.992,3.913,3.913,0,0,1-.432.44l-.214.137-.087.033-.107.008-.064-.012-.125-.061a1.936,1.936,0,0,1-.376-.431c.035.047.075.1.11.142a4.95,4.95,0,0,1-.385-.723,8.765,8.765,0,0,1-.377-1.181c-.064-.264-.105-.532-.15-.8a8.239,8.239,0,0,1-.044-1.333c0-.267.04-.541.064-.808.076-.491.156-.974.256-1.459.1-.466.206-.921.316-1.387a19.042,19.042,0,0,1,.689-2.174q.5-1.134,1.035-2.25c.672-.525,1.329-1.068,2-1.6,1.663-1.261,3.326-2.52,5.013-3.747Zm40.7,2.3-.042.054.042-.054Zm-31.3.949c0,.022-.007.044-.01.066l.01-.066Zm-18.937,4.008c-.08.206-.158.413-.232.624a24,24,0,0,0-.8,3.293,11.474,11.474,0,0,0-.111,4.171,8.477,8.477,0,0,0,.545,1.856,7.714,7.714,0,0,0,.5.976,2.34,2.34,0,0,0,.393.478c-.751.409-1.5.823-2.241,1.252-2.295,1.327-4.6,2.638-6.809,4.107-1.047.7-2.106,1.394-3.148,2.1q-1.091.741-2.18,1.478c-.474.319-.949.63-1.437.919l.007-.157c.025-.549.056-1.1.091-1.644q.274-.591.557-1.18c.45-.932.944-1.837,1.437-2.745.277-.506.609-.987.909-1.477.241-.4.505-.77.77-1.149.7-1,1.414-1.985,2.144-2.969,1.868-2.318,3.793-4.589,5.749-6.834,1.274-1.049,2.564-2.078,3.86-3.1Zm1.452.433c-.011.026-.022.051-.034.076l.034-.076Zm5.37,2.883-.024.056.024-.056Zm17.847,2.45c1.331-.1,2.666-.079,4-.06,1.2.02,2.4.056,3.6.08,1.138.019,2.279.063,3.416.031.479-.015.955-.043,1.43-.087-.163.615-.347,1.221-.474,1.845-.241,1.153-.478,2.31-.675,3.467a35.842,35.842,0,0,0-.411,3.677c-.087,1.244-.118,2.5-.154,3.74-.039,1.3-.067,2.595-.043,3.891a23.964,23.964,0,0,0,.222,2.8,20.841,20.841,0,0,1-3.521,2.007,15.023,15.023,0,0,1-2.018.643c-.736.169-1.469.3-2.213.4-1.2.123-2.4.235-3.608.362-.83.091-1.659.205-2.485.334-.2-.047-.391-.09-.584-.136-.316-.071-.64-.127-.96-.166-.5-.059-.987-.1-1.485-.13a12,12,0,0,0-1.418.047,20.426,20.426,0,0,0-3.044.509c-1.936.415-3.843.992-5.731,1.58a39.3,39.3,0,0,0-5.549,2.161,27,27,0,0,0-4.921,2.859,19.735,19.735,0,0,0-2.188,1.963c-.624.656-1.2,1.359-1.762,2.069-.525.664-1.05,1.327-1.592,1.979l-.224.27c-.757.563-1.515,1.126-2.283,1.677-.2.144-.4.286-.6.428-.358.1-.72.187-1.091.259l-.289.036a4.837,4.837,0,0,1-1.141-.024,10.608,10.608,0,0,1-1.091-.3c.06.028.119.052.182.079a6.2,6.2,0,0,1-1.116-.577,3.176,3.176,0,0,1-.327-.318,7.431,7.431,0,0,1-.692-1.254,9.3,9.3,0,0,1-.4-1.691c-.015-.119-.03-.238-.043-.357.132-1.041.272-2.08.378-3.125.134-1.351.277-2.7.363-4.052.08-1.264.111-2.532.127-3.8q.031-2.628.126-5.26a13.807,13.807,0,0,0,2.1-1.17l2.943-1.935c1.8-1.189,3.645-2.322,5.49-3.448.825-.505,1.69-.948,2.535-1.418.881-.489,1.762-.975,2.658-1.441,1.872-.98,3.756-1.924,5.636-2.887.758-.387,1.505-.8,2.251-1.217.923-.508,1.874-.959,2.834-1.393.848-.345,1.706-.673,2.585-.933.762-.225,1.536-.423,2.307-.616.332-.084.666-.163,1-.239l.011.069a3.863,3.863,0,0,0,.2.893c.032.071.059.138.087.2a3.1,3.1,0,0,0,.5.948,1.852,1.852,0,0,0,.6.592l.284.166a1.065,1.065,0,0,0,.506.138.984.984,0,0,0,.916-.241c.107-.1.21-.2.316-.3a3.633,3.633,0,0,0,.4-.6c.28-.45.513-.92.75-1.394s.467-.921.682-1.391c.9-.1,1.795-.185,2.695-.252Zm-5.092.6-.015.034c-.219.5-.462.989-.723,1.474a2.719,2.719,0,0,1-.331-.641c.028.067.055.134.087.205a5.173,5.173,0,0,1-.232-.85q.606-.117,1.214-.222Zm-.53,1.766.01.013-.011-.012ZM989.527,516.6l-.064.081.064-.081Zm65.6.09c-.036.048-.074.1-.112.142.037-.048.075-.1.112-.142Zm34.968,2.54-.008.055.008-.055Zm-51.968,1.524q.18-.215.358-.431c-.308.509-.6,1.028-.882,1.551.014-.183.029-.365.043-.548l.481-.572ZM1033,526.188c.858-.841,1.723-1.671,2.56-2.532.133-.137.266-.276.4-.416-.061.782-.121,1.564-.17,2.348q-.042.094-.081.189c-.217.514-.454,1.019-.636,1.548a14.561,14.561,0,0,0-.513,1.782l-.011.055a7.444,7.444,0,0,1-.925.17l.252-.036c-.177.016-.351.028-.529.044a4.552,4.552,0,0,1-1.007-.064c.079.008.162.02.241.032a4.32,4.32,0,0,1-1.039-.312l.206.083c-.176-.1-.356-.2-.532-.3l-.352-.283-.015-.033a1.979,1.979,0,0,1,.255-.358c-.044.052-.083.1-.123.154.62-.742,1.331-1.394,2.022-2.073Zm39.172,12.425c1.121-.29,2.257-.5,3.4-.688.259.019.519.028.78.025a2.422,2.422,0,0,1,.378.442c-.031-.044-.067-.087-.1-.13.185.268.359.533.533.813a6.017,6.017,0,0,1,.419.876,18.28,18.28,0,0,1,.568,1.81,12.082,12.082,0,0,1,.243,1.376,23.817,23.817,0,0,1,.089,2.988c-.053,1.236-.114,2.468-.265,3.7a23.756,23.756,0,0,1-1.065,3.831c-.058.13-.115.261-.175.392a5.955,5.955,0,0,1-.711,1.165c-.158.237-.347.454-.517.679.039-.055.083-.11.126-.166a20.1,20.1,0,0,1-1.512,1.564c-.606.547-1.223,1.068-1.851,1.584q-.53.4-1.064.806a19.231,19.231,0,0,1-3.077,1.872c-.68.275-1.369.521-2.061.766-.439.154-.853.288-1.3.427a11.823,11.823,0,0,1-1.689.365,18.174,18.174,0,0,1-3.746-.049,28.706,28.706,0,0,1-5.956-1.586q.513.065,1.028.116a33.7,33.7,0,0,0,3.981.115,29.485,29.485,0,0,0,4.633-.466,10.5,10.5,0,0,0,3.171-1.177,10.118,10.118,0,0,0,1.623-1.086,8.736,8.736,0,0,0,1.343-1.41,9.961,9.961,0,0,0,.861-1.41,9.669,9.669,0,0,0,.885-3.969,16.07,16.07,0,0,0-.055-1.888c-.04-.735-.147-1.47-.237-2.2a23.8,23.8,0,0,0-.692-3.654,3.321,3.321,0,0,0-.438-.936,1.023,1.023,0,0,0-.644-.379.643.643,0,0,0-.77.439,11.389,11.389,0,0,0-.411,1.575c-.1.494-.209.992-.312,1.486a32.062,32.062,0,0,1-.914,3.462,26.449,26.449,0,0,1-1.218,2.47,22.248,22.248,0,0,1-1.274,1.977c-.308.391-.626.772-.95,1.147a10.282,10.282,0,0,1-1.317,1.256,3.154,3.154,0,0,1-.512.3c-.125.035-.246.074-.371.109.067-.011.138-.019.205-.027a2.673,2.673,0,0,1-.773.039,2.439,2.439,0,0,1-.4-.1,3.337,3.337,0,0,1-.733-.483c.059.047.118.1.178.138a4.416,4.416,0,0,1-.5-.515,7.453,7.453,0,0,1-.6-1.036,9.464,9.464,0,0,1-.386-1.194c-.077-.314-.133-.626-.185-.942a20.071,20.071,0,0,1-.094-3.765c.018-.12.035-.24.053-.36a13.866,13.866,0,0,1,.469-1.752,15.275,15.275,0,0,1,1.365-2.423,9.508,9.508,0,0,1,1.18-1.244,10.837,10.837,0,0,1,1.386-.845c.533-.269,1.094-.5,1.631-.762s1.075-.545,1.608-.83c.343-.185.691-.375,1.039-.557.461-.245.942-.447,1.418-.658a35.47,35.47,0,0,1,4.273-1.419Zm-189.15,7.468c-.046.063-.092.122-.14.183.047-.061.094-.121.14-.183Zm153.45,2.445.021.048-.021-.048Zm-.849,2.824a8.015,8.015,0,0,1,.047-1.072,3.14,3.14,0,0,0,.451.665,4.238,4.238,0,0,0,1.291.964,8.541,8.541,0,0,0,1.015.415,5.081,5.081,0,0,0,.94.224q-.584.346-1.184.661c-.175.068-.351.135-.526.2l.174-.024a2.3,2.3,0,0,1-.956,0l.174.024c-.133-.039-.266-.074-.4-.113a2.331,2.331,0,0,1-.581-.4c.048.036.091.071.135.107l-.211-.251-.177-.346-.129-.486c-.019-.191-.038-.38-.06-.572Zm1.053,1.958c.041.018.084.034.124.052-.042-.016-.083-.033-.124-.052Zm23.2,3.876.161.066c-.054-.02-.108-.042-.161-.066Zm1.5.071c-.051.023-.1.046-.154.067.05-.024.1-.045.154-.067Zm-.916.11c.071.008.142.016.213.028a2.134,2.134,0,0,1-.213-.028Zm12.192,1.4-.049.037.049-.037Zm-11.073.835-.211.03.211-.03Zm66.521,34.071.074.1-.074-.1ZM924.9,615.127c-.01.085-.022.172-.034.26.011-.087.022-.173.034-.26Zm191.142,19.24a3.081,3.081,0,0,1,.788.278c-.051-.023-.1-.043-.158-.067.147.089.295.174.442.262.124.1.245.2.369.3l.237.318.087.336a4.673,4.673,0,0,1-.053.981c.008-.055.016-.107.02-.162a5.358,5.358,0,0,1-.331,1.137,18.422,18.422,0,0,1-1.008,1.841c-.316.5-.652.987-.995,1.465-.72,1-1.47,1.978-2.217,2.958l.025-.031-.035.044-.072.094.059-.078q-.528.669-1.062,1.342c-.208.264-.437.525-.649.8a1.651,1.651,0,0,0-.572.348c-.316.285-.608.593-.9.905-.328.355-.656.711-1,1.05-.377.366-.779.7-1.181,1.03-.19.148-.383.3-.577.44-.221.165-.446.331-.671.5a5.8,5.8,0,0,1-1.05.589,23.077,23.077,0,0,1-6.093,1.674,33.773,33.773,0,0,1-3.434.316,39.841,39.841,0,0,1-4.451-.122,1.116,1.116,0,0,1,.122.016,9.98,9.98,0,0,1-1.548-.269,8.087,8.087,0,0,1-1.556-.549c.04.016.075.032.111.044-.747-.423-1.45-.889-2.161-1.367-.687-.464-1.4-.889-2.067-1.374-.1-.076-.194-.153-.291-.234a3.72,3.72,0,0,1-.53-.528c-.081-.116-.166-.236-.248-.356a4.179,4.179,0,0,1-.446-.857c.016.039.032.079.047.114-.059-.174-.114-.347-.173-.525a6.482,6.482,0,0,1-.241-1.3c0,.043.012.083.016.126-.03-.551-.045-1.1-.04-1.649a4.687,4.687,0,0,0,.648,1.108c.332.4.671.786,1.027,1.161a17.13,17.13,0,0,0,2.022,1.722c.367.284.742.549,1.129.81a13.883,13.883,0,0,0,1.833.987,10.787,10.787,0,0,0,2.962.81,21.39,21.39,0,0,0,2.6.253c.221,0,.442.007.663.015a7.57,7.57,0,0,0,1.525-.118,9.017,9.017,0,0,0,1.11-.213l.541-.143a10.2,10.2,0,0,0,1.6-.639,6.357,6.357,0,0,0,.707-.451c.285-.2.545-.407.818-.624a6.648,6.648,0,0,0,.9-.955c.281-.336.541-.684.8-1.031a28.415,28.415,0,0,0,1.532-2.4c.506-.849,1.027-1.69,1.545-2.527.457-.736.937-1.468,1.453-2.165.411-.528.827-1.049,1.264-1.556a16.732,16.732,0,0,1,1.724-1.706q.586-.437,1.2-.841a11.022,11.022,0,0,1,1.462-.762c.223-.085.444-.17.674-.237.409-.117.787-.21,1.2-.3l.548-.025Zm-33.055,4.845-.008.05.008-.05Zm29.846,7.483-.064.086,0,0,.067-.084Zm-29.27,1.864c.024.028.046.056.066.084l-.066-.084Zm15.348.192c-.057.025-.115.05-.174.073l.174-.073Zm-5.9.613c.04.005.08.01.122.017l-.122-.017Zm6.548,3.334-.058.008.058-.008Zm-160.931,7.056.7.978c.64.892,1.232,1.82,1.849,2.729.56.829,1.078,1.678,1.6,2.531.336.557.676,1.114,1.015,1.671.209.344.391.707.581,1.059.367.675.73,1.35,1.1,2.022.392.722.749,1.461,1.087,2.208-.143.293-.3.582-.459.864-.21.391-.458.779-.691,1.158-.336.545-.664,1.094-1,1.635-.651,1.027-1.295,2.057-1.955,3.08q-.663,1.038-1.327,2.066c-.249.383-.49.774-.754,1.145q-1.2,1.677-2.4,3.35c.027-.036.059-.076.086-.111-1.082,1.394-2.2,2.741-3.4,4.044-.612.664-1.252,1.3-1.9,1.928a29.076,29.076,0,0,1-2.435,2.068c-2.29,1.762-4.659,3.433-7,5.124-1.252.9-2.532,1.761-3.8,2.642-1.072.747-2.178,1.439-3.275,2.146a9.354,9.354,0,0,1-1.134-.687c-.194-.155-.385-.31-.579-.468a9.254,9.254,0,0,1-1.114-1.24c.04.047.075.1.111.142-.707-1.011-1.3-2.077-1.9-3.148-.849-1.5-1.676-3.011-2.379-4.588-.351-.854-.675-1.711-.978-2.58a18.177,18.177,0,0,1-.774-3.446c-.084-.882-.138-1.753-.166-2.64a26.311,26.311,0,0,1,.181-3.4c.155-1.095.355-2.171.613-3.253a27.126,27.126,0,0,1,1.1-3.314c-.024.052-.043.107-.067.162a17.236,17.236,0,0,1,.735-1.615,14.92,14.92,0,0,1,1.367-2.165c.521-.656,1.058-1.277,1.626-1.891a22.779,22.779,0,0,1,2.659-2.316c.679-.505,1.363-.992,2.069-1.468.944-.632,1.935-1.2,2.919-1.773a56.813,56.813,0,0,1,5.318-2.807c.787-.326,1.576-.637,2.375-.925a20.182,20.182,0,0,1,3.323-.843,33.658,33.658,0,0,1,7.088-.072Zm7.121,7.652c-.505-.951-1.074-1.864-1.623-2.788-.261-.434-.521-.873-.786-1.311-.32-.537-.691-1.051-1.039-1.572s-.69-1.051-1.04-1.573a17.608,17.608,0,0,1,2.442.712c-.047-.024-.1-.044-.146-.063a6.2,6.2,0,0,1,1.363.723c-.04-.032-.083-.064-.123-.095a5.8,5.8,0,0,1,.97.882,7.37,7.37,0,0,1,.74,1.266c.305.579.594,1.151.851,1.748.076.209.148.421.224.63a7.5,7.5,0,0,1,.3,1.2,6.984,6.984,0,0,1-.01,1.495l.005-.033-.009.063-.011.091,0-.023a10.7,10.7,0,0,1-.278,1.362c-.039.165-.083.329-.13.492-.537-1.084-1.139-2.144-1.7-3.206Zm2.141-.2c.005.034.011.068.016.1l-.016-.1Zm-32.28.374-.034.027.034-.027Zm4.013,35.605c.506-.328.995-.691,1.493-1.039l2.307-1.607c1.165-.814,2.31-1.655,3.459-2.484,1.035-.747,2.062-1.509,3.089-2.267.774-.573,1.532-1.17,2.283-1.778.671-.545,1.291-1.161,1.915-1.765.853-.834,1.651-1.726,2.445-2.619a59.535,59.535,0,0,0,3.732-4.822q.568-.787,1.138-1.58c.126-.174.237-.367.355-.549.356-.553.711-1.1,1.07-1.651q1.162-1.8,2.311-3.61c.316-.5.624-1,.932-1.5.326-.524.656-1.047.962-1.583q.168.489.306.99a11.764,11.764,0,0,1,.272,1.382c-.008-.075-.019-.154-.027-.229a13.793,13.793,0,0,1,.13,1.454,10.023,10.023,0,0,1-.078,1.774,20.623,20.623,0,0,1-1.127,4.459,26.53,26.53,0,0,1-1.7,3.147c-.316.505-.624,1.023-.971,1.509-.407.575-.817,1.147-1.223,1.719-.882,1.128-1.755,2.262-2.668,3.364-1.054,1.267-2.148,2.48-3.3,3.649a43.98,43.98,0,0,1-4.084,3.619c-.7.519-1.412,1.015-2.141,1.5a23.013,23.013,0,0,1-3.013,1.652,25.731,25.731,0,0,1-4.1,1.149c.067-.012.13-.02.2-.028a7.735,7.735,0,0,1-1.5.115,9.2,9.2,0,0,1-1.355-.127l.194.024c-.486-.083-.972-.182-1.458-.288a17.954,17.954,0,0,1-2-.575l2.166-1.408Zm196.776-24.432a9.027,9.027,0,0,1,1.418.135c-.051-.008-.1-.016-.15-.02.186.054.372.112.558.168a3.273,3.273,0,0,1,.655.432l-.107-.083c.071.081.144.158.216.236l.143.235c.03.087.059.177.086.266a2.548,2.548,0,0,1-.042.713c0-.044.012-.083.016-.127a4.512,4.512,0,0,1-.287.953c-.245.518-.5,1.029-.8,1.524-.276.462-.571.9-.88,1.344q-.556.724-1.13,1.436c-.316.4-.671.762-1,1.142-.687.793-1.461,1.516-2.208,2.259-1.678,1.674-3.345,3.373-5.032,5.043-1.658,1.643-3.384,3.207-5.027,4.866a56.748,56.748,0,0,1-4.221,4.3,21.32,21.32,0,0,1-4.073,2.22l.031-.012-.047.019-.019.008.018-.008c-1,.407-2.018.769-3.028,1.15-1.118.426-2.208.916-3.286,1.43-2.648,1.257-5.272,2.557-7.949,3.745a42.657,42.657,0,0,1-6.246,1.8c-.5.118-1.017.208-1.531.294l-.245-.345c-.078-.189-.158-.381-.238-.573a3.77,3.77,0,0,1,0-.788c.024-.15.047-.3.071-.449a4.616,4.616,0,0,1,.32-1,1.244,1.244,0,0,1-.055.134,4.877,4.877,0,0,1,.472-.794,10.231,10.231,0,0,1,1.308-1.267c.727-.549,1.462-1.094,2.2-1.635.77-.573,1.56-1.118,2.314-1.71q1.292-1.02,2.532-2.1a20.3,20.3,0,0,0,2.006-2.148c.624-.735,1.276-1.45,1.924-2.161.15-.165.3-.331.45-.493a10.621,10.621,0,0,1,1.145-1.007c.423-.348.842-.692,1.256-1.047.845-.727,1.663-1.477,2.488-2.224.731-.664,1.492-1.286,2.265-1.9,1.483-1.134,2.984-2.234,4.5-3.324.762-.549,1.552-1.054,2.326-1.584.822-.556,1.675-1.09,2.512-1.623q2.743-1.735,5.466-3.491c.869-.561,1.766-1.074,2.658-1.6a29.1,29.1,0,0,1,2.753-1.35l-.1.042q.851-.376,1.73-.686a8.131,8.131,0,0,1,1.285-.345c.194,0,.39-.011.583-.015ZM1119.2,680l.009.075q-.006-.037-.009-.075Zm-.407,1.982-.019.045-.013.031c.01-.025.021-.051.032-.076Zm-273.365,6.624.095.04-.095-.04Zm19.265,8.433c.019.022.037.046.054.069l-.054-.069Zm.079.1.036.045-.036-.045Zm232.887,8.26A13.963,13.963,0,0,0,1100,703.73c.8-.719,1.5-1.524,2.227-2.314.79-.85,1.6-1.687,2.437-2.493.6-.572,1.206-1.135,1.811-1.7a2.821,2.821,0,0,0-.231,1.844,11.642,11.642,0,0,0,1.189,2.776c.456.849.876,1.708,1.262,2.588a15.63,15.63,0,0,1,.582,2.073c.129.629.2,1.275.289,1.913.183,1.584.308,3.169.4,4.761.039.759.067,1.517.043,2.275-.019.663-.073,1.319-.148,1.978a19.265,19.265,0,0,1-.5,2.209,17.115,17.115,0,0,1-.69,1.877c-.175.391-.359.775-.562,1.156a11.45,11.45,0,0,1-.861,1.343c.036-.048.071-.1.111-.142a4.713,4.713,0,0,1-.806.869,7.916,7.916,0,0,1-1.372.765l-.422.157q.179-.262.353-.528a7.493,7.493,0,0,0,.75-1.765,9.96,9.96,0,0,0,.328-1.635,14.21,14.21,0,0,0,.142-1.58,15.572,15.572,0,0,0-.316-3.318c-.1-.572-.249-1.137-.395-1.7-.154-.607-.281-1.21-.382-1.828a21.335,21.335,0,0,1-.191-2.216,17.6,17.6,0,0,1,.128-2.284c.012-.07.024-.139.037-.208a8.114,8.114,0,0,0,.455-.9,2.054,2.054,0,0,0,.206-.94.417.417,0,0,0-.288-.383c-.593-.217-.964.786-1.138,1.169a5.748,5.748,0,0,0-.406,1.451l-.087.121c-.651.826-1.337,1.626-2.015,2.429-.4.47-.774.948-1.181,1.406a14.04,14.04,0,0,1-1.375,1.321,13,13,0,0,1-2.529,1.438,22.824,22.824,0,0,1-3.067.93c-.96.225-1.942.358-2.915.494h.005c-1.888.237-3.788.316-5.688.458-.9.067-1.8.15-2.7.17a21.9,21.9,0,0,1-3.115-.192c-.457-.075-.914-.14-1.368-.231-.371-.079-.746-.154-1.118-.229a9.884,9.884,0,0,1-1.8-.583,8.469,8.469,0,0,1-1.018-.618l-.4-.32-.089-.082.437-.087c.5-.095.987-.233,1.477-.352.83-.205,1.647-.45,2.461-.691.687-.206,1.358-.431,2.03-.676.738-.276,1.461-.635,2.168-.979,1.718-.833,3.428-1.675,5.119-2.555,1.4-.738,2.817-1.448,4.274-2.073a48.516,48.516,0,0,0,6.1-2.7Zm-232.693-7.927c.017.034.032.07.047.106l0-.031.006.036.018.043-.018-.042a1.277,1.277,0,0,1,.016.137c-.006-.049-.012-.1-.018-.142s-.032-.071-.047-.107Zm242.443.768-.015.1.015-.1Zm-8.751,5.3-.029.021.029-.021Zm10.077.976.026.059c-.009-.02-.018-.039-.026-.059Zm-248.426,1.107-.031.038.031-.038Zm224.885,12.945c1.264-.118,2.532-.213,3.792-.339a38.5,38.5,0,0,0,5.529-.948,17.946,17.946,0,0,0,2.935-1,10.265,10.265,0,0,0,2.436-1.442,16.475,16.475,0,0,0,2.106-2.152c.616-.751,1.24-1.493,1.868-2.236l.01-.013c-.021.3-.032.6-.034.9,0,.509.055,1.027.095,1.536a15.047,15.047,0,0,0,.292,1.825c.119.588.3,1.165.434,1.745.13.544.229,1.087.318,1.637a11.8,11.8,0,0,1,.121,1.606,15.059,15.059,0,0,1-.1,1.6c-.066.434-.143.862-.237,1.293a8.6,8.6,0,0,1-.377,1.179,8.792,8.792,0,0,1-.626,1.1c-.166.245-.351.48-.533.718q-.233.285-.473.567a8.154,8.154,0,0,1-1.048.01c-.177-.016-.359-.027-.541-.039-.3-.02-.6-.067-.892-.107.071.008.142.02.213.028a21.079,21.079,0,0,1-2.611-.644c-.7-.217-1.375-.5-2.052-.781-1.121-.507-2.238-1.018-3.347-1.545-.936-.447-1.872-.913-2.835-1.3-1-.406-2-.821-3.03-1.145-1.121-.359-2.255-.668-3.392-.964-1.333-.345-2.664-.684-3.992-1.04.28.036.561.07.844.1a18.982,18.982,0,0,0,1.967.079c1.058,0,2.109-.13,3.163-.229Zm-228.3-7.106c-.012.028-.024.056-.037.084l.037-.084Zm223.31.687-.093.041c.03-.014.061-.028.093-.041Zm-8.209.294c0,.021,0,.041-.007.061l.007-.061Zm0,.867c.006.037.01.073.014.108-.005-.036-.01-.072-.014-.108ZM885.3,725.543c.727-.446,1.449-.892,2.176-1.339,1.114-.683,2.228-1.362,3.322-2.077q2.185-1.428,4.376-2.852c1.212-.794,2.385-1.651,3.578-2.476q1.443-1,2.9-1.976l-.087.21c-.134.327-.233.668-.362,1-.128.263-.253.527-.366.794a8.7,8.7,0,0,1-.733,1.291c-.42.615-.862,1.213-1.305,1.806a23.045,23.045,0,0,1-2.009,2.238c-.359.352-.735.684-1.106,1.027s-.731.684-1.11,1.019c-1.631,1.446-3.316,2.816-5.039,4.156l.035-.029q-1.161.871-2.334,1.73c-.821.6-1.694,1.126-2.551,1.663-.8.5-1.635.952-2.465,1.406-1.062.587-2.146,1.132-3.264,1.612-.452.177-.91.344-1.372.489a12.762,12.762,0,0,1-1.9.455c-.14.014-.28.027-.42.043a10,10,0,0,1-1.509-.008c-.227-.005-.455-.028-.681-.052,1.345-1.184,2.674-2.379,4-3.582,1.589-1.44,3.139-2.919,4.823-4.25,1.111-.8,2.234-1.575,3.4-2.294Zm186.947-9.772a5.785,5.785,0,0,0,1.239,1.119l.011.007q-1.232-.424-2.443-.906c.4-.075.795-.146,1.193-.22Zm2.807.743.023.01-.023-.01Zm-219.513.315-.009.057.009-.057Zm45.281.035-.04.1c.013-.033.027-.065.04-.1Zm178.482.7.076.009-.076-.009Zm.1.012.046.008-.046-.008Zm16.235,6.967.054.022-.054-.022Zm10.851.258-.037.03.037-.03Zm-1.318.714-.084.035.084-.035Zm-215.633,2.846-.108.084c.035-.029.072-.056.108-.084ZM861.52,731.29c.022.015.043.032.064.048l-.064-.048Zm232.614,5.079c-.028.037-.057.076-.087.113l.087-.113Zm-224.549.734-.036.027.036-.027Zm222.539,4.534-.007.054.007-.054Zm-231.7,4.927-.031.038.031-.038Zm-3.381,10.514c.005.034.009.067.013.1l-.013-.1Zm228.891,34.852-.114.047.114-.047Zm7.018-4.617.027-.033-.027.033Zm1.559-81.506h0l.016-.007-.017.007Zm-229.5-7.8h0l0-.006,0,.006Zm0-.428,0,.005h0l0-.005Zm82.843-28.823.009-.068,0-.03c-.005.032-.009.065-.013.1Zm168.373-22.92.124-.053-.124.053Zm-3.029-1.8.013-.016.01-.013-.023.029Zm-69.288-196.85-.005.036c.005-.033.009-.065.013-.1l-.008.062Zm19.931-79.295-.061-.148-.012-.027c.024.058.048.117.073.175Z" fill="#4c4948"/></clipPath></defs><g transform="translate(-832.558 -271.582)"><g clip-path="url(#a)"><path d="M903.5,709.5s0,12-16,21-22,7-31-4c0,0-7-9,5-24,0,0,15.174-8.8-12.413-10.9,0,0-18.587-5.1-10.587-20.1,0,0,6.164-9.052,10.582-10.526.418-.474,9.2-8.2,9.2-8.2s9.593-6.794,16.406-9.532c0,0,29.2-14.421,21.5-36.58,0,0-.505-7.354-16.849-20.507,0,0-6.343-8.152-6.343-10.152s-5-20,14-35l28-26s15-13,13-25c0,0,1.5-8.5-2.5-14.5s-11-17-26-26c0,0-23-19-29-37a55.783,55.783,0,0,1,12-53s16-23,45-22c0,0,27,1,16,34,0,0-2,8-13,14,0,0-30,23-73-8,0,0-32-21-23-59,0,0,0-20,24-33,0,0,22-15,55-12,0,0,37,3,67,22,0,0,20,9,23,12s15,8,19,13,13,9,13,9,16,6,23,18a34.383,34.383,0,0,1,10,18s16,38,17,38,8,21,8,21l11,37,.639,8.263.361,9.737s1,11-9,10c0,0-32-1-47,18l-20,21s0,7,14-3,25-13,25-13,10-2,15-1,14-1,18-6,8-11,0-14-9,15-9,15-2.524,12.581-5.762-1.709c0,0,1.762-14.291-5.238-9.291a30.419,30.419,0,0,0-7,14c-2,9-4,6-4,6s-1-3,0-9,6.468-19.282-5.266-7.141c0,0-4.734,5.141-5.734,10.141s-5,16-7,3c0,0,8.11-20.768-5.445-4.384s-15.289,36.19-9.422,42.787,10.309-5.875,10.309-5.875S1070.5,523.5,1078.5,541.5s-14,22-18,23l-11-4h13c7,0,8-6,8-6s2.468-25.652-5.266-.826c0,0-8.734,13.826-7.734-7.174,0,0,3-9,22-9,0,0,28-12-3-2,0,0-15-3-39,19,0,0-3-2-3-3,0,0,2.936-33.558,2.468-40.779S1039.5,470.5,1040.5,468.5s4.282-32.268,4.282-32.268,7.927-34.727,4.822-43.729l-1.33-26.1-4.774-27.9s0-6,11,12c0,0,8,32,1,44,0,0-14,49-19,51l-4,8-19,32-32,43-39,48s-15,23-16,27-9,25,5,43l14,24s8.39,9.907-3.8,22.453S921.5,712.5,913.5,701.5s-6.722-20.851-6.722-20.851-1.8-11.432,15.463-17.791S944.5,657.5,947.5,665.5s-11,24-11,24l-27.394,19.748s-33.9,20.306-33.753,22.779S849.5,749.5,856.5,759.5c0,0-1.273,5.2,14.364,12.1a162.17,162.17,0,0,0,32.636,9.9s21,5,26,6,50,8,50,8l20,2s11-1,20,2c0,0,15,2,28,0s30-2,35-5,16-9,14-18l-1-12s-9.673-23.958-.836-29.979c0,0,14.836-9.021,10.836-21.021a21.8,21.8,0,0,1-1-6c0-3,1,0,1,0s-4,10-15,10c0,0-28,3-15-10l11-11,20-15s33-13-4,18c0,0-2.316,5.611-12.658,8.806,0,0-10.342,5.194-20.342,7.194,0,0,4,4,15,6l9,3s12,6,15-3c0,0,3-6,1-18,0,0-5-3,1-9s13-16,11-20l-7-22s0-13-9-1c0,0-11,4-21-1,0,0-7-5,2-23,0,0-12,14,0,19,0,0,10,9,17-2,0,0,8-12,11-11s7,1-3,15l5-3,13-5s14-13,12-19,2-13-11-26l-13-16a30.732,30.732,0,0,1-6-9l-8-11-6-10-7-13s-4-6-1-19c0,0-2-6,9-12l2.316-6.141S1106.5,480.5,1103.5,475.5l-1-7-2-12-10-27s-15-46-22-56l-4-8s-7-18-25-22" fill="#4c4948" stroke="#000" stroke-miterlimit="10" stroke-width="3"/></g></g></svg>