<svg xmlns="http://www.w3.org/2000/svg" width="297.765" height="398.035" viewBox="0 0 297.765 398.035"><g transform="translate(-724.513 -198.699)"><path d="M877.719,396.119a52.79,52.79,0,0,1-5.025,2.537c-22.2,9.737-35.067,3.657-35.6,3.394a1.06,1.06,0,0,1-.558-1.22,29.613,29.613,0,0,1,4.988-9.289c3.538-4.7,10.207-11.324,21.887-16.179,16.531-6.872,35.267-2.172,36.057-1.968a1.06,1.06,0,0,1,.63,1.594A70.67,70.67,0,0,1,877.719,396.119Zm-38.842,4.369a28.846,28.846,0,0,0,7.99,1.474c5.267.293,13.876-.378,24.975-5.247,13.61-5.969,22.827-17.729,25.593-21.6-4.758-.952-19.964-3.306-33.215,2.2C845.776,384.985,840.125,397.136,838.877,400.488Zm-1.32.611,0,0Z" fill="#F9BA3E"/><path d="M821.673,462.173a1.061,1.061,0,0,1-1.566-.709,75.093,75.093,0,0,1,1.365-36.513c3.123-10.312,8.6-19.074,15.413-24.671a1.06,1.06,0,0,1,1.345,1.638c-6.5,5.334-11.727,13.732-14.729,23.647a72.961,72.961,0,0,0-1.316,35.478A1.06,1.06,0,0,1,821.673,462.173Z" fill="#F9BA3E"/><path d="M831.808,377.448a1.06,1.06,0,0,1-1.586-.933c.009-.8.317-19.663,7.672-32.406,10.27-17.792,21.186-24.641,21.646-24.924a1.06,1.06,0,0,1,1.559.562,27.586,27.586,0,0,1,.8,9.99c-.4,5.679-2.3,14.753-9.07,25.734a77.23,77.23,0,0,1-13.015,15.1c-4.311,4.032-7.852,6.766-7.887,6.793A1.045,1.045,0,0,1,831.808,377.448Zm27.619-55.608a53.066,53.066,0,0,0-5.452,4.682,86.032,86.032,0,0,0-14.245,18.646c-5.613,9.725-6.969,23.625-7.291,29.065,3.965-3.276,13.483-11.593,18.586-19.874C861.193,337.863,860.177,325.811,859.427,321.84Z" fill="#F9BA3E"/><path d="M821.674,462.173a1.1,1.1,0,0,1-.188.084,1.06,1.06,0,0,1-1.344-.664c-6.618-19.55-5.7-37.989-3.772-50.016,2.351-14.63,7.621-27.987,14.1-35.729a1.06,1.06,0,1,1,1.625,1.36c-6.243,7.462-11.339,20.436-13.631,34.706-1.894,11.789-2.792,29.86,3.687,49A1.061,1.061,0,0,1,821.674,462.173Z" fill="#F9BA3E"/><path d="M930.829,554.477a1.182,1.182,0,0,1-.165.077,1.063,1.063,0,0,1-.87-.067,56.187,56.187,0,0,1-9.552-7.03c-4.688-4.213-10.909-11.156-13.929-20.3a69.831,69.831,0,0,1-2.729-31.344,57.623,57.623,0,0,1,3.294-13.237,1.06,1.06,0,0,1,2,.149h0c.017.065,1.721,6.563,7.694,16.316,1.051,1.717,2.132,3.36,3.277,5.1a114.047,114.047,0,0,1,10.457,18.75,43.742,43.742,0,0,1,.98,31.055A1.054,1.054,0,0,1,930.829,554.477Zm-23-68.188a64.184,64.184,0,0,0-2.158,9.89,67.672,67.672,0,0,0,2.653,30.311c4.68,14.176,17.548,23.082,21.39,25.482,1.148-3.761,4.039-15.808-1.352-28.24A110.68,110.68,0,0,0,918.081,505.3c-1.154-1.755-2.244-3.412-3.314-5.158A81.875,81.875,0,0,1,907.831,486.289Zm.023-3.3h0Zm0,0h0Z" fill="#F9BA3E"/><path d="M851.389,503.787c-2.047,1.171-18.616,10.438-35.49,13.461-11.73,2.1-22.98-.738-30.352-3.489a69.72,69.72,0,0,1-13.326-6.541,1.06,1.06,0,0,1,.032-1.781c.634-.4,15.763-9.621,38.492-11.151,14.3-.962,39.573,7.113,40.642,7.457a1.06,1.06,0,0,1,.213,1.922ZM774.9,506.378c5.1,2.99,22.437,12.042,40.624,8.784,13.919-2.493,27.663-9.347,32.843-12.128-6.709-2-26.076-7.4-37.481-6.633A92.1,92.1,0,0,0,774.9,506.378Z" fill="#F9BA3E"/><path d="M868.3,488.551a1.056,1.056,0,0,1-1,.029,21.728,21.728,0,0,1-6.961-6.441c-3.11-4.226-6.846-11.81-6.992-23.945-.077-6.451,1.366-14.987,4.29-25.369,2.17-7.705,4.395-13.615,4.418-13.673a1.059,1.059,0,0,1,1.893-.181c.537.873,13.165,21.623,14.257,42.309a38.57,38.57,0,0,1-9.671,27.087A1.058,1.058,0,0,1,868.3,488.551Zm-5.029-66.516c-2.13,6.086-7.95,23.867-7.8,36.134.077,6.343,1.265,15.413,6.5,22.6a22.058,22.058,0,0,0,5.594,5.5c2.068-2.454,9.214-11.927,8.531-24.88C875.22,444.829,866.437,427.709,863.274,422.035Z" fill="#F9BA3E"/><path d="M906.606,544.594a1.059,1.059,0,0,1-1.031.012c-13.806-7.467-24.2-17.456-30.878-29.69a66.062,66.062,0,0,1-7.978-27.216,1.06,1.06,0,0,1,2.115-.137,63.925,63.925,0,0,0,7.723,26.336c6.484,11.87,16.586,21.574,30.026,28.843a1.061,1.061,0,0,1,.023,1.852Z" fill="#F9BA3E"/><path d="M809.217,473.975a22.262,22.262,0,0,1-9.059,2.421c-5.232.391-13.643-.47-24-6.791-5.508-3.36-11.974-9.116-19.219-17.107-5.376-5.931-9.2-10.954-9.24-11a1.06,1.06,0,0,1,.852-1.7c1.026.009,25.313.327,43.422,10.387a38.579,38.579,0,0,1,17.817,22.579,1.06,1.06,0,0,1-.475,1.159C809.3,473.925,809.27,473.945,809.217,473.975Zm-.458-.96h0Zm0,0h0Zm-57.974-31.02c4.024,5.037,16,19.411,26.475,25.8,9.811,5.986,17.706,6.837,22.6,6.5a22.1,22.1,0,0,0,7.632-1.82c-.982-3.055-5.214-14.141-16.552-20.441C776.433,443.973,757.269,442.327,750.785,441.995Z" fill="#F9BA3E"/><path d="M851.814,503.446a1.06,1.06,0,0,1-1.274-.17c-13.115-13.081-28.7-22-42.284-29.329a1.06,1.06,0,1,1,1.006-1.865c13.713,7.4,29.458,16.412,42.775,29.693a1.061,1.061,0,0,1,0,1.5A1.113,1.113,0,0,1,851.814,503.446Z" fill="#F9BA3E"/><path d="M797.029,391.391a1.061,1.061,0,0,1-.6.137,103.387,103.387,0,0,1-14.384-2.286c-13.462-3.072-21.393-7.606-25.676-10.869-19.888-15.153-31.636-39.507-31.753-39.752a1.059,1.059,0,0,1,.966-1.515,55.154,55.154,0,0,1,13.629,2.474,97.666,97.666,0,0,1,31.949,16.683c5.159,3.976,11.149,10.858,17.805,20.455,4.937,7.118,8.422,13.165,8.456,13.225a1.06,1.06,0,0,1-.392,1.448Zm-69.665-52.042c2.977,5.667,13.782,24.761,30.29,37.338,11.867,9.041,30.673,11.829,36.87,12.526-3.443-5.707-14.661-23.567-24.658-31.272C750.166,342.756,732.847,339.887,727.364,339.349Z" fill="#F9BA3E"/><path d="M815.982,334.1q-2.624,1.5-5.647,2.982a96.356,96.356,0,0,1-14.212,5.66,1.059,1.059,0,0,1-1.318-1.283c.06-.234,6.189-23.567,19.906-39.279,13.808-15.816,33.905-27.665,34.107-27.783l.008-.005a1.06,1.06,0,0,1,1.586.936,72.308,72.308,0,0,1-2.134,14.49,76.1,76.1,0,0,1-13.838,29.174C831.263,322.992,825.6,328.6,815.982,334.1Zm-18.588,6.011c5.962-2.009,24.847-9.179,35.388-22.438,12.421-15.626,14.906-34.358,15.394-40.4-5.116,3.2-20.627,13.425-31.868,26.3l-.8-.7.8.7C805.168,316.337,799.136,334.318,797.394,340.114Z" fill="#F9BA3E"/><path d="M914.65,549.629a.908.908,0,0,1-.087.045c-.725.331-17.927,8.083-32.589,6.851-20.472-1.721-31.316-8.683-31.767-8.978a1.06,1.06,0,0,1-.155-1.65,27.544,27.544,0,0,1,8.7-4.977c5.31-2.054,14.329-4.2,27.147-2.746a77.2,77.2,0,0,1,19.207,5.349c5.482,2.184,9.464,4.224,9.5,4.244a1.06,1.06,0,0,1,.042,1.862Zm-61.993-3.11a53.1,53.1,0,0,0,6.558,2.94,86.021,86.021,0,0,0,22.936,4.954c11.179.94,24.34-3.75,29.4-5.774-4.653-2.193-16.229-7.265-25.894-8.359-12.313-1.394-20.943.626-26.014,2.566A30.5,30.5,0,0,0,852.657,546.519Z" fill="#F9BA3E"/><path d="M796.357,342.646a1.058,1.058,0,0,1-.939.057c-.734-.311-18.08-7.736-27.091-19.368-12.581-16.24-14.789-28.936-14.876-29.469a1.06,1.06,0,0,1,1.11-1.23,27.568,27.568,0,0,1,9.55,3.04c5.1,2.521,12.784,7.714,20.386,18.136,7.558,10.359,12.164,26.934,12.356,27.634a1.06,1.06,0,0,1-.324,1.078A.972.972,0,0,1,796.357,342.646Zm-40.488-47.67c.954,3.759,4.316,14.389,14.134,27.061,6.876,8.876,19.229,15.392,24.142,17.75-1.532-4.91-5.627-16.868-11.36-24.726-4.031-5.526-10.684-13.034-19.487-17.423A30.547,30.547,0,0,0,755.869,294.976Z" fill="#F9BA3E"/><path d="M804.542,293.82a1.059,1.059,0,0,1-1.276-.171c-.156-.156-3.855-3.908-7.031-11.591-2.908-7.033-5.9-18.853-3.646-35.227,3.417-24.829,17.169-47.4,17.308-47.628a1.061,1.061,0,0,1,1.764-.062c.106.148,2.619,3.7,4.972,11.584,2.148,7.193,4.569,19.552,3.905,37.586a83.517,83.517,0,0,1-8.216,33.026,63.3,63.3,0,0,1-7.495,12.245A1.1,1.1,0,0,1,804.542,293.82Zm-1.338-1.6Zm7.607-90.377c-3.086,5.429-13.272,24.572-16.123,45.279-3.593,26.1,6.329,40.495,9.279,44.115a68.276,68.276,0,0,0,6.48-10.889,81.408,81.408,0,0,0,7.973-32.113C819.442,220.5,813.172,206.194,810.811,201.841Z" fill="#F9BA3E"/><path d="M968.965,565.717c-9.629-3.475-17.177-5.436-20.8-6.378-.845-.22-1.456-.379-1.8-.481A210.594,210.594,0,0,1,900.88,539.25a217.615,217.615,0,0,1-36.6-26.664c-19.487-17.562-35.617-38.511-45.419-58.988-15.844-33.1-23.778-66.541-23.584-99.4.155-26.172,5.295-46.343,9.756-60.991a1.06,1.06,0,1,0-2.027-.618c-4.5,14.786-9.692,35.15-9.849,61.6-.2,33.181,7.809,66.936,23.792,100.326,9.919,20.721,26.224,41.9,45.912,59.648a219.746,219.746,0,0,0,36.962,26.923,212.672,212.672,0,0,0,45.938,19.806c.379.113,1.005.275,1.871.5,7.458,1.937,30.146,7.819,53.188,21.516a144.262,144.262,0,0,1,19.507,13.828l1.955-1.119a149.753,149.753,0,0,0-20.379-14.53A192.3,192.3,0,0,0,968.965,565.717Z" fill="#F9BA3E"/></g></svg>