<svg xmlns="http://www.w3.org/2000/svg" xmlns:xlink="http://www.w3.org/1999/xlink" width="456.175" height="123.294" viewBox="0 0 456.175 123.294"><defs><clipPath id="a"><path d="M-1125.892-3895.837a2.129,2.129,0,0,1,1.572-1.595c.837-.276,1.681-.521,2.523-.772,1.061-.317,2.135-.586,2.567-2.063.1-.343.61-.319.606-.822-.315-.438-.734.031-1.084-.2-.217-.543.272-.58.44-.842a.523.523,0,0,0,.105-.51c-.285-.88-.231-1.119.271-1.368.539-.266.989.02,1.257.8.47,1.367.475,1.433,1.637,1.3a3.167,3.167,0,0,1,2.26.92c.551.411.955.429,1.426-.137a5.114,5.114,0,0,1,2.959-1.5c.97-.251,1-.19,1.294,1.075.239,1.04.342,1.022,1.238.9,2.842-.4,5.56-1.54,8.4-1.958a8.966,8.966,0,0,0,3.812-1.631,21.114,21.114,0,0,1,7-2.951c1.995-.544,3.955-1.268,5.964-1.732.928-.215.93-.2,1.205,1.281a68.174,68.174,0,0,1,7.385-2.883,2.424,2.424,0,0,0-1.789-.989,3.7,3.7,0,0,1-2.395-1.494,2.812,2.812,0,0,0-2.46-1.28c-1.139.06-2.25-.434-3.4-.188-.439.094-.835-.223-1.229-.441-2.266-1.258-4.423-2.764-6.614-4.195a1.217,1.217,0,0,1-.571-.894,40.424,40.424,0,0,1-.635-5.958,1.175,1.175,0,0,1,.568-1.073,34.258,34.258,0,0,0,6.351-6.377,16.134,16.134,0,0,1,1.278-1.206,3.424,3.424,0,0,1,4.041-.776,8.651,8.651,0,0,1-2.007,2.531c-.877.874-1.771,1.721-2.646,2.6a.807.807,0,0,0-.308.832.694.694,0,0,0,.83.447,3.558,3.558,0,0,0,1.5-.732c1.457-.978,2.942-1.854,4.472-2.675a27.6,27.6,0,0,0,5.81-3.463,18.259,18.259,0,0,1,4.511-2.722,4.929,4.929,0,0,1-2.568-.836.457.457,0,0,1-.242-.459.609.609,0,0,1,.457-.495c.411-.124.721.181,1.062.374,1.4.791,1.7.66,2.225-1.047a1.983,1.983,0,0,1,.585-.9,3.457,3.457,0,0,0,.726-.78,7.309,7.309,0,0,1,3.724-3.23c1.157-.528,1.906-1.705,2.862-2.553a1.156,1.156,0,0,0,.372-1.024c-.1-1.088.531-1.48,1.2-1.824a14.221,14.221,0,0,1,2.972-1.007c1.433-.375,2.889-.671,3.875-2.207.277-.433.654-.455.976-.032a1.1,1.1,0,0,0,1.168.483,37.811,37.811,0,0,0,8.663-2.6c.095-.042.166-.162.247-.244-.484-2.017-.347-2.3,1.452-2.273a9.2,9.2,0,0,0,5.786-1.389,1.709,1.709,0,0,1,.766-.309c3.2-.363,6.256-1.562,9.408-2.193a8.518,8.518,0,0,1,1.124-.187c.57-.035,1.292.605,1.576-.62.038-.164.487-.277.743-.267,2.3.087,4.434-.759,6.619-1.476a28.694,28.694,0,0,0,4.685-1.562c1.387-.735,2.914-.963,4.244-1.861a.4.4,0,0,1,.586.054c.7.808.732.827,1.289-.061.256-.407.523-.457.827-.251.591.4,1.007.147,1.429-.385a4.948,4.948,0,0,1,1.884-1.11c.255-.136.57-.222.774.013.647.746,1.3.351,1.976.117,4.317-1.5,8.592-3.157,12.882-4.757a20.08,20.08,0,0,1,5.881-1.338,13.928,13.928,0,0,0,4.665-1.359c.581-.251,1.13-.627,1.74.154.327.419,1.063-.091,1.508.4.02.413-.258.48-.436.43-1.959-.548-3.652,1.032-5.548,1a1.117,1.117,0,0,0-.718.421c-1.47,1.654-3.367,2.011-5.208,2.538-.673.193-1.352.354-2.2.577a1.593,1.593,0,0,0,1.976.334,8.986,8.986,0,0,1,3.97-.906,7.5,7.5,0,0,0,1.6-.291,46.691,46.691,0,0,1,7.5-1.489c1.651-.111,3.26-.945,4.91-1.316,3.782-.846,7.612-1.368,11.369-2.4.106-.029.23-.1.318-.06,1.395.619,2.754-.028,4.13-.108a11.055,11.055,0,0,0,1.728-.317c.85-.181,1.874-1.01,2.535.532.17.4.587.312.884.139.846-.495,1.82-.249,2.674-.705.1-.055.288.115.574.243a2.139,2.139,0,0,1-1.878,1c-1.51.11-3,.411-4.524.472-1.715.068-3.434.422-5.165.5a3.265,3.265,0,0,0-1.349.632c-.782.476-1.687.066-2.682.513a2.888,2.888,0,0,0,2.64.375,1.961,1.961,0,0,1,1.1-.285c1.041.283,2.017.468,2.83-.645a.519.519,0,0,1,.459-.133c2.342.41,4.561-.709,6.877-.781,3.507-.111,6.979-.966,10.5-.918a1.628,1.628,0,0,1,.449.139c.132.7-.624.448-.656,1.072.646.547,1.311-.07,1.964-.054.5.011,1.254-.719,1.423.081.178.843-.835.451-1.407,1.1,2.466-.343,4.753-.217,6.878-1.462-.717-.463-1.4-.022-2.075.144-.774.192-1.492-.218-2.276-.068a12.693,12.693,0,0,1,.458-1.754c.159-.377.631-.554.722-.019.156.914.62.781,1.091.65a3.081,3.081,0,0,1,3.059.78c.8.7,2.862.419,3.96-.58.874-.794,1.611-.835,2.609.141-1.723,1.238-3.658.894-5.306,1.726a16.372,16.372,0,0,0,4.493-.475c3.276-.558,6.571-.775,9.861-1.094a12.068,12.068,0,0,0,1.445-.262,8.967,8.967,0,0,1,3.818-.231,12.9,12.9,0,0,0,5.146-.321c.527-.115,1.03-.389,1.42.4.3.615.878.444,1.34.31,1.557-.452,3.278-.146,4.65-1.482.26-.253.639-.131.95-.027,1.943.649,3.878.041,5.808-.1.914-.064,1.828-.232,2.751-.239a11.108,11.108,0,0,0,3.075-.263,1.922,1.922,0,0,1,1.126-.016,3.991,3.991,0,0,0,3.02-.277c.491-.215.992-.546,1.552-.121.3.23.627.042.914-.172a1.1,1.1,0,0,1,.934-.248,3.069,3.069,0,0,0,2.471-.262c.7-.381,1.689-.012,2.547.077,1.848.194,3.663.308,5.4-.815a1.9,1.9,0,0,1,2.188-.16c.426.283.824.026,1.25-.066a11.388,11.388,0,0,1,4.059-.518c-.71.754-.71.754-2.407,1.092,2.126.662,4.135-.333,6.169.18.045-1.3-1.045-.832-1.178-1.6.25-.333.506-.12.759-.049.313.087.67.326.936.225,2.2-.827,4.512-.586,6.737-1.125a2.04,2.04,0,0,1,.48-.1,55.876,55.876,0,0,0,8.716-.794,39.661,39.661,0,0,1,5.338-.511,67.259,67.259,0,0,0,6.946-.4,53.455,53.455,0,0,0,6.3-.678c.529-.126,1.045-.333,1.57-.492,1.208-.365,2.424-.823,3.552.281a.428.428,0,0,0,.595.026c2.873-1.73,5.958-1.542,9.031-1.42a3.247,3.247,0,0,1,2.171.805,5.024,5.024,0,0,1-3.131.515,5.652,5.652,0,0,0-2.424-.017c-.754.13-1.583.71-2.218-.375a.259.259,0,0,0-.433.057c-.719,1.448-2,.993-3.045,1.313-.706.215-1.656-.413-2.008.976-.067.265-.51.211-.754.075-1.982-1.112-4.034-.464-6.073-.441-2.823.032-5.557,1.1-8.4.906a7.5,7.5,0,0,0-2.408.348,23.228,23.228,0,0,1-5.814.97,13.036,13.036,0,0,0,7.518.538,5.519,5.519,0,0,1,2.419,0c1.779.421,3.545-.03,5.309-.221a4.484,4.484,0,0,1,2.98.208c.684.381,1.694.665,2.28-.6a.887.887,0,0,1,1.407-.417c.719.4,1.442.6,2.109-.189.262-.307.573-.251.906-.093.435.207.893.342,1.327.5-.039.306-.38.354-.232.8,2.3-.635,4.579.4,6.907.2,1.992-.176,4-.146,5.913-1.01a1.852,1.852,0,0,1,.96-.139c2.6.313,5.188-.188,7.785-.068a26.53,26.53,0,0,0,3.717-.421q7.2-.684,14.391-1.562c4.148-.5,8.286-1.115,12.429-1.68.107-.016.219-.092.318-.069,1.889.429,3.717-.168,5.557-.494,1.823-.323,3.638-.714,5.457-1.074a2.845,2.845,0,0,1,.643-.113c2.894.127,5.7-.771,8.559-1,1.578-.129,3.151-1.037,4.767-.287,1.379-.481,2.8.074,4.192-.264a3.894,3.894,0,0,1,1.777.1,4.888,4.888,0,0,0,3.819-.241.673.673,0,0,1,.467-.121c3,.748,5.866-.5,8.795-.815,2.3-.246,4.592-.655,6.9-.813.675-.047,1.34.338,2.067.314,1.794-.061,3.555-.48,5.324-.633a45.559,45.559,0,0,0,6.671-1.529,9.635,9.635,0,0,1,2.712-.266c.191.362-.343.581-.088.883.234.276.529.182.73-.064a1,1,0,0,1,1.464-.31,1.076,1.076,0,0,0,.789.1c2.547-.7,5.171-.63,7.737-1.131.214-.042.424-.125.639-.147.846-.086,1.512.4,1.484,1.063-.041.935-.768,1.945-1.463,1.928-.653-.016-1.3-.126-1.815.544.109.415.438.252.657.362.948.476,1.051.869.151,1.408-.612.367.066,1.136-.462,1.217-1.044.161-2.052.882-3.149.331-.144-.073-.349-.184-.456-.117-1.1.692-2.367.7-3.486,1.083-.017.228-.047.313-.023.351.92,1.542.9,1.425-.538,1.864a19.154,19.154,0,0,0-3.876,1.357,16.144,16.144,0,0,1-4.871,1.451,2.407,2.407,0,0,0-1.581.573l2.29,1.26c-.173.552-.532.577-.824.7a30.508,30.508,0,0,1-5.221,1.44,15.589,15.589,0,0,0-4.672,1.425,5.846,5.846,0,0,1-1.556.533c-2.231.552-4.47,1.059-6.7,1.626-.78.2-1.631.215-2.227,1.042-.183.255-.477.245-.759.234a20.984,20.984,0,0,0-8.128,1.525,11.689,11.689,0,0,0-3.341,1.273,22.8,22.8,0,0,0,6.459-1.238c-.293.8-.8,1.217-1.378,1.22-2.081.006-4.065.731-6.091,1.117a52.789,52.789,0,0,1-6.6,1.036c-.287.018-.739-.113-.688.507.038.461.385.589.732.609a2.39,2.39,0,0,0,.487-.023c5.316-.815,10.65-1.446,15.948-2.47,4.855-.938,9.742-1.635,14.783-2.466a1.123,1.123,0,0,1-1.037.69c-5.445,1.154-10.892,2.289-16.376,3.144-3.114.485-6.228.985-9.365,1.22a2.655,2.655,0,0,0-.642.121,14.07,14.07,0,0,1-4.752.8,12.93,12.93,0,0,0-3.483.76,52.737,52.737,0,0,1-6.58,1.093c-2.35.352-4.719.444-7.061.931a40.324,40.324,0,0,1-5.336.549c-2.651.189-5.288.541-7.916.97-5.69.93-11.366,1.991-17.061,2.87a22.084,22.084,0,0,1-4.853.51.976.976,0,0,0-.485.031c-2.383,1.154-4.951.417-7.384,1.065-.739.2-1.5.28-2.25.4-3.911.653-7.82,1.321-11.734,1.944-1.287.2-2.59.158-3.888.3-3.4.376-6.752,1.167-10.137,1.637-2.416.335-4.852.5-7.268.882a.743.743,0,0,0-.442.245,26.412,26.412,0,0,0,5.748-.037c.375-.06.786-.265,1.121-.151,1.452.5,2.781-.082,4.132-.542a6.787,6.787,0,0,1,3.548-.134c-.615.353-1.351.163-1.966.655-.275.544.576.8,0,1.58a17.923,17.923,0,0,1,4.293-.635c.268-.035.613-.121.584.366-.076,1.265.667.992,1.2.908,1.558-.244,3.105-.584,4.66-.856a10.137,10.137,0,0,1,1.938-.2c3.752.073,7.446-.676,11.165-1.072,3.614-.385,7.206-1,10.824-1.35,3.834-.368,7.661-.728,11.51-.793a22.942,22.942,0,0,0,4.169-.778c.471-.1.876-.214.826.653-.024.42.268.524.56.534.161.005.379.042.476-.063,1.4-1.52,2.679-.356,3.966.278.314.156.6.326.919.127.27-.168.68-.324.141-.759-.264-.212-.131-.531.1-.541.645-.026,1.293.1,1.937.065.623-.03,1.155-.736,1.955-.421-.279,1-1.267.709-1.7,1.592a4.51,4.51,0,0,0,2.482.064,5.4,5.4,0,0,1,1.936-.014,4.567,4.567,0,0,0,2.1-.07,31.95,31.95,0,0,1,6.59-1.088,29.1,29.1,0,0,0,5.133-.975,31.877,31.877,0,0,1,6.286-.9,5.068,5.068,0,0,1,.65.009c.467.058,1.155-.112,1.229.6.078.746-.648.7-1.074.9-.393.179-.868.144-1.189.8,1.063.448,2.046-.435,3.105-.078,1.013.342,2.142.247,3.3.641-.859,1.672-2.389,1.516-3.587,2.125a3.538,3.538,0,0,1-1.429.355,13.747,13.747,0,0,0-5.675,1.453,10.84,10.84,0,0,1-3.2.538c-5.486.871-10.9,2.216-16.335,3.461-1.052.24-2.109.448-3.155.782a18.517,18.517,0,0,0,5.138.16c-1.154,1.256-2.727.42-3.946,1.251-1.32.9-2.841.743-4.252,1.167-1.357.406-2.718.792-4.467,1.3,1.487.406,2.705-.068,3.759.63a.136.136,0,0,0,.148-.047c.938-2.1,1.09,0,1.5.437a1.577,1.577,0,0,0,1.349.55c1.093-.127,2.124.5,3.212.3.145-.027.305.085.351.308-.06.1-.112.271-.182.281-4.14.614-8.188,2.057-12.33,2.417-3.065.267-6.082,1.092-9.2.922-2.413-.132-4.848.473-7.279.6a49.154,49.154,0,0,0-5.974.759c-1.447.253-2.882.6-4.322.912a1.282,1.282,0,0,0-.473.137c-2.294,1.575-4.875,1.4-7.367,1.755a6.813,6.813,0,0,0-2.588,1.036c-.633.386-1.314.989-1.951-.165-.261-.473-.683-.144-.952.243a.941.941,0,0,1-1.572.24,1.232,1.232,0,0,0-1.534-.079,22.4,22.4,0,0,0-2.841,1.383,3.546,3.546,0,0,1-3.012.463c-2.1-.512-4.216-.015-6.318-.246-.206-.023-.431.027-.562.434.576.616,1.576.282,2.069,1.1-.173.652-.88.173-1.045.885.788.092,1.616-.41,2.311.167a.381.381,0,0,1-.2.511.432.432,0,0,0-.138.636c.091.186.247.287.407.182,1.151-.747,2.32-.365,3.495-.121,1.809.378,3.529-.423,5.29-.587,1.865-.172,3.728-.879,5.624-.314a1.755,1.755,0,0,0,1.284-.016c1.514-.72,3.1-.551,4.664-.561a4.379,4.379,0,0,0,2.517-.588,3,3,0,0,1,2.53-.347,3.586,3.586,0,0,0,2.713-.265c.246-.128.551-.333.77-.257,1.612.566,3.226-.329,4.833.066a4.569,4.569,0,0,0,2.244-.328c.913-.238,1.964-.615,2.718-.175,1.211.709,2.346.42,3.531.36.088,0,.18.115.5.33a18.784,18.784,0,0,1-3.344,1.112c-1.339.179-2.7.209-4.044.386-2.149.282-4.308.457-6.458.737q-4.009.522-8.025.942c-3.721.384-7.454.632-11.148,1.33a9.473,9.473,0,0,1-2.427.222,4.153,4.153,0,0,0-3.464,1.335c-1.211,1.255-2.632,1.169-4.356.894.907-1.02,2.013-.316,2.685-1.184-1.365.31-2.748,0-4.1.215-.136.818.581.521.711,1.139-.989.013-1.885.615-3.076.165,1.153,1.427,1.836,1.639,2.966,1.076a4.7,4.7,0,0,1,.737-.381.466.466,0,0,1,.406.215.541.541,0,0,1-.084.693,1.765,1.765,0,0,1-.735.394c-2.7.563-5.411,1.1-8.119,1.643a5.3,5.3,0,0,0-.961.126,6.849,6.849,0,0,1-4.02.154,5.783,5.783,0,0,0-2.747-.051,54.29,54.29,0,0,1-10.3,1.5,60.726,60.726,0,0,0-6.474.6c-1.545.3-3.128.14-4.7.393-2.087.335-4.211.335-6.317.507-2,.164-4,.328-5.989.561a33.044,33.044,0,0,1-5.114.161,13.377,13.377,0,0,1,4.97-1.469c1.666-.313,3.42.335,5.142-.545a1.126,1.126,0,0,0-1.043-.286c-2.225-.007-4.424.407-6.635.621a5.808,5.808,0,0,1-2.1-.01,5.494,5.494,0,0,0-3.687.222,4.321,4.321,0,0,1-1.758.346,6.845,6.845,0,0,0-3.013.729,3.59,3.59,0,0,1-2.065.409,16.743,16.743,0,0,0-6.727.7,26.439,26.439,0,0,1-4.478.96c-.687.06-1.346.508-2.035.634a24.325,24.325,0,0,1-5.983.192,1.073,1.073,0,0,1-.615-.2c-1.233-1.068-2.625-.789-3.932-.518a57.171,57.171,0,0,0-7.947,1.882c-.344.125-.348.107-.058.986-.914.2-1.812.508-2.527-.555-.215-.319-.459-.26-.715-.075a6.752,6.752,0,0,0-.839.6,7.865,7.865,0,0,1-5.185,1.919c-1.881.172-3.743.529-5.648.57-1.478.033-2.991.372-4.5.5a2.746,2.746,0,0,1-1.8-.545c-.307-.19-.745,1.076-1.5.788a3,3,0,0,0-2.514.461c-1.724.9-3.636.662-5.409,1.277-.134.047-.393,0-.448-.114-.635-1.271-1.511-.72-2.307-.418a3.96,3.96,0,0,1-2.565.06,2.851,2.851,0,0,0-2.046.065,1.657,1.657,0,0,1-.63.186c-2.541-.065-4.814,1.455-7.291,1.782a8.049,8.049,0,0,0-1.711.618,5.268,5.268,0,0,1-2.182.367,12.811,12.811,0,0,0-3.61.84,3.462,3.462,0,0,0-1.079.418c-2.23,1.538-4.866,1.041-7.2,2.154a42.331,42.331,0,0,1-7.2,2.432c-1.527.416-3.005,1.094-4.5,1.659a5.42,5.42,0,0,1-1.746.441c-1.323.034-2.26,1.166-3.392,1.744a.478.478,0,0,0-.178.653c.118.245.335.4.545.3.649-.318,1.391-.3,1.98-.841.24-.221.485-.563.859-.3-1.295,2.1-3.772,4.188-5.2,4.335.267-1.009,1.9-.534,1.5-2.291a5.019,5.019,0,0,1-3.358,1.624,1.133,1.133,0,0,1,.547-1.235c.271-.214.592-.337.856-.56a.883.883,0,0,0,.219-1.04c-.149-.37-.453-.287-.718-.208a12.581,12.581,0,0,0-2.2.7c-2.3,1.184-4.793,1.7-7.072,2.913a38.176,38.176,0,0,1-6.569,2.73c-1.447.452-2.791,1.43-4.351,1.344-2.069,1.338-4.365,1.863-6.586,2.646a47.281,47.281,0,0,0-4.543,1.415.817.817,0,0,1-1.132-.225c.372-.647,1.2-.142,1.52-.812a3.047,3.047,0,0,0-4.1.457,9.7,9.7,0,0,1-3.195,1.827,14.427,14.427,0,0,0-1.507.735c-.542.288-1.049.717-1.627.023-.245-.293-.625-.167-.928,0-2.083,1.114-4.324,1.687-6.4,2.851a31.883,31.883,0,0,1-4.565,1.76l-.119-.4c1.184-.58,2.353-1.212,3.555-1.73,2.552-1.1,5.137-2.08,7.652-3.319,1.072-.528,2.334-.5,3.379-1.235,2.413-1.7,5.248-1.946,7.768-3.276.491-.259,1.007-.451,1.623-.723-.369-.539-.915.15-1.194-.521l2.133-1.315c-.225-.146-.376-.332-.494-.305-1.311.3-2.687.339-3.85,1.256a14.481,14.481,0,0,1-4.474,2.22,3.371,3.371,0,0,1-.654-1.8c-.146-.7.315-1.335.928-1.208a3.62,3.62,0,0,0,2.835-.9,27.8,27.8,0,0,1,4.779-2.425,6.039,6.039,0,0,0,2.7-2.783,8.209,8.209,0,0,0-2.751.976c-1.039.532-2.05,1.14-3.073,1.714-.1.054-.2.17-.293.157-1.632-.245-3.231.572-4.888.42.061-.748.486-.886.745-1.2a1.131,1.131,0,0,0,.321-1.21c-.268-.657-.734-.356-1.144-.264-.106.024-.245.037-.305.121-.8,1.1-1.923.951-2.963,1.165a4.7,4.7,0,0,0-1.7.653c-1.133.768-2.4.749-3.611,1.085-.155.043-.374.1-.477.009-1.551-1.367-2.943-.071-4.259.543s-2.663,1.065-3.991,1.6c-.4.164-.921.4-1.26.233-1.178-.581-2.065.208-3.054.671a28.984,28.984,0,0,0-5.089,3.054,5.186,5.186,0,0,1-1.453.855,3.865,3.865,0,0,0-2.519,1.965,1.059,1.059,0,0,1-.975.615c-1.354-.073-2.527.659-3.756,1.15a4.632,4.632,0,0,1-.78.271c-.555.111-.794-.29-.6-.94a2.138,2.138,0,0,1,1.01-1.21,8.1,8.1,0,0,0,2.046-1.508,28.1,28.1,0,0,0-4.267.792c-.839.264-1.679.6-2.442-.3-.3-.357-.72-.17-1.092-.091a17.038,17.038,0,0,0-3.158.837,2.42,2.42,0,0,1-1.915.118.572.572,0,0,1-.278-.414.655.655,0,0,1,.252-.441c.387-.292.975-.024,1.456-.871a7.233,7.233,0,0,0-3.4,1.077c-1.384.853-1.9.628-2.672-1.252-.123-.3-.317-.3-.484-.425-.546-.424-1.106-.825-1.625-1.294a1.266,1.266,0,0,1-.205-1.975,23.993,23.993,0,0,1,2.331-2.727,44.159,44.159,0,0,0,4.8-5.829,4.117,4.117,0,0,1,2.411-1.82c1.592-.385,3.164-.9,4.736-1.394a3.62,3.62,0,0,0,1.775-1.016c-.57-.413-1.018.01-1.474.023-1.312.039-1.812-.713-1.4-2.2a8.407,8.407,0,0,1,2.387-4.048c1.588-1.5,3.165-2.429,5.2-1.672a1.734,1.734,0,0,0,1.274-.2,1.606,1.606,0,0,1,1.86.164c.043.037.1.09.143.09,1.731-.035,3.455-.113,4.926-1.431a.676.676,0,0,0,.153-.5.411.411,0,0,0-.493-.377,2.975,2.975,0,0,1-3.106-1.123.753.753,0,0,0-.758-.255,1.666,1.666,0,0,1-1.376-.48c-1.386-1.192-2.663-.469-3.954.15a54.754,54.754,0,0,0-8.987,5.454c-2.818,2.092-5.8,3.835-8.616,5.924-2.487,1.847-4.844,3.949-7.257,5.939a.578.578,0,0,0-.124.126c-1.663,2.667-4.151,3.847-6.524,5.209-1.221.7-2.507,1.238-3.77,1.827a3.571,3.571,0,0,1-1.746.417c-1.275-.094-2.024.737-2.534,2.013-.235.588-.417,1.209-.669,1.787a2.731,2.731,0,0,1-4.3,1.166c-.261-.226-.5-.48-.874-.834,1.095-1.823,2.859-2.67,4.308-4.188-.529-.521-1.1-.236-1.584-.38s-.832-.387-.71-1.063a3.025,3.025,0,0,0-.047-1.148,2.387,2.387,0,0,1,.783-2.4c1.248-1,1.915-2.66,3.068-3.766a.791.791,0,0,0-.218-1.371c-1-.48-2.043-.951-3.143-.415a2.349,2.349,0,0,1-2.787-.2,1.229,1.229,0,0,0-1.392-.142c-.72.291-1.438.593-2.166.849-.441.156-.9.463-1.359.017.057-.607.494-.685.808-.877a35.794,35.794,0,0,1,4.13-2.322,8.8,8.8,0,0,0,1.318-.756.678.678,0,0,0,.236-.681.606.606,0,0,0-.454-.5,1.766,1.766,0,0,0-1.731.254,5.389,5.389,0,0,1-3.01,1.128C-1121.726-3896.68-1123.861-3896.715-1125.892-3895.837Zm114.481,6.642a4.93,4.93,0,0,0-3.495.291c-2.113.784-4.24,1.519-6.354,2.3-.537.2-1.43.266-1.222,1.166.155.668,1.031.328,1.588.378a.881.881,0,0,0,.575-.313c1.393-1.382,3.1-1.735,4.78-2.261,1.393-.436,2.891-.511,4.129-1.557,3.286-1,6.558-2.06,9.875-3.267-1-1.56-.984-1.524-2.147-.865-1.074.609-2.085,1.574-3.28,1.636C-1008.775-3891.593-1009.976-3890.138-1011.411-3889.195Zm174.773-30.225a9.613,9.613,0,0,0,3.506.427,29.118,29.118,0,0,1,4.369-.067,3.961,3.961,0,0,0,2.369-.249,9.7,9.7,0,0,1,4.276-1.445,2.237,2.237,0,0,0-2.322-.453,17.008,17.008,0,0,1-1.9.433c-1.994.267-3.984-.094-5.974.075-1.5.128-3.053,0-4.318,1.283-1.715-.591-2.289-.517-3.47.511C-838.832-3918.392-837.737-3918.93-836.638-3919.42Zm-23.84-1.66c.929,1.055.927,1.026,1.889.952a25.734,25.734,0,0,1,3.876-.467,27.677,27.677,0,0,0,5.826-.511,129.716,129.716,0,0,1,13.537-1.429c3.142-.1,6.253-.644,9.385-.879a5.622,5.622,0,0,0,1.883-.568c.522-.242.929-.507,1.486.008a1.069,1.069,0,0,0,1.536-.16c-1.109-.46-1.111-.459-1.657-2.026-.09-.257-.207-.5-.462-.438s-.316.337-.247.6c.138.53.087,1.063-.445.909-1.192-.345-2.395.154-3.55-.132-1.739-.431-3.451.025-5.174.022a6.282,6.282,0,0,0-1.566.451c.875.489,1.615-.375,2.6.307-1.106.426-1.934.812-2.862.465a2.187,2.187,0,0,0-1.582.05,14.254,14.254,0,0,1-6.231,1.006,2.43,2.43,0,0,0-1.272.225,9.589,9.589,0,0,1-4.772.9c-3.691-.193-7.355.416-11.038.433a2.4,2.4,0,0,0-1.068.38,18.219,18.219,0,0,0-5.029.215,2.145,2.145,0,0,1-1.123.092c-2.1-.805-4.032.729-6.086.591-.6-.039-.649.186-.962,1.194a5.643,5.643,0,0,1,3.377-.523,3.865,3.865,0,0,0,1.449,0,8.575,8.575,0,0,1,3.865-.38A6.118,6.118,0,0,0-860.478-3921.08Zm-167.858,30.314c3.223.055,6-2,8.989-2.894.321.58-.352.885-.028,1.5a12.317,12.317,0,0,0,3.377-.951c.983-.483,1.993-.861,2.974-1.379,2.2-1.162,4.756-1.073,6.823-2.772.2-.168.523-.135.789-.2a39.365,39.365,0,0,0,8.5-3.272c.405-.2.875-.416.939-.986.081-.711.609-.949.993-1.4a1.206,1.206,0,0,0-.918.027c-1.467.289-2.736,1.242-4.125,1.778-2.788,1.076-5.6,2.075-8.405,3.07-1.247.443-2.511.822-3.776,1.182a1.882,1.882,0,0,1-1.44.095,2.339,2.339,0,0,0-2.5.284c-1.926,1.268-4.057,1.829-6.073,2.772a35.28,35.28,0,0,0-6.111,3.151,11.057,11.057,0,0,0-4.958,1.872,16.465,16.465,0,0,0,3.955-.916A2.21,2.21,0,0,0-1028.336-3890.766Zm-13.344-1.961a7.544,7.544,0,0,0-2.137.921c-.228.147-.636.393-.456.671.682,1.052-.19.876-.482.824a3.627,3.627,0,0,0-2.082-.055c-2.241.924-4.236,2.468-6.636,3.626.411.181.585.2.691.316.417.44.733.714,1.268.056a3.053,3.053,0,0,1,2.063-1.048,14.536,14.536,0,0,0,5.369-2.046,10.717,10.717,0,0,1,2.979-1.338c-.637,1.412-2.147,1.094-2.542,2.467.651.435,1.145.044,1.633-.176a12.847,12.847,0,0,1,1.38-.56c1.933-.612,3.857-1.262,5.778-1.924a11.773,11.773,0,0,1,1.248-.382,28.525,28.525,0,0,0,5.534-1.461,70.787,70.787,0,0,1,8.543-3.145,14.978,14.978,0,0,0,2.45-1.036c.743-.381.557-1.189.4-1.874-.184-.807-.665-.375-1.061-.281-.218.051-.509.288-.632-.276a9.483,9.483,0,0,0,1.461-.816c.5-.4,1.437-.7,1.13-1.607-.266-.787-1.106-.528-1.763-.385-2.311.5-4.413,1.733-6.592,2.694-.594.262-1.158.624-2,1.086.628.173.975.256,1.314.37.157.052.277.185.249.473-.2.379-.808.183-1,.834.248-.029.4-.049.558-.063.192-.017.435-.147.454.426a32.5,32.5,0,0,1-7.6,2.5,1.446,1.446,0,0,1-1.728-.716,1.607,1.607,0,0,0-2.066-.614,3.874,3.874,0,0,0-2.022,1.188,9.639,9.639,0,0,1-2.341,1.736c-.475.334-1.047.5-1.351-.378.735-.156,1.007-.73.818-1.541-.12-.512.128-.6.374-.631a2.808,2.808,0,0,1,.957.075,1.711,1.711,0,0,0,1.943-1.041c.208-.367.553-.729.388-1.217a1.054,1.054,0,0,0-1.1-.657,6.531,6.531,0,0,0-3.39,1.153.582.582,0,0,0-.316.621c.347,1.374-.431,1.731-1.245,1.993-.677.218-1.436.231-1.969.814a4.425,4.425,0,0,1-2.189,1.175,2.3,2.3,0,0,0-1.712,1.185c.161.286.327.291.482.225,1.729-.746,3.454-1.5,5.183-2.247a9.636,9.636,0,0,1,1.386-.532C-1041.678-3893.448-1041.627-3893.1-1041.68-3892.727Zm61.514-74.643c1.888.034,3.542.239,5.187-.314a2.967,2.967,0,0,1,2.072-.258c1.554.616,3.1-.016,4.625-.125a25.381,25.381,0,0,0,5.03-1.422,26.233,26.233,0,0,1,5.258-.976,10.04,10.04,0,0,0,3.58-1.007c-.169-.252-.193-.32-.235-.345-.26-.159-.523-.038-.789-.014-1.057.091-1.318-.281-1.285-1.535.016-.594.457-1.007.385-1.782a24.4,24.4,0,0,1-5.268,1.2,14.39,14.39,0,0,0-4.594,1.017,12.946,12.946,0,0,1-2.717.534,23.539,23.539,0,0,0-6.363,1.431c-.92.418-1.766.968-2.872.028C-978.122-3969.141-979.539-3968.9-980.166-3967.37Zm113.773,16.768a1.453,1.453,0,0,0,.334.077c.427-.086.85-.213,1.279-.264a11.181,11.181,0,0,0,1.3-.053c.609-.148.375.733.662.76a10.98,10.98,0,0,0,3.082-.074,19.586,19.586,0,0,1,4.67-.677.846.846,0,0,0,.627-.125c1.076-1.139,2.386-1.021,3.668-1.042,1.247-.018,2.493,0,3.74,0a3.936,3.936,0,0,0,1.759-.312c1.411-.677,3.01-.358,4.4-1.212a1.545,1.545,0,0,1,.965-.036,6.88,6.88,0,0,0,3.389-.2c1.107-.417,2.419.433,3.371-.85.075-.1.432,0,.6.12.461.347.934.188,1.418.188a27.739,27.739,0,0,0,3.551-.459,1.5,1.5,0,0,0,1.042-.474.731.731,0,0,0,.265-.663c-.069-.3-.294-.345-.513-.356-.555-.026-1.173.468-1.625-.377-.153-.286-.366,0-.537.146s-.372.385-.55.375c-1.306-.078-2.609.5-3.848.331-.822-.113-1.565.122-2.316.042-.889-.094-1.7.547-2.548.25a2.658,2.658,0,0,0-2.506.193,1.85,1.85,0,0,1-1.118.137,3.5,3.5,0,0,0-2.888,1.023,2.916,2.916,0,0,1-3.455.5c.834-1.028,2.241.047,2.892-1.443-1.863.43-3.636.339-5.4.814-.967.26-2.147.827-3.208.015-.966.475-2.561-.4-2.718,1.84-.009.122-.231.285-.371.319a2.292,2.292,0,0,1-1.533-.042c.208-.413.618-.079.713-.558a9.3,9.3,0,0,0-3.7.257c-.474.106-1.094-.1-1.385.391-.55.92-1.3.785-2.046.843A1.779,1.779,0,0,0-866.393-3950.6Zm96.312-11.736a27.361,27.361,0,0,0,4.332-.135c2.862-.226,5.7-.7,8.561-.934a16.511,16.511,0,0,0,4.336-.593,10.016,10.016,0,0,1,3.663-.558,9.456,9.456,0,0,0,2.417-.294,21.576,21.576,0,0,1,5.922-.984,8.876,8.876,0,0,0,2.1-.06c1.974-.4,3.959-.712,5.937-1.081.273-.05.672.034.682-.549-.431-.3-.849-.064-1.268,0-2.092.324-4.179.732-6.279.944-3.555.359-7.124.519-10.675.911-1.453.161-2.911.263-4.361.468-2.47.349-4.939.714-7.409,1.067a14.887,14.887,0,0,0-3.371.509A41.793,41.793,0,0,1-770.08-3962.338Zm-33.325,3.916c-3.712-.8-6.995.43-10.325.817-.316.037-.79-.091-.933.523C-812.745-3956.571-805.634-3957.348-803.4-3958.422Zm-204.08,53.382c1.068.456,2.1-.127,3.062-.369a50.881,50.881,0,0,0,6.6-2.565c.237-.1.553-.266.331-.678-.129-.239-.385-.2-.585-.057a4.419,4.419,0,0,1-2.418.988A12.432,12.432,0,0,0-1007.485-3905.04Zm12.2,9.917a33.84,33.84,0,0,0,10.992-3.829C-988.229-3898.789-991.619-3896.353-995.284-3895.124Zm-76-39.162a4.236,4.236,0,0,1,2.568-1.458,7.492,7.492,0,0,0,1.8-.866c.683-.384.715-1.012.431-1.8a45.554,45.554,0,0,0-4.476,2.489C-1071.573-3935.556-1071.764-3935.115-1071.286-3934.286Zm255.567-22.362a4.811,4.811,0,0,0-4.364-.639c-.749.286-1.482.915-2.327,1.2C-820.241-3956.08-818.067-3955.522-815.719-3956.648Zm-16.041,30.118c.38.561.789.442,1.144.419,1.021-.066,2.039-.19,3.059-.288.754-.071,1.508-.133,2.262-.2.172-.016.347-.113.32-.337-.019-.159-.153-.408-.257-.424a2.371,2.371,0,0,0-1.278-.049c-1.144.523-2.348.292-3.506.554C-830.57-3926.733-831.131-3926.647-831.76-3926.53Zm-117.015-45.943c-1.508-.437-2.879.093-4.561.768C-951.425-3971.462-949.6-3971.732-948.775-3972.472Zm-130.341,48.441c-.038-.736-.57-1.471-.964-1.36a1.049,1.049,0,0,0-.812,1.035.933.933,0,0,0,1.152.945C-1079.409-3923.461-1079.11-3923.6-1079.116-3924.031Zm263.831-25.36c2.438.317,3.275.182,4.32-.578C-812.465-3950.2-813.848-3949.582-815.285-3949.391Z" transform="translate(7087.476 4931.669)" fill="none" stroke="#707070" stroke-width="1"/></clipPath></defs><g transform="translate(-5961.584 -936.587)" clip-path="url(#a)"><path d="M5949.457,1050.1s100.272-47.5,125.627-45.274,317.841-25.094,384.549-66.781" transform="translate(-7 -1.462)" fill="none" stroke="#ffd295" stroke-width="100"/></g></svg>